<mxfile host="Electron" agent="Mozilla/5.0 (Macintosh; Intel Mac OS X 10_15_7) AppleWebKit/537.36 (KHTML, like Gecko) draw.io/26.0.16 Chrome/132.0.6834.196 Electron/34.2.0 Safari/537.36" version="26.0.16">
  <diagram id="dify-component-architecture" name="Dify Component Architecture">
    <mxGraphModel dx="1583" dy="1673" grid="1" gridSize="10" guides="1" tooltips="1" connect="1" arrows="1" fold="1" page="1" pageScale="1" pageWidth="1100" pageHeight="850" background="#ffffff" math="0" shadow="0">
      <root>
        <mxCell id="0" />
        <mxCell id="1" parent="0" />
        <mxCell id="Buge2XaDmnBFpNvuWRcV-32" value="AWS Cloud" style="points=[[0,0],[0.25,0],[0.5,0],[0.75,0],[1,0],[1,0.25],[1,0.5],[1,0.75],[1,1],[0.75,1],[0.5,1],[0.25,1],[0,1],[0,0.75],[0,0.5],[0,0.25]];outlineConnect=0;gradientColor=none;html=1;whiteSpace=wrap;fontSize=16;fontStyle=1;container=1;pointerEvents=0;collapsible=0;recursiveResize=0;shape=mxgraph.aws4.group;grIcon=mxgraph.aws4.group_aws_cloud;strokeColor=#232F3E;fillColor=none;verticalAlign=top;align=left;spacingLeft=30;fontColor=#232F3E;dashed=0;" vertex="1" parent="1">
          <mxGeometry x="40" y="-230" width="1600" height="1030" as="geometry" />
        </mxCell>
        <mxCell id="Buge2XaDmnBFpNvuWRcV-33" value="EKS Cluster" style="rounded=1;whiteSpace=wrap;html=1;fillColor=#f5f5f5;strokeColor=#666666;verticalAlign=top;fontStyle=1;fontSize=14;dashed=1;dashPattern=8 8;strokeWidth=2;" vertex="1" parent="Buge2XaDmnBFpNvuWRcV-32">
          <mxGeometry x="40" y="50" width="1510" height="940" as="geometry" />
        </mxCell>
        <mxCell id="Buge2XaDmnBFpNvuWRcV-34" value="Karpenter&#xa;(Auto-scaling)" style="rounded=1;whiteSpace=wrap;html=1;fillColor=#f8cecc;strokeColor=#b85450;fontSize=14;fontStyle=1" vertex="1" parent="Buge2XaDmnBFpNvuWRcV-33">
          <mxGeometry x="64.25531914893618" y="71.2121212121212" width="257.0212765957447" height="85.45454545454545" as="geometry" />
        </mxCell>
        <mxCell id="Buge2XaDmnBFpNvuWRcV-35" value="Graviton Node Pool" style="rounded=1;whiteSpace=wrap;html=1;fillColor=#dae8fc;strokeColor=#6c8ebf;verticalAlign=top;fontStyle=1;fontSize=14;" vertex="1" parent="Buge2XaDmnBFpNvuWRcV-33">
          <mxGeometry x="64.25531914893618" y="199.39393939393938" width="706.808510638298" height="683.6363636363636" as="geometry" />
        </mxCell>
        <mxCell id="Buge2XaDmnBFpNvuWRcV-36" value="Dify Components" style="text;html=1;strokeColor=none;fillColor=none;align=center;verticalAlign=middle;whiteSpace=wrap;rounded=0;fontSize=12;fontStyle=1" vertex="1" parent="Buge2XaDmnBFpNvuWRcV-35">
          <mxGeometry x="224.8936170212766" y="42.72727272727273" width="257.0212765957447" height="28.484848484848488" as="geometry" />
        </mxCell>
        <mxCell id="Buge2XaDmnBFpNvuWRcV-37" value="GPU Node Pool" style="rounded=1;whiteSpace=wrap;html=1;fillColor=#ffe6cc;strokeColor=#d79b00;verticalAlign=top;fontStyle=1;fontSize=14;" vertex="1" parent="Buge2XaDmnBFpNvuWRcV-33">
          <mxGeometry x="835.3191489361703" y="199.39393939393938" width="610.4255319148937" height="683.6363636363636" as="geometry" />
        </mxCell>
        <mxCell id="Buge2XaDmnBFpNvuWRcV-38" value="Ray Head Node Pod" style="rounded=1;whiteSpace=wrap;html=1;fillColor=#d5e8d4;strokeColor=#82b366;fontSize=14;fontStyle=1" vertex="1" parent="Buge2XaDmnBFpNvuWRcV-37">
          <mxGeometry x="176.7021276595745" y="85.45454545454545" width="257.0212765957447" height="113.93939393939395" as="geometry" />
        </mxCell>
        <mxCell id="Buge2XaDmnBFpNvuWRcV-39" value="Ray Worker Node Pod&#xa;(DeepSeek LLM)" style="rounded=1;whiteSpace=wrap;html=1;fillColor=#d5e8d4;strokeColor=#82b366;fontSize=14;fontStyle=1" vertex="1" parent="Buge2XaDmnBFpNvuWRcV-37">
          <mxGeometry x="70.67806666666667" y="427.2754838709678" width="205.8331333333333" height="161.72043010752688" as="geometry" />
        </mxCell>
        <mxCell id="Buge2XaDmnBFpNvuWRcV-40" value="Ray Cluster Serve (DeepSeek)" style="text;html=1;strokeColor=none;fillColor=none;align=center;verticalAlign=middle;whiteSpace=wrap;rounded=0;fontSize=12;fontStyle=1" vertex="1" parent="Buge2XaDmnBFpNvuWRcV-37">
          <mxGeometry x="176.7021276595745" y="42.72727272727273" width="289.1489361702128" height="28.484848484848488" as="geometry" />
        </mxCell>
        <mxCell id="Buge2XaDmnBFpNvuWRcV-41" value="" style="endArrow=classic;startArrow=classic;html=1;rounded=0;exitX=0.5;exitY=0;exitDx=0;exitDy=0;entryX=0.5;entryY=1;entryDx=0;entryDy=0;" edge="1" parent="Buge2XaDmnBFpNvuWRcV-37" source="Buge2XaDmnBFpNvuWRcV-39" target="Buge2XaDmnBFpNvuWRcV-38">
          <mxGeometry width="50" height="50" relative="1" as="geometry">
            <mxPoint y="384.5454545454545" as="sourcePoint" />
            <mxPoint x="80.31914893617021" y="313.3333333333333" as="targetPoint" />
          </mxGeometry>
        </mxCell>
        <mxCell id="Buge2XaDmnBFpNvuWRcV-66" value="Ray Worker Node Pod&#xa;(DeepSeek LLM)" style="rounded=1;whiteSpace=wrap;html=1;fillColor=#d5e8d4;strokeColor=#82b366;fontSize=14;fontStyle=1" vertex="1" parent="Buge2XaDmnBFpNvuWRcV-37">
          <mxGeometry x="382.5333333333333" y="427.2754838709678" width="205.8331333333333" height="161.72043010752688" as="geometry" />
        </mxCell>
        <mxCell id="Buge2XaDmnBFpNvuWRcV-67" value="" style="endArrow=classic;startArrow=classic;html=1;rounded=0;entryX=0.5;entryY=1;entryDx=0;entryDy=0;" edge="1" parent="Buge2XaDmnBFpNvuWRcV-37" target="Buge2XaDmnBFpNvuWRcV-38">
          <mxGeometry width="50" height="50" relative="1" as="geometry">
            <mxPoint x="465.8491448359429" y="427.275483870968" as="sourcePoint" />
            <mxPoint x="341.5720666666666" y="209.2258064516129" as="targetPoint" />
          </mxGeometry>
        </mxCell>
        <mxCell id="Buge2XaDmnBFpNvuWRcV-68" value="&lt;font style=&quot;font-size: 24px;&quot;&gt;......&lt;/font&gt;" style="text;html=1;align=center;verticalAlign=middle;whiteSpace=wrap;rounded=0;" vertex="1" parent="Buge2XaDmnBFpNvuWRcV-37">
          <mxGeometry x="302.21418439716297" y="492.9716520039101" width="60.4" height="30.32258064516129" as="geometry" />
        </mxCell>
        <mxCell id="Buge2XaDmnBFpNvuWRcV-69" value="" style="shape=image;verticalLabelPosition=bottom;labelBackgroundColor=default;verticalAlign=top;aspect=fixed;imageAspect=0;image=data:image/png,iVBORw0KGgoAAAANSUhEUgAAAcYAAADZCAYAAAC6lZDTAAAAAXNSR0IArs4c6QAAAGJlWElmTU0AKgAAAAgAAYdpAAQAAAABAAAAGgAAAAAABJKGAAcAAAASAAAAUKABAAMAAAABAAEAAKACAAQAAAABAAABxqADAAQAAAABAAAA2QAAAABBU0NJSQAAAFNjcmVlbnNob3QuLvRnAAAB1mlUWHRYTUw6Y29tLmFkb2JlLnhtcAAAAAAAPHg6eG1wbWV0YSB4bWxuczp4PSJhZG9iZTpuczptZXRhLyIgeDp4bXB0az0iWE1QIENvcmUgNi4wLjAiPgogICA8cmRmOlJERiB4bWxuczpyZGY9Imh0dHA6Ly93d3cudzMub3JnLzE5OTkvMDIvMjItcmRmLXN5bnRheC1ucyMiPgogICAgICA8cmRmOkRlc2NyaXB0aW9uIHJkZjphYm91dD0iIgogICAgICAgICAgICB4bWxuczpleGlmPSJodHRwOi8vbnMuYWRvYmUuY29tL2V4aWYvMS4wLyI+CiAgICAgICAgIDxleGlmOlBpeGVsWURpbWVuc2lvbj4yMTc8L2V4aWY6UGl4ZWxZRGltZW5zaW9uPgogICAgICAgICA8ZXhpZjpQaXhlbFhEaW1lbnNpb24+NDU0PC9leGlmOlBpeGVsWERpbWVuc2lvbj4KICAgICAgICAgPGV4aWY6VXNlckNvbW1lbnQ+U2NyZWVuc2hvdDwvZXhpZjpVc2VyQ29tbWVudD4KICAgICAgPC9yZGY6RGVzY3JpcHRpb24+CiAgIDwvcmRmOlJERj4KPC94OnhtcG1ldGE+Cvivt3AAAEAASURBVHgB7L3pty3JVR8YZ7zze1WlqtKAJISQEBISRiAENrTbhsY0ZmwM3ba72996Lf8x/a3X6rXa/aXdAx6WbWgE7ZaWAeGGosCAkJAoNJSmUlWpxjfd+Uz9++0dOzIyMjJP5jnnDvXq5nv3ZGTEjr137Nixd0wZ2Vvgchu8YnQW7vV6G6Rw/VFZuZ1jua9P2Qu+LlaGolGL61RuLW+shmVZrMarFbGMq4VsfUZpeCu2vs40wZbkgRBYWqW9vNyLxQzQPcADVjIhf6/KdJ6ffgthKEg+f5TdhB1FWdDyEqTKmUH58kvpl5e7yLUklCOYRT8Hop6b48b2MegDKIXL4mI+gEbKWxEF8hkqg2MVWZwgECQ5Aj7V60WALQWYL81brduFM15Ju0K9hNH41MgqfksXqt5FUQcXc1ABGf4Nh303HvG+AHekTargq5l0iY+6h2FdwibirXCbwHWD40YCNxK4kcCNBGD3Ux+VEwqdQxu4XN4V4wp/VIRWRHXl2TbuGOkMrQd35aW7IgasQ7CodO26MWRyNHzdcl8dNPm1Di57dld5sbPpO5zChvFld3Yv4/SVeCUy7dp2yi62y2xIVyMWCsACtiSLPEKT4FJoI96Q3+j4njoRDHLZDM5QteVJWOkAbPjju9GWwnl5ZHgstSMPZmgMBWWZcmNpgl74tVzQnurAqaJPwoogQWiBBgG7QBrMGtPK4aoOf2RMVDDAENGWY/CEmIoHFU4KSCuYoijicyHAErxoK1WKql2GLKGVwxnHCXg1D2MWxqcMCs22gH7EgtYtoKO4GH3X8MYdY1cGbuAfQgmUdfYaFNBaS9zw4vB6LErjXRGFcWEctkWzSj7L05YG4bRs+iv5ahxqilv6hF0L1YWxCDamTZL8i+MiUE0BQE0xyqDpUySGIilXyHrqATrLZEgt0CchYk6x53MxNk0p5yw/JYSSR4Wl6zOcdo8BDWNwkXHiknB9HsOao1hBasCVhG4RN46xm7xuoFtJgHP+G9LQVvTyQGxIpca0aZYi5ERdKrN1rdvSNLgIZ75UaSwypiODNjik+5/iqmYMZZJeO9Kt955mzT5X8VXBrODVlFVixLxCHrGZpTYWF8OkWYYJ6RlxBg49mvAsmOInpRTHCF5EkB+lbK4FT1EdME/Mc+CnxDtjjf8CgqEKTUnOx5Zz+kKVI2ueIthU55hjkRk+1/BbIpBjM44zsoyTMH8ssoRpYw8X5hg5DViautgYy28cRKL3F1t/nYQR6gN1c7FsFU38YuksKT4aEv2T8TCoATdbb76sBqwSHbddJsbPRlNwxgkCaKkFyp6fdu860lLUZQLLajdAJ8ZNuEqEsPDzeyJHE1SQaMF/GhIagZCm2tJAGRa6EvA2wCW8lnHoE2WoJAvCcwZTodJxIl7IotAVeSGtn3FT3IYk2lSgFzgfG5LmCa9avII3kSWmVCXGw1IG/apalJVK6Adq4SliJ8RZxlS2EYAElbc0tuZZZKWYrTQlyCwjKusSXIuHGP+CMsJ/qy+pZMRxw00vP//cgkIzyIU5xmayN6k3ErgCCbDh5ozPFbBynUjmHdZ14vAh48V08EYfr23FXqhjtN7Km7XhWW8s6YRfvTKAMWmTl8DY9ZABLVG2O1uqC+M1jlxVRKb7gsuTbtMOBDRhtSsPMe1WNDMFT/PxeY4NOP0+t8PH/flCWmmeIkVDbfmK4ZhT/EhXIUTEtXiJUC0d0fnSGGED9COWVI+8k9N6UxoZcQYkIkfk6XugtKwBsCHQNU/Bj2c2g5t8CV4A10hKchVpRcGLHDn8RY4S2SV0YljBTzTUAeQr6RlJSgFztGMs3cIX6hi7sXIDfSOB6yGBNWzw9ShAzIUYlDhi/XCNqVsf8ZsdQzIFu3lx5LaI59YFV6Sc498vEayI8cqyXZhjZO+j5NmvrIhXR5gG9loaWfJ1kXOK166BxN6hnVm3egvQIbCCPlln1u45XLk4g1+BJLMwu5XDUOTIWJqSS4nGz/W5u7Z1wSrMeWMN1MXIQ+l0xVnZhISC1XNspW64J5mTR82YicxE+dbGFE3Fq/5r8OZrKq3cqChhVCnkjCO7R4A+qKNFz52137jq0ywySitHNrATAJWdoqZDAgK+VBKVhSBfAgQsdLjZzT4FRuoPy2XbnYqU5aELc4zLST/8EG0U5Wqk0KTxF8MR21GgGgIXQytgDQ0cTaNnvWVpmgGkLpBp93WgjfGkZnpgjT3fKckJxfMas5wDa+AgztoAVk0KGUkwPEhZyjHVrG1iBGNFyFa4gl4bXE0wm8MUS6GJYhVO61s5EWcvRr0K14wV8CIvykjlVBFfjADkirIvl2twpMBh+WTTS4wzCpsuR1HIZznj2CQMpuugNN6nxkDGfrAgTIwBEhr+MUCEQB4uF3vjGHNSedjjIuXs3CtfUTZsxNRPadZB0VdEdsHZcgbHnNsqpFN8XYsf8iNjl7xiD0Jm5VyMdA0StR/6W5RTgflLGTA1hSBsn0ecRRdhm3QrNsTMluMrhYnQN+KO4a5bmDKpO/ijqby5crSFT+smhyun3/UuLIcBepHoWh6qIRYqFLTIAtSjhixNScKP4WkCzKRt3DE2NYYM/ZuoGglQjnMcG8PKXVvhamhcZnSu4V0m/RXbhziDTfLJeu15J6IyadHsPUgLyE2yWsElMuQP/niL6zQOM2NbXle1F7k2kcO1KlwOF8tlV4o3B1+GEemV2jJlJOJs4VAMP0HLeI2j/J2wad1Y/cU5WrAQg4ew1bOWLkSvHzDEwGS8sUPB8kj58bpLpVwRVcsTRXUKbtwxdqJ+A3wjgRsJvDEkAEM1hyXqv0E3U1wXIdPBNRn0Oj7LzjDyGnUZLileHCKdtbj41YiKEzPPek2KtjHHaD2a1URzk6sqAWoKd4zhTmUxxakCrhxzqXVm630sii/LQt6+Xpn9pRnVCOkXDXo9vN6/wgY849WIrWLULC/v0oPHXfEssQKRzCRvogSr8CIGLNGlJj3QrxV4BRSn6F+qJnHiCUyUhSskEuHl6JQNPkvJq5BLkaeMX+HKvyJb8MM88lpJOTk8EY5Onjzm6QfQEGiCMx7rYLj5g3/gSnR/LuvdePIvpydiCjSbAmValFchs1I+6NDKTgsCCvpSg75Eq+ahUr5Er0vZRHFKMeGBvEitacUhnjLlA/cPkEGFkCg8rXNtzDGuw8RN3owE1lDEDLabqBsJrCwBs1X0gXQC6gh4V9+4MuINZ1zmoIwc4dS2Wsks5RLvV0j6Ekt5aaS0o2BCXd943jjGC606WhJfWVZnF0qvA3Jatau6Au3rJpR6gQSW60Fap+RxmSza1Us7qHqWNH/8W4Y1bkIsQJVvc4whZWmgnkpzVo4HNC/gUqFhGBLzaA6bBpJ/qZO0Z1IkTuaN42wEFscR1q443mCZFsczHNO2vMqodiRC3DqByhCsG7Ig00w2kWkQbAhkIFtGbQBFEyUThdQJCtZUtiY8adrajjFWDCI3xTAlSQm+uZ6hFResGCvJEw04VSAxM+RVlCtNXYlKPpPgzydtOvY6il7LWJWvNXDdsVhNr8imBUglTxrhcawip055UqeW8lH3DP4CHRNQHSzieziVx+Bj55VmsVNn0vi65yZccR6Ds3uRRkGDM/wviQJlMn4L2OUh2wBcwrU8W4BopClsJhBr6FqCKfCwyQDlrX5oc9TWdoxVJdhkkd/YuKQte6VaQ7c2L4QVG+RGGIHu9m2xz+sxG/iqjbwNT2w0lD8n0FZtOlKXNcS68r6JNtN0djI/+bfsohzCd+5ywFGhUt0l/3VyjLIFrLYLN0REAX6RvfaKhd4Axvx8JUFAauDayrwtnPGcwpPligykHGCsjjfzdIa05b0QT11t1CAqMtYA1Ec36V02V02ZCZvKLps/ikwHYVHSxoNrO8aUI2O+a6FTPA/Fc4NSXLfyWb1dBl82Xr3ozTdWFtLT9f6OBsQQ1NwrBrAGLo3O7T2YZqxmdbsJFCotgk3VeyJdeKqgIo4UAYAWbobNKn18Yxd/taeNQMppXit4aAekmFI1oOq9BOmFFlBFtMzWCLzPlIMTCnAKJbyIFNgIn8KR0xRSeVwGn/c7wCXoIKc5NoLx6xrGS2BW8Wd/LbsktslQxWJyqqa0iDH6RjqjxNn+mJS5wM9HfkVEeDFcRXJjyPIElCHQmG2lxI07xpW4eEgzdaz3h1QKN8VqIwG28VhfLrDNt2GnCgPmxHfIzxVylzqwKqd5R5eBu4m6fAlcoeZ0KuzGHSO9OnuO/Furh9KpGNcT2IxdrAyx8btOXGvvuMxd+Wnz3MY9a6G1YYIBHQNxJWyoKDH/RNnCZtdSpvzrWQwlqc0fEuqQtEWRFgqIjTOWj6Pv2iuTtwSby1qXZ5kwpZx1hY2oevwBkoGED4lK+BD4OC7lJ06LyMHoxU+ZsAixzELIkjAW5bY6iKI47Co9rvWwAVTFCm89JyTThu0YJhW9YBdl3ADTNaxu3DHW0HlzRqPeKlVXr/tXKyNhNOE2q5EXwyYpX1fRtC0xG/OqIqtOmwKXr44uOJMaDKy3kW1dXlNisUUNiGrzey64xpte1RiFqCPTprMtOGPL6ola3pxzr/CBiDgu5ieOb1segyOeGBfjy/jS1DhnGbqcz+A63j2SEq7KNClS69gScpo7p8MduVkCTiZAq8TskiwrJt84xhUFd+HZWPnUA68LF07vhsC1k0CjLerA7Tp4RA2BgDhsJqgD6QSUWC7BqiVU48dVZLFKnphmGjYJ2D2ki0NqQY09pkrmgKVTIPQfjKzgtQdD1UQMY1lLTrNZ9gu6XyS5G8d4QZWmaIuqKzYmtOlXWT7dacceruqeaeAFMg3SuR71BVIUo6s/m6eiU/s4V3HzqAPGLiO6kGlJgPqSbmZg7Vc0oNK7B5AfakqZ1yy40AM+noAjYZ4g1PEqdJ8ZU4aq7aEM35FYAh5GiZBnG7wGHzhdWrm6iaYgy/JVy2TpKkPUI+sNf6X6lHorxVi28h2eSJxRKsoyVPMTyCglj8ST5VPClcSUGXVuQPbNI67DR8KloUyi5TGoOujx0KyB5zkHu27cjWNcV4I3+W8kcEESuMB2f0Ec36B9GCRwo3fObdQxWo/M7g+DkmyqDNa7WtoB9QS1R6hdsUtVVBCLF/ovoy6lfJlCSunX6I0SJc/E5NXUExWANX6acLet75Q89aUy7ohk1KZe6uRKWm1lqziUMMuykNcMhjKAkJmFFvVjum9lVNr1GVN4y7fOfRWccdnraatsqGA+BNC0bF5+goSbEw2bzs1Yzk48BhzABfQFbY9bImIgxPuZBKNevUPnmC/JVoVr356a2kYOby6uwKGltGe2AR6IwbvF5fKvErdRx7gKAzd5biRwORKomI7LIbsGlZRjMahp5Br4V8latplkphzTBudqudpgviYwYc7P8yMi0oqTDo0YdKQxHha9k0NsXUQiT+umhfIgSwuo1lzkAVfgK4/owmJvHOOFifYNjlis8BWXIW0/ndlBE/frNmuj6kz7YjKsWy1d5UB4M5SS1486FE9XbIbpYmRz8Vgz5ZUitS+XjnI8p3SKDFr2DPqlZbK8SwFrAEDzYhxzDT1Gpzy3LjcBy5k5UhT+2RlpjaeBN5+0EccovaDltN7UEIWMyhV7XYWyQR2rL2LasyakTI3UZ+mS0gMulbZOt3AzS2V6sgvCDrDrOrCUFPHJxFsb9amRa8DZpXIJ64WmZeLpN9XtGQF360CbgrRGdkmAVcGZhpUY8J2HUpwODxHFDXVeK3GT/FW05axLnnQaMYckkXFGLxiVQC2htjxZ+WmAy8qnAV6SyChaMPPKuXQsr3IeHHsoSAgsQ1qbfll2opaBm4QbCVyWBNZvLpfF6fWkw3NNiw7e9eTxhqsbCWxCAmuPGG8aSnM1rC8fmvNcb7CZ7kqpGAlIP4xTPFG3b/0ytOdGRyXt4ZdBEp/wL2UC9AWLctP8W/m0OjjaWK0A6/BF+c39R6VVF9bvYkTqJUWUUvmipWkmg/gew4d4sNWGs5ws2tBshz1w0xjgFz74j/Upo8ZG6GpiHb/WbrWMTbrCNr7JEgFXG+FXi9I6RtBTbk3Fao2tGXBtx9iM/ib1RgLXQQLqTvSTTteBn9V5MMNnGJYbQIO8ub+ZJKBOKu+pch2DN5Ns2pR1bcdoDfUyRxVtCnY9YNgXVOXUTk7brg7yRKA06BfdGxN5ZXpjl12vuXK2asi9GYpAuVHeXuZck8AC2WIxwPIE0yFUiaNwCdv9ZXVkbLxy/FuGVuUw4MxdShXpBUGSx0wuH6UiqU8XRPghXLwGhE8hyBc1kLRwE0gTsuQ/LMLwqxty2Rc3ljJDgDpGPG1BWAej5PQ3htcYzbUsb8JkAA+BmEhzuLayy+WUdTyil+iF6w8m8oL6Qt6N4OET/NpGvWSyTMTsWt5M+83ljVjJJYe42uIFiMsMYHQNhji+phh53ESPR2DI8NGEYff1+VrbMS5jgY7zso3rMp4uNd3qirVZaxQSjgBLI1rIDUiY33Al4Bt9vAwaG2W4HhnHiSJ2ChPl0ikYGCFxovX5HsYUOWmlVDCvUz5OfKH+IEakpvrWn+Bl0LHoo1uM3GKmCrJYwCmKIRYP6X2pz1eikz7kYcpql4eJMZXh45TleUP5JBsNLK82+QSw9JPng7EeH4PojIkuLmBu8UcZUnwCYhtJKEvLU6LQ9sHK0Q4+z3e7vFcFFTYtCQN84qfQRMCIWa3+6spy4ZtvCuNex8JNfCoBbUSsaI540Khg2Ddb7SnFh+EZDSQaLVJg89ncTabnGN1AfrBEk+nMG3iOFAHP0eNlLFhcY/FSr0S3TMEoQ7E11Lm5m0/H7ux04c7Oz9FNn7jpbOaOj/F9xhlkyO8zMj/h3wBXKOsmeF1WZujVQhyi6twM8jo+mbop9HGA+PPzqTs9hQj92q3rTTfB1cONA4rGPu5kQplq2z2fYB6DfTem+X+bEEIPRteaxMr4DAXvoi/s/fiRoqXZlOvKRN6QGbUiW7MO+c3mcITY/dcfYNKqr/0WxtHI80vogwGN+sVfVm8XTymh4K3sKlpJRaafY142nqk7c+PRlhsOBxJ3fkaDPsPzyI1Gatk4krrItcdVypFIJPto9bO6U0L5vayMgPBKsVCQuCaTuTs+6rsZOhW3bg3ceNvBsM/dg9d7cJATt7c3dFu7BEbnY4HEa3xJkaLKWMceLc0rSkinB32EHTw9c+7oiHo3cwe3x9DJuTuTuHPo3sLt7kJHoY+rnf2pI0XV5s1UAFgWO+7VYDNIN4DlHLo3mUxdH3ZxNMToG3xOZ+i+4a+Px60xbab6oKV1tISftR0jK5Z/xgjvcZw809h7RgxuCV8PSXJLxwjhzNEDmkNOfUyt0ClSOWV7PCTRh0Nkm57BqBOGzpFw2gu5GFGxDq/kWtExGrtTOkR0IoaDoRtusYUv0DvH2lhvCIPUh/xm7uxEd1lubQ0cwC70Mr42TcTqZ5OOkTyiTwZD49zJEUc1C7dzMHe7eyM4xIk7xYhnNNqBIceo8XDhDh/MoIIjOMg+nOYV6UtLwQp3UWWsY4eW5uVMBNZdOcg+PppIx2L3FuS0gw4aDTlk2YcR54mcx0cLd3I8gVyHkOsCzrPrJN7D7RhZZbR5dIhcix2NYfsgosn5DIOIGRwiBgrYKwAQ6O4EzrHnttDO6TzXuVZ2jOr8SJqjQ88CCpFrHlxjZvycrY4lRYY1+fYEr+9NDdfyyiEcR4OU0BCNg6IUZeBPdLExmpinmBKkIx0ORupAASf5eDegKG/rIGiWqbbOuRpgxqonxS7jlbVB8sgpPMqj6HjA1shopj+YuTEcXh89x/PTAeLKMhlv4VT+4QLxMxh6GnaMegQepLzsltdama3cU2M5chlaxLFu1q8hYgCmOQ0KEPa5VsiRyxAGeyTTe8cnJ25rZ+4ObnEUOHCHh1N3fgZgrjFCVcejM7d/C71zdCoO7y3c0YOh68MY3XoE0IMz1weuPo2VyJNEru6yDoRwAH6KVtSRp5q888p0PMqLNcTDe3SMc7e33xNZUdZ8lo1MQhpmHnrIkSJnLB7cP3GTk223vQPDDrHzIyY94halZB0hLGuU3HZSDEQ6lqIWfC27UYu1bYLXEXRitU1rG6ezO8c8KZdBxuORzPywPZ9CF2XqFNl6UEgOHESOkAvXboljS9o5wrAD/rswBTMk59t6EVkOdXaM6hC1ID2MWoifT2IINLpKFPE2wCGcHuysn2tZ2vsq8/uGedIGSelUa8BkuEDNU2RDjAA5TcorvESd0VTB5uFmcKac1uL7UBxBBvAqOcHb6geVY1XYCn5doK6OkdzBQFDVKVfqEgbR4uT4MN6CQUbSDL1y9jBpyJmFZQpiQf5+fy49T+oee55c72GnZITeZ58GSXIwFy/mJBKRvsS0+SFvm76IchM1pLoJbFzXmsOCIAhfiDWwEzHIt2/tiNM7OcU62An2/tE+U+aQAcvFmUK25/HWDIYfoyBMWj+4d4SR+DYM0pbbu8V0THnRkBM5M8h6ueIgtsu6tKyeGqpwdceYzzlHOTk61D+dMp1gTXY0dpg2HUKOU9HF+RSbboQ6YHkXIarD4yaSIaYGZ0B1dHQmM0Pb29twBhz5EJwVQBmiAKD10DlG2wwnu5tVx87hATlDxmWQ0RiygwOcYAaD7X0OOHYmKBHaUMqG9o86OUIDZueNOsmOG0eYI7RpvSh3CzffOzlGM+gyegEFafzgTu6sMwSWOTopAHjiiMfghde2HDeX51qkFo2RJUtqAvLiFAAvyopDfhY9OETCJ1kEOPqRJkoY4oKD5EicuAacgmVD6npJBQq6rjnXg+/sGJUcs7E9zDDq4/orjQrXDBnHdTFtKwCqwy9GCc5wyJ4mGx02l5xiCz2GOCOsP6JzCnlCuFIP1FN04uRDNBLRqsxepK1g2wKBI1Q5f1e5kNPkgbviQQfitC9Ocb44cduYEt3e2XIcfZ9gNE1DPcfIkhSt5Mwn2+T9qy59rJvtYGp1B3Lkutn9Qxh2jDJ3t8dud4dyZGbKktYKmms8rFKEFnkq0mFFCPNaAitHC1QKIgXwQZ/JaBDXHGWjXLlBiVOinNbjeuzWDqfrIQs6xLnvIIS6Q07KRGTp+WL7xdojfoFrDvkrrt29gYyGSNpYwSDIl4mx61+Gd31MK2CQ4kM3cC2wmYv2bDaFTNHhGI/HsGdYz8aokU5yMUfDVO0LI0YRKeQh+ox22sdQe4A8YgfF4aITTAeJH44sdXc2BdhsKFs5RhoOM/aFU2Qci6MVy9DSS5SUzBFSMkN5VCiMMdwMvxEvk1HBOwuKv1Bx7PH4TTTo2UjlSRpAVJhF1oYQ5cSLWTiApAh1/ZHTMzqCFPEqWAMmTepCeymyLgDeSIomyM/yzOwNTjAi5JoX12K3MEqkOOgQOUqkYbHRTRM2kuN7eZAe1iW2pHdJh3B2hoUhJG5vjWGQGKR+0hlI170JpaR1qMaluAgQ142IqGWdVpFbe2VvG6WG0zs+YnlP3fZu3+0fYOoT9XF0hJ2TFAs7AuiZF62TcSo11+d2ym0xZIyl/LnTcv82evhY43lwt4/1Rxip4cQ9cltHn2wGOgHOHBd3iYzSSgCDq4rN2lrMsdAQWXCqrwc5nmLH88Tt7+/JeqtbQIbYnCRTnzTmzBDsMB9MqqpTjJHOBnb9imH3C99HhxPUzwQdtS10WGDwOZvBzSUb7Fx4UxIX7/LCrBTUlYz+IIRzLMqyE0qHOMDU/BQOkvaSbZ4tkG1QpIcIzjqK3LgzGgGmawBQCNK2iryEBh0mp62xaQcd6DaDh6WO0RyXOS1rqHonVf51u5iXnlvU1WdnnMYj9kprq1tZYmiVSRyj8mG8yZEjRNtMw1GiiY+y0KqO8+fDJh8qBLWD4uKfjphg2BHmyMemZ/NYitgq30XahYZKjpGFyV2UoV5Tbs3GKJFT+OMtHR1zrXCGoc3CT5uKINiSePlRjT74X/bUI8NCx0e5c0p6xF1tMD4T2P1TjCBpn7a3RxJXwhEejOeCR6mTkL5+IK2biPWOyKmD4BMIOBqhMR/BAN26revUJ8dYkz2DIxR98rNBlAx73ZCZjDZlqotmnQadbZijaYQQ38O07AB1wL0Q+wcw8NDzu/cHcLRYr9zuY70SOy9BXtt9R9Y7gEuNpJWAui1qqAMyyaQ54/ykwbZ7dHSEUeI2NicN3d4ByobP2s9mMO4TTE/jYpt0PfYyEOCoUZBQNylkCo6dD/mPtmrOktghYWxR5a70+azvjrDRaTI9g3Psu50djHwKLwvY9S7hcT0US3KzPLxiCWoMS86qOsdMAx0g9wZwCnqOXttkwo1ygIC+xrVH/Rd7yrz410MbF8dJOeKPVPjHNP5SD+EPJZJtnTo7xtQs6TRdWcdojdHuaoitsTShWy1NRCY/FApLiHLIsBd3H2+8rEbhMnJ5RkFKKgiPLAsdInlnBXGqk2nptamyicOFMsnmHNBVmhyZUgFpyNSgKf2C3xI/Iv4MkyWgi3swyiZDNgzOPJ/Lu0szmRIZQdPZkLjGupBNJCiLL85SWbJlRZc0NP+s9dTDaFEjzrDGxp2Z4xGmV7dprCA/YxABdmXkEpxlvB5l6Wa6zAa/qUv4FzYCY5jeIwE6NNz8hg0+nx7jXbpDxMGJcfMMHRan7U7hFHk6UHyZHBNxCYil8cGoSm/eKzcNGTc/7GEqlVPdd+6diNPd39/BmiQGT0N03mCk3GIsHRLu0im3C8Mq5KC3y2WrvCBfOasi4C9wtMOiWRZ9ODgGwSMD7CBww+h8OoAzxFrg4bkY2L1b0A+sY8nal2/risGrZELXyiKGuwWvdJAwHZAfX53hMkHf7e7rZhTSEdEAD8vWUkzG3iXcyRh1Edz5NiJFxiPbgLxShY7tCFPI7KRRh/hOIqdSpeMAwYtb9AXTkaVgEN6pM/r+Ih59tNws7O99dFhoGylH6QjDLqPKpN50T4EXRaQgFcdIpecfKzBUIp51HQuYN3wZLaLlEJjXTJwjSoVnyoQGPm6MCnXdfgupsjfJoT6dImVom2MQlb02WjYooPm/CRawWW8DvOTDKVadX/eKWtfrBI/SaLOcXnwkX4qWjQyQGx2iTJFic8wIC39jTNNRhhPZqUZeqOn8o6Iob0tlmVh6Plq1aP1w9MhFf74rBQcMdk6OT2D42FvfQiMGKd8M2Olf5arTg5VwkX/ho2CGK1VyiVFCRwnTzA/uDN10fozR3NDt8PULdDRO8KqAvmAOK5HKxTOZRAvasow9LdBkPA0Z9YeGiCcM7WAUsINdlpixdXfuYGiAqe7bj2InMDe89k9Qg97xkJ44Z+IrykKCZocYbrraOpsmHJZGDoQLjpaxkaOHtasp1mMfPDgSed862JMy0FTxFSC5ECavof0QAZ5NQoRpWxbBJxmIhJ1cvqLF0T7WMlFvXNvd28crSUO2Z+9ApE3H1AKWKwpQIPgTJSr4guphihi7l9GOttELZcd9hk4uO7qqA2xgLBcuZCskqO1fEwAK1FJ6ioh/dovDiKMqyj4BoKVeQozYGEZaXHqCBoZNToICP2hBUGZBY8ouys3KxJ9N/2ka47xFsPybuJN6ITPBKAVBiHSlQJ6fTZC7CBwqM5WNjRJJh7tNefl6knDuR+VbTjFlCI2snNzwpAJl5VOwxI3DNuCo+Q4a1uO4RiFpmP4ChPGW46GByGaTqILKlLQh9gzZm+SO0QEMAqdYyOsEPUnKV+QtvFNKTJECSfxSxhJLz0eTQcjLRoMGzWkXefEa9Tg71ylIQm/v6AEB5dbAMpAp5SXg8gFtZWnses/EqeTKJZj34IUwrcmNH0eHeG/zlBtkBpjuoz5ghIidprMJpqB8NrvH3Jg+1BQnBpUw6yy+iJpGi6uUQ0wT7m6jcwYfyNHW/bsTGHQ6SK75sOoJTecCicp0LZ4FneIsYwZYcoU24stTSvZ6xbhleOJ8LA60TXJNsY744B43hZy5g4Md1D9woR2xTfUwIley+E3o8zGlmXOMgf+YAR82eJGRyIk4OWrlbAZGW0Nsctpl5ztHLYPwkqMoftFTigfiPEMnl4OGrS0sUWAmmT5GHCIlRRhx7lW5ldnWzofgRT7TX+qshr3ULYG4JYr1iSDkOKRXxsU6lmds4MO2AoQZizgwBnwUKiM9QnnSH0vTp7IpiMA2HjRW2JBt5EX+cjxunPgKCClCnsBgdcBRLi+RLBOtQBncZRkLigCfpmWyJ1Fa+Rap8rLdXkzDLjeMHm0KQfhDbHc6RmH9O7WOfJCHyZTTKROIi1veYUwhR067cHq4OBexqqfkolUZUgMOVCYD4uDF6qKxIg/8xxnUEZwjO2xnZzRI2NGKVr2NjT88gEManRgtZkzaiC8ccW76YnmT4ggzU4xg+I4md5YO+zCc3Nk45kEHWLvB1PBihrNPqQqyrkUBkEkttwSiH67AtrsUh8Eyl5VZVB+jx/FoJpuaSPvwEKe/4MAAbnLi9Cr5o7xjx2idQ8NZd2+q91XtxRz8cpbgBBuUTrEmy1eBbu1jdQ99XbhIyI8lVJ0gX6tJqa5ERbzO/kSyRWdNOregzU1SpxhBLlDffBd3CwdaCDzB2zJUkLqwEDuz+kI+pkzRE2Jnk+LjcojYdpRFG1EN01HxA5NQLqkCFNjqX9pD1CBM/wQ3UQseBqhrXBdHE5DmylYOe4NnbtBhe+9hNyMOLS8cjiJnxio3aa8wMLnhACkL+2hBHPpSsLzoJOlwpMEE9gxaQC79h/Ji5dJ4U2aVI9uQLnWSkWcjs1pkqbBGuEoiLR5l5fUA4hHSXKRGHBsTXxeRl4th7K2e2XMqriDcImrtkEghi4V88Y/TK7MZRmN898jvCJ1ip6lO97HWtQyxHooxFaw6Os4SiCOjhsNoPpKz+CIv4WI6ngeY9pMpaRyqwGeeAsPpyG30fLlWx80TWsVedoKjkGMJZ0C+XoA4SWbhnTI7DnR8D+7DWKA+9w/w+sUu1qemR+78eAsGFPKDFNmOoAn4I3+0DJxKxQ2Xv0kKn233H8NNl7TJEgAxcX0du10ZDxL0w32sb463KbctdICce/0lto9Td/uRMV5xgKOhUQKMvh7j+UH5cjsxjVepkBJtPHjRV/lKAfVZcIljBteQ4xnW9A4fcEQ4do88ho7RDpwhD/8O06aUGes9cBEQV2NCUggIew08Gg7tLACQER5edAlhlRU3TUEfcX4t1453d3HkHKYGKdWKyUl0PzCzoYDQJC4SBr/kU2Z+JufoUAy0U4Rk2h+x6dKJhExRMF80pFrJiYiokBISfRoQyz8pD8uKCz+MC508iZOYEMcovRhvSHmSmHeSRIQTAriJSkaMZhyZybyvIkifxb1a0qXerRhczJcwBEa+ddpVRHOp/LC2eGKN8AM+OOUnjFEbWJnrXMBBg8Qrrpt1UEpessaOBtoQd3jOsKV8iFHZULpINF9sTOyBMYgyiMFdm6pHQPxef3wDRfNAHI05X7XQaSG+NE4rqu8jshPES2UhQT552TC2kHRVNw3O8mXvDcZCxGC0pE4pHzQknliCqUBOsZ2cnKGRY6oSC2nbcJBiJzHaYFPnbk2fPUu6a6RIQQoMIy3M8XQZiRVeDh9MZJPGPt6j405Jvod4JufDUjZekgouIvVmo5EN5d8yKaiO3Buz1ST62oIB5yELW9ucJu+74wc9d/cOX7+ZuUcfwwgXIx+hC11l9ZB66n+EozrhIk9samuY0WjUJ42k9r0xskG7eHAXnbFpz93GuabbewSDpmL0mOohU1Zun9AnLw2iKV2xtLMw4JkXaQt9LyN21mQ3Neas9/FOKk2SwPn200tnMzR5Q7+wWcIXy6WvWpzxkFi89rONnbTwi/IKi/Qr5OCHmCxLjL8u9aY5kK0sIVUJ6o9KUe4JDClzgzYvgrFpU45yzirCnA2QNUZDoqDl33Ja1fiUoTf7VKatuEURUBottsbpcHiztMvYVIoUoG2s4TSAqACcCke1vh7K2Tb4lJNFZ/ReC3xp4NTZ28S0JRR5iOMhBtgBJ30pMbaU8AXUd6SkZ/LuoW7t55FPlK+cGQvZclQorwGwtZRq2568BgRFqOe1UXYRPzl5Gno1RXxCCAaAOjfE1GC/ty09dp4tymnfPYzQsOwjZZFRuLRAlXgOf5c40XpvfGTUDN6n6CgePsCYC4d9b+E4sf3bOtpiZ4NfwpAjyHzPnLSCnqIo5VaU50ThTQoexhtYiQ0INU3ap4ElaZBKRIS50cEY83WObchxgHW8GcqC3Z5bOzJKG4/PYKCgF3xXLaneHO2AHGTq3Q6g0HFRXgBIPcMTZXUf9LlJaH8PjgWvX9CYo8sGmQGC7yMK3kClPkBFbnHVQkUJzahECqCkjDEbZ650/RHnhmKaesePwgXEwFvwthREZEioglnqGlY80B74PiJPRhrLzA950h3kgI4KVLxOFjGW6gzgCwpVrtipKV1ARXrxlaJkmoHEtgEr72jXsOekyTXGGEkajjNeiKFMCUbPZdpFAoVL+bLAhOFZejLFysgLuRQv6XGUqM6DPQw/jL8QmmWkdbIoQ7V9YpXzj9YG6oBNLXZqPXdj0ujraHGD8jQHBLIQoTjkGQQ6xlQk1zypzHwfsbCAagnFeJPVzCXRrBS5EsuZgw+wUaLxFUXlgtbDpNysLmgIaDx5EABV7+T4HOtmeE8Km5w4YuPmApGgsZhD3CGOspB/oMui8LSV+zirlCPYA5xTylHsBJ10MUJSrkJvK2SQv4mtoozMSUhtc/JUCIOPtZfhkB2qHqpSBUDNaej+6BxGfCwjs9fvnsDRO3cbG10OcLzcaEznJHPrQfZZorQL2YRyJNcPrdNFveMGpSNMm45x0MNtynGLdYwOo8iQYeqWH37VSE1sUg11lbP+NnHY2nzlZnK8HhsONqVjnMTDacsdfL2Dh2tTNpZelsgKT8ExQjagTTmeYjPQBC/ps5O7hc1WFBUPOuDUNJdBZHQHJqo8UDYqnwonAG5TpyG3BDSHYKXChUTFTr2ExlVIxdb8WjtG4dwXigYhvrSSVQBzOEYWVh0mBFmVfJy1exgVT2POc/mkR2FtBJgqDb079vY5yiKARJKI9pjAOGQXRobA5I9jooPkOik/68K59s1d6JlDhmen53CAfPcLp81gwwX7ZWxUYnwy5KSMmXjyJdGhAqqKnvJehvep3qCksOlz8AVAYuyQtK5xcnoVq2LoVIihhZHlVPAuDP0uRpCc7qdKBlZT5C2fje4pzjV9cF9HMvu3sKaEdwYnGPFwelyOH6PR4qsPPoPlK5FBZDbeA5lTC0Da1CS161Rq3BwLGYA6cZr8RRfxlQkY8DGmUnm26KuvnqLdzTGluetuHXhum5huaUT5rWXywY01D+6fQd+xsYaf1eL7q2LwORuE9XdpI14gIohICBYd7u0MeJOVb8K+LJ+IL0bgy8h13ONjvBqBEfkOdtPy5fbNXNAx4GSb5juW1PfegNPjeB8RzPAlfeoQD6dnBzxmrUqfleorNlYWD9iYVwoeYUSdxSoiemw65qkIX+YYAWzw8XR9N8doBDLMR6xdSDA0VMNOzbaG4CXHTTCi8YgPI0hpiQAQGBOBIcndi2rQiuVanObjCFGmTXPZLjmuIo/O9FlOlsv+8Iz6paPSAwI4EuGuSy5M0z1BtpjG40kTehVy8hEelz4RK00Fpzo4/SwHAKP3SvnxbFOOSqdyYg3xKG1OD6aqJZKXOlS86W8hhxw/1bgCPsJkeh1FpcEAAoaEJwBAMzwYnTJ519EbPwmG/QZywgzXJGWDDtbSuOZDOWoDXO7IIXGgJQ06PH4pBF9teHCGO6fJduQVDOLj0Vn8cLCqOiyhGCPKlAjKVykqKksZCk8esCQvL06tjqpsUxz1ENQnJcCNNuRXR2UoLmU4wKtFcrIRTn3BO3vcBDPEutnBrTmMu06e0XERg9CQH+DBelaFJsvI6WfIka8CADs2qnBX7LmMZniMGzsvA/nKCGWNepGzTcmLx8+C0QAHJWBEy8szlOp1lVGgV5GUEJNsJW8JIuIxjmdGEBGcCJ7ilR1+bJrfIt3mqzOczQCMghEWf6Ftx4gQjzKo1BlPOPyHLKh3nDblNcZmKuKkvnDNXfRG5KcjfS2v5pUM9uPlkz4CUi5JrhWAQbEsCi9LDD4vC68QSCxAhTexS1FcnM5wN8doXtYIX8G91FAj+mGUKBVDkwJDBSMcT+OUpBPljYPEQ2XSkQzXutCcENeDJQ804gxXFCZfOX7q5NOVzRkOBziHIabM7BtoDKs5Z7zXxBJiahq1igaIDpHTo+hR4nuIvDjFQodosg04mC1ceYfRtlzSFAK+elwmu7Z4c0bR3GKhVySMjTcopH4xhdOreHUCo2Tub9rD1CBf72DXQqVH+JwcVRgzHKTM0RkP8ubohse48RSPW7e3ZYTKDUtzvN7CxRBoqOiq5qzHyeohVbuo601XOd2AG/A3IZO0FId/5k3Q8ocP3C3IqXZacBwO8DrODcVJRLs4ZIGn9gwxfSzOjCWHvuXqR50ZDDdGNjPMiEyxgYZnuHINjpt+HsFBA7pnjp2VaplER4wd4X2FH+QXzOKBivx4FaB4aAj1Ubmmqw1gjUlGCjOd6KxhwyAa5RbKz/NXuVOYnTftgLHnlrQZpLEt+1J428hRIqZNpYPGd3qp0X4AYdXrOTLezUWVGAWspZfi4wfa3vh5jbCwhp9wLys3yqaUxLYuW2Ms82EZy7GX+ZQzZFIQX/sUNLlkme0rFhzp6UKviCRitypy5tPXL/y0KfAx19IKjLBeRjAuc0wvJ584vUt4BqPM0SPXrHjyBr+QzWlBuZKGLnGmWHjg1DMNGfmhQxyMIEX8p6OkEROZqorqb1DSpGEKYtYncyy/LtMxmg3hRIUUTtgzd6mzFrKhCazzCDEak228HX7AY9FoS/pYEJQpz3iko+VkOTh9e4JNNffxcjl79wf8agNOjOE36dhbN2fAHcyxYwy6ShDhKf9DkfLP6lSe86CCyHD5plYHWR9Pej7VcJCmxmq7lXjEqUhRbgyv6SC3tic4qGIH06vQq9kJDifHaxSQRx/ffxSjPeeRYhrkzIbhxNuSQLaDjT04WOD+uUzVPvKYfo2F4Mwk5WfvIrlEjkRaTUogGx6RX8uaIkF5heGGvEzaoGMUqYANrj+enJyKndvb2UX7BB22Z5EbmDLF9qyRc+EeP/yCyjne5eV0t3SYAc4ZNW6aozDTIgVd9LjiW50NExgvnBRfnH9pOJcZZVAbwY5kgcHKZ/elI8YiKxBmelVx+mWE2xpIVghly80yYjgQ5uhRZBU0Ek+UBG+4KyycAHqgdKRNlXoZZe1KI1a0tnJqoqE9RcgFOs+pUI70Rti5yhd0VYRIMAcpjUkX4c+wI5K9Uv3GoTpBrjmIoEXY5vxEDYUFVUj+WlqVMysToaQeqyDehnm8SQOPwQ1XHNcYzui+rTsWxp0YPG1DBmPDjhnfleI7pHyxnSeo7O9jSgun0ciMBrLwhBi2L6+hYoDuYXTDUaHCoh6wQ3KGw5W5HhxLIG7gRtbundLAR8K9oSndKXvCEXeoBwvECCyulFsfBAdgaaSkzDlY4kI8k6hmw2285oGZueOjobt/B9PyMMaPvAVrZ/s0yvz+47byg2lT3fCBqVg5aYe6N8dIm6+xqB1ABIjX65qkpz9w0jk2FczaBPGmGfHsM5reWT1nIEtR9fRKYK2crKowhY42CZFhZhWdV8xCQD+58Um/JsNXjdhrKy72GbhWeYrXL7j/gF+04bQpHaL4QyucdmeKjAi1sqFSSC1p2/KWiAidNCZ6FqTgVepFK8em7iMoKUuony4jxjeSY2SBQ4ODLGayGMzpGRojaxDaa2DlcpGfkuNrCxSO1tWq1RSL+/LCwrd3+lbB61BXFaJjQwiNiY6RH2Hl2ZE8aYM7MvlEeVLR+IoAR0U9OAEe46apNPgwTOjRh0t6pky2eiAkn/lbxDEqvqxMhGpTM2301XDGdLJhtSqlJHOMcWSKjzoo8oPR4K5RVg8P7j465Lt8I7wWgM0m29A7roFhbYtfKzq8jx49vu4xwtrXwS0cKIDpWflGHQ0aZMbp1bhvR1lQdCK+mBkfn0RVHnP5DMjSRN4mdNIiAH6MD3n2mYQfQxDdKziYCZGleETpAQTMyHJqWTkOJxy/2M4NOvz3AF+deIBRIF9of8uTOEsXxroP3WIdTM4G7t4dfAEDa2D8YPBtfFaL76kJzzZEJokuF+YdhddcHimHT83oSprR+pM5VKvEWT0szSttj3KQxiud3lO0aR6uwcPQ5fNWkKO1Tc5M8GssdI7mPGWzI8wl7QHbK1/34sVZjVUucZ4m2AYUrcuYMmH2JorP2QbGWfvtNGK0qZsG3iPSFxM0xlfCjgYjJ3mgcXEnGpsaD1hmhfLLCTKizFRuTogr0b/oTKwYa5tm0TZJE/jZf2BPkSMZNh46QESh94l3ziA7fkuNI26yQrjQWCrGImLW88gYuUq8s0BaqJDuwaqwcYLYQI0o4as63lV1KuiFNWpQMx7LOAmgKWzctu59ivWeI3zYdzzG9Crem+M7dId4puE/wG5T9t849UxcpbEKUCk2/nriGiHlLRVXYso/XdJJm2vsJNOUj3DkRJYsAn9luvGTycdws0BWBDpGdYi+bMio8Pos7MDYyWYPpD24f4rXLbALGC+1335k1927y/Ngz7Cphq978OsNbNssgscX0BrFgrMwwgFMmsr1PrsCnEVs5K74Lwa3MViUQXUHuoW2yRfv6QD18096WD437PBDBPz0Gj/JpvXP/PijEzGU/h7EmsTLY4NXa85XIGtAEYCIqxFfgNRAUSbOKZieAUeXEaORbGogCd2NP1qDWgWxKRxfu1AHib4OjLgNILmGX20OFFYXUa/C2ebzrCOnJm60N8+G5N9/5Bmm+MevX3A9jcrLniRlRqmtwkc5D7Hk5S8Ns4UylvFVHWNc3jJsnJIJJ3ohJsOzugwPdY1OQQzSMVbC2LHAv929bXQ2SIvHDJoxqtIO+BMeCLlMJF3SY8mbIZQ4/JTw8AHlEeOFoMFWObcYhbA2mfIteAwU95hWSMMoe4BXBPq9kewCfvBgJhu9OJuxf2soI/ERgfEneTxTuWPcjJTxQ9C0DIVj9Pgs08buVZlsDHUWEehxICCzENA4BLl+fQpd5LISd4/TKVJ21Df+o46ucplcO+dl9VmmzKAlJEkF44lFssgOd2QTn6BZUM5OjtE3QiK5qisYhK4MkGkvMVauVbLJM6yVZfDeOMZYKLpWKFN6kCmnoRfaoxAgaUA5BcnFxWijMOsmXKJz9areRh/KMJflGEMJEIjKI9F81j/OVNBo8B1Eew+SB1aIDCpHZxU4izJBNobexIRniwo54ohcegBE3giWs458jONCm0nw1MVHqEMwwIaYggbT+BfTjMOlvHCOfOaRjLjJjAbXyjia5G5LHoNG/pkW2n/WwAqE4CJo9uKQAleMS2M29Ov5WtX5dOfCKlodvbRlIOHBG9yAyHVx7eQqZtaBjPDxaDljmqV6iRMQtjJ1zUc0WjMM5HIrRKANkADPpA6Xr17k6OgYr5WDQC3ViamNLKwHQ4HyT0dCxJgznPWijhtsG7pXDVMY1FU5KdSHFaAfCmUDoofMyU7prEpX6jgzKkq5b4O/LS7iboPPlhaMF+KvsIrIiqZyzSM4fK7R6tQ+zBEcJN8Bg1Vner3aGUkil4t6aMYhp5O5OEPSlGYw1+Vu5RTRmHz8GtII3yjsc4MMpoCG+AapyMZg4gJUDKw6hhiEeXNZSzBLHqw+FMxXVGOedSk2Im+XCBY4m8aLG+h4sRNsjk0ian7MptYkS3ROClxuKcsKoJWGhLhKvSmlEt016i0myYW2m0skkKuyG9FUJFB6CZgys78K5EMRYY2ulaNsXWJ2Lrj5AVZILALfRTQ5Io7xfMRtU5cZnrZOsAne0sgj2YyvprQYzsIB3iJwNx6l+BkZMI/kkw4Gp5u1Q7bAe4oqNsxq4JAAASrpa0TksoM1Rr3EhggzU+AS0AU9CH8qPVE84cU6uhmechXXgrVctrAPoZS/StPaooGpngijFrX0nqNvmWJMnaZSr9WI0UqD+ypGS4WsPRWGV8FBFprzsXKrFcx8V3pBo2IlSHkxBWwsG4w3FZN/NPMcMLYpqdBVjU7JLn0u+Gkn1wK+itrSYn6s3FqSfGksXxWjj4m7nRZlwL7cxW5WHamQEte5eULQ1K/P8gVwM0uWvfVdCqXQTaIuypIva5WeItb2Uuh+Ibc0R8SIJBV0SDvOR4OlvEI3kU0NWAFfYNbEeGOplXGAr9nTyFJuY3npnLlSHog7h7egoCG2Ec3bDr7Inx9dVfkoclioDV8Gu4k7ZVnmi08y+SPtG22c7VrYUrg2slBID++tQknkCc1cSQqQzGg+lyGKM32wKNtDYs9t7jcjxjZSaoDJKUphcBoyXmUStPSym+BVFreJtsih1GqboFdLM1nbaScpOTEhake0XlKA1cguz2V0jLYxipypcRFkBu8xi+4jD7O1gY99FPMm6DxWdVx1aXCntbpLgy5GsIQ7KlSg0C5glOzeLlcd1Op81GFcNb6Qra+8GFGsjHF8h7CW1Je3a7E9c12zxewV5Ytju4W7OUYT2iYod+OzFnpVJ6T5tNe6Ko5apizB5GXPvF8j2cVsxeE28vC2VLKxV6k985bq7GUQ02mZM2ZzvXAgWJg9Pb2Dhj4krkcjyZ1WfSzDAAqgQN0A7E6gkBhyNAaMZs5xEZXEI8CwwRJhCl9KIwAvn0+CRIDL8sXwmoJfwKTphLM4hUP5PS67h/yKIn4shyEnmdUKww0KziMrQ9Y+FTSjfFGwNmOcENdXHH/F4aJsYKSuTD6ebVPqxTLhXpclFCsCCEELtJJJCxqBWH3AWK6HWJ7SzTFKIa2ky5Ffdwir/NyobyO8b6KGNsLI5pFQC6jr+odfBlqoRguQemYtM2mteeWaYC5uTTLl7J7veLaVxidWE5NrKaOVuxTZ7cFolJ2Qpw38RsLSDT5HRWB9BsJJsXzZ4nxpGnFZut2NXkkOwOnR58iX4uL8zIUPzJKK0oGD7PolkBJye/Bls8drc28rpBzDVqYUh4+XTivCZhsJJvVZl4/pTXQsTYCykAax1t30ai0kyNzJMRpRU8Z1iT+s+U2ZcuV7I8iuif+4TCwL18VWvYyOrOW0QGOOi9NpbS49H7c9j4GfBl4MhvTjEW8bfnIwVhLDlSNt7Y4eKJeew1sbR4IRElt/kWqM4o0m71LPmTSjEaO0fG3SDIZ35kvzxultwiyDDBYNFxnj30N3aWXYqxNti7eK7SGlnAizdRXpSBNP2bxNGRrSNokrJtPJMcYZr0uYhsqMylKefFdd4dl6luYQALyGXQHUJf5KdBKR05Rq3IyHDMgiN0+y58Xt0df7slLwLs6RDPNBxNqde8PXKqfsRlT5mKPKbgwzpAra4Zeuupy59VaYMI1XT67yJQeQmvsWrmL0rj8VhiSW+cq+XpTmi1mhdfTp0naQFtpPnM/zI9QQz6Qgk6w1Ur6MO0EV4MppZMfqTZWGMUWoSNP4pl/hC+jF6HPDCGiyverzytuXmkhebRr0y8Qa6qMtR1IpeeBY5tQHfuaMMtQ1W9afZjbaRW1F+DL4rTnE+JOmFSFYFlQ7rLgyxJZl75D+hneMHcq6Omhuy7fV+OpYQ87R4hyGkd+X40vKU/nD4Woh/XoH0IjECsXGrivHfuqLLYZtcMklI8cO7SJulMbrEhLeDDRDxXgJ2RZ3I1aUK4yMvVxj+JDWRlBxRh9OeWZ0Lq6SNeKrkrYERxP+prQmQNElAABAAElEQVQcnaY4imsjddBE5IrSxCGJzvOnRSO5Ij6VrLVnc6cbYqbwyhtCWI9mJcdoyqf1JL/1FC4qRWxodwVRW9OeZ5Z1gY+plhqwkOUh2d2vEh7Ljp7uEQ49/urXnXvbE0P3+GN0jtf7In8iBvzwHTwZ43qmGS/BANRcFp9NcuEgNAE2B9CcMzaEBZZleZal5+pI9WZZztXS5R1GNHrSWNr2rZhhEkNqAYSRYGmrsXF9cjUJ2wuItxTMJGH361CgpfXZhUkr2AbqOafjworgtlk4T4iFSGlawYQnY6xLYQrYtB6ZYujtrtApEwWOTYdWcoy1Qt00d034WFdJfSSPTblbp7Gss4X/CnWwXBjbbbCOTmcj9//+/on7w6fO3Q9+ZOh+6ef33P4bZcC4TJImp5aV09YhBrLllrO8M12Bb8lYINgQIO5cK2/IYklhOjqyQNbOrCNqsHIP5TABl1Lf2A+hbNVisLSWnNYcRS+yWrEOqtQ2GJMaq7ao451abfMsgduExhgOYS/l0RKX8GHJVp/2zHsuLk6/6PBqjtFzlSrmxpk1AqJUfOCfjdQQlgrAXU6+4LpMUSPl+Xfms7Ri68YC5yzi/ChgVTGgnwRc+CAq5tfPJwN3dIIPzB5N3b3DgTs94nmW+FTQcOpu39px3/F2hzvOaYRS6HojabS4ZH2MZWCXn9OQA/fNF+fuqT85dN9+7Qn3mc/fcz/8IzP3Pe/Usx9xMBPgDN7KYHTSZ4u/5LuIN+ZF5S0xPlqk00JE5gzsWKq4JDEFi0/jtKHWESqmeCy/aEMLQ1rWJ80d6xtjtLzKUdaZGdHM3eRDg5CWycDjUmUNhwcIxckiMizZRG1iJJhNNgI+sQmGCBpJWaKVLpJmBm8mSjMigWmSDpQywxMEYLiX3VNelsG3TBemPIMts9SCCa7a1A0nUB5LCHqRZaE6ijOnyxbXuSo3JImOjlFLXBgJiiUrmo2wF+Qr1g4OKCJVNCNE9uDByEnpMOti4V2NJdOBA9+88z4JJ6jjq98YDM57+N4YjiOZTIfutdfH7tlvOPfVb5y5r37z3N19gA+j4tt487N9ZMN3gXqnbn/nxP3sT/TdT//kAVwq6aNBcrq14dDnQiDm6FA6OOb5bOA+/4Uz99qdW+58dN+9cnfsvvDMkfvut99y+DwaS6X2BTTS66qUpswH+PP1o/G+g2L8WiXavZy59smy1wJUEmICcTgGRHzlPNc62DhfqIVyZEfdN6dftB+PDi+C6vqyPvsap1JpRFBgRCUclGKC0EIggg5zr1FcBq4SRYoJVbNaESZtVKUICC1FlsHlswhkCh6hswFXIUOiZ8cSmZhP8no+K3QjRHVBI1CXvkK88prIrisez5fYO5YR6NbE2MwB8XsCIkaRazVLTXQVMBujBKwucyDGQy7tMuI6OsbLYCmi0cdXW3l6PkZwdDo9OK95n1934EXzoc6vN9/RqOTXKo/fJ+VFHWOQOHhgs5uN5SvWd45H7ovPLtwzz0zc578xdPfwfbfTCUaIM3wpFqM1DBLdYngPIXynDB+XPXjk3L3jydtBQ3sceba8WA6pdM/cOYr4ha8s3Ck+CEqffTbdcn/5han76R/DsVb78MozfKhPHGR1p+pVK09tkdGi2KhYxJV5zBm3FshErD5vm1GbGBzfh2p89STLT60EpBNWn9otRft72hU0H5kbURtWr1ry6FXfkkp8peJsysfaDCKIkEZBoVEYO2DziSkMAQu4wFolQBihCQQV2kCvEllDxyoUsQszEMokdozKlbsjiip4VO5q4sXHrCqeVfNdfImqFLgTdyXHaErNhmXGx+KqZFaIoUZBAQZYe3POr+/hmRe/X4fv37oZR3j8JiD8W29xxhTOiqIBoe8t3wXE9wGRZ4hDFVkpgMQdX0LH1OXp+RgjQ+e+/PyZ+9KzU/e1b265l+4M3TGc4Xw68Q6X5y7qSHQuLOAL4cj7Pd995H75l2+5978DdPrnEAC8lowU6b1aNAVYNhaFkDPku3t/5p57GdO5PY5kZ7In9Vvf3nJ//JcT97d/FN/mAzDcJv62nDl4ZPUXMV3NRf4bp60AkJOGxumvGbZcCaxkAukteA6fweVw5OKsgZacQg5xkjlHJ+ecmtqBtRUqJPGFZ9JCRI6GsOH5o1Ms8S2JmR+PSGCZl7h9wXnXekO8lTsmbGEbYMqztqFAycME/ExAnNHwjzrgJY0SnaZaZ84yHitv04COMKaLOhq3Qii+ul/Ckhvh28pUB3xF8bFMr4QF1l07cVZ0kyrn1S5hvSXCJNcmH23WRjnxv54t6tNKjtEYFDz5khvIancgpqKfQHFPp3334NC5O/ede/3uxL3w/Mjdf3Dq7h+d4+OufTg5eMqzbbhFjB/hOfgttq2toRtu33W72wP36O0t9/iju24H4RHSXnp14b78tXP33Df7WDvccuezLYwM4aSw9jfDNOlwvit6wPehaBukjP0j15sO3JNvfcX94t973H3wbaeocDrELVCFw2UDg9WS3vzSEnPEC0aQa4avAbzwwj13fM4v0w7QERgDx5m7dzZ0/+a3j90j+7fcD3yQ7xJtAzpws5TCdQQoqUk7QVWKUcLBVDO4FUiN6GpUUnhBb5Y5QyOFz4CUohrhQYz0KmUsYSgecrhKjpa48EdR1+IU5a5Jj9LElflncmAiYZRVJfmp8OTLJIwANk6v5YkEOl7EpbilxjrmvgFfJgHWs/zxp+HaZJ02kNlIkug0MNXxvJZjJFaTlTWWPNd0BnQkgJYMcGIY8c3gyOZ9fLkcQ7I+1to4IjoBom/f6blvPNdzf/Vszz334gJTm+fuFK8zzDCCnM6nGCUO8IrAHhoo3AX+OBrktKp+vgROit3L+eNy5yH7+pVvSmGBUSa+8g12Zvg6uhpWDjnxHTd+c2y+B34wtykX59eIH/hAd2uwcD/+o0P3Pe8Z4yOoXNuAM2M75Oadpu6sIot+8YkhEQO/0N5zL76y6yb4SO0cH6clPb6wzeC9u3vu1/7tobv/0/vu4x91bnd8AvZBEyPLBXikm8RX53wZIvStglpvdMLknRuAHIfFfcqRwmFnYQKHjFFyH6PVxbab8UvpYX2OPW1efvQRaGqsTwqxcSCCAF5N0ZsI0+ONcyDstdfyBnhEGA5LS3KWHkM+xloGs+wlSH0giObJJCIqbVQ2ailBSxsxYpqSOjDGygHYpBamBZCnoldFeyvR8A8mC+Oa0PYVCuoLL6ENMuTI0iSBaZaOu3FMHBYWOADF/Gsajz+IoAhDYP9jDpEQ2kaZGMHzsXRJxlJMHbjgBrjiBU7Up/AH2TVRMOTs1LYCtAzJnbTi8iXJb9DHQv46C0cRJdI0EESn7eC6FLoYFVbr2OqsXPlWqDVHjO0FQKHGgsUHWTndiRFTfw6ji393jzGl+Tyc4Zcm+Ju7F17puZPzkTow7JBRBeT0puHinQXR4tsGkFBJ3kpMaREwRaqwvMt2Gc8N87Ih8eV6XGxMdBJyAZbguHjb3Zm77/vgbYfBqHfDsbA9oEA3//Br95gBdiNk5zmOL73i3HTK5kkHTWetvJxhovvrr+25//M3H7jPf3Hh/u6P3XLveZdz+6MJRq/oSAy9A29POmKM42uWeITOAEwag/ibYUfu6XTsvvIl5/7qmbl77/vw+siHeviyPJIpG7CofgTAQpeyQ0Bk7RnhswSJNLo0YxSBoM8i9O2hDFETC9wevUeR5Gp61IzW0KVTk+MNKJISZJAmEFb0DOTSKKDSDhZx5kslRryBV3blSpfnJ+FS0LP8MRWtQkDGkUDGR4nySNTplKjgga0IUAYjyYor5Cce6lDI6oHD82YCUg78BDvQgLbgpQFoSZLhKAztkgxvgGSRISsTQgwdDvBtZZUilB6uZ6GChquBqWEyr4frjRhrSFWig7NhChlhE0cvE4cbnpz33Ge+OHC/9/QD96VvjN3pybbDAAqjyXP0aDGS49qbz8Gsc+Tps6tLzcczv9bN3jaNMzHrDzPIE6hoDVqDIQjz5C7Cai79NZgBMm+PZ9iNyh44R3fraAVxM/9Q1kvPsNHVc444nwYHiS6AONBXDw/c7/+pc5//snN/84dP3C/+5Nw9toXRHddfw+jCOG13X8DDyQibo2Rf1F7/xJ2d7bg/+nPnfutTR+4VOOUPvXjHve99j7hH/DuVhF2r6Al7wXhRHMTNdM9PAlr7aAZJDHYtlCZorbWvO0LaeavEQNZiPWJcfAnmUChNEfgYCOEczzznky8OrXrlaBuuuMRGW9JicopAmpXlq8D4hBIOA45xIU7anSccRCLKkwBa/pp7lpbAotXEqOJC1uC6iGjaEjFFMS8XQeia4Ax1eU34aWLDeJW3FRL9WGYvNuIYSwpaxykYE2bYOPC3WJy6L3xp233yDw/d574+cPdO8OoDZvEW2PDSh2MYYHemgAYfpiXrD/T9PtIUuhxokSakoBDKgAklsCMRAVkRTWPENCBjI6STIl5xkXIXdjGNO3STcxk6IZHEA4qVAloxlAPmTcMUpS8jcA+xq2iGaeYFnR8OGHj58Nx98veH7tm/3nI/99POff9H5m4bSfWGo54t2xlLBzkHflByx3CKv/f/LdynPu3cyw8wiu/fxxrsLt7n5DQzp679SJrljgVdT2Z5CnHhkpsPa0zzb2x0NW+HzM2oK6miYz52WWOKMxd81QtL9A0EiFegLq4YS/VE6ONnGQvaRuKSVsPEJT7QJ5kMpU1VwSsx7XQaWoB2KLiFoPKufWamSYlEthUCG4ooaGwI4SbQLKvApTQUAX/1SyVLM1wrAF/tJZ5o05cqdinHZU2lyrBExogyurt3Z+H+n6dH7tN/jPf3DvelAoazc8wiUtE5isE6GhupV3jyLBWluq5FQLi8tVorNClfeIyNaYj0AUELidr3+OJ0Yp2B/8OjoXv+xXP3rscx/Yh1OL66sdrlC8H3Hgd9t403QtjA5hj22rQFac5lWhVDNbT8OU4Y5ysrRxDI517qu5f/zYn7lfsj95//aE82FJEPa6RteKLCD1AGriieYer0xRcG7j88PXNP//mZu3uyi/hzN55uu+0tnNg6gGPEeySicNyFK2e4sgzN8m7Dxw1MIQF1HmzCXj+KpJvQGhLo0i5ak0FlXVvtX1d94h5Na4E8fIBrjxi1QReCkdcM4eCmg3NxcH03gZnddltYR5vPTtxnvrrjfu3XsbkGa4jcTEMDSyVbYKOH+E+GWbn2gCAvOjYxzgAmvIQlxX5W1QjNJ4oujIgL9fQ5ockproE7BK//7neP3Hdine/dj8NBzPdRMoANjzApCjFiw4qM7oydmvsMG15Gs20gxXQmure3b93HiO0RIELHgLtc0THgSC6MbblTh0+4DSnsxYl7Fa83/tonB+4EQviZjz9w4+Gumw5n2FE7cqdwXgM4siEn5pCHTn00O8ZmmjE2Lo3cOUbYU5nCHrpvYk33L/7Kuc9+/sTdvbODesKarjg/TGcPz9xwa+IGI/DqWeD6p8ldTDjjwb2u72qBexiBGozG+N+kPuM0QSM/iAXTqU7FsGlY81rmcmqbEZ7ml9oPmePyhEgEcka2jkaZL8UfYDlDwAVb0WSE/butxC/bWJBZeSjzJbw0yDHmNQ0HfYoTErHxMYnKRIg2xlg0nGTM4iL+rHKU0cksioetgyd+ypM6Tn3haJQzTZdyST1dCqUMEepEWS/qZJTJ3D5KZKuVyipjqEXVtce/CiTazIWUNcPL2o4xxbnA7kVuMHFzjKhkmhMvyA+O3PFixz39Z9vu/8b61XOvwZD7jCZsVrVWQ4px+XOjIfWVuhxLAwQcymL4wD33rbH77U9N3K/+4mN4leIEG2jg2Kd7Yik4JdmOf2u82NSCEeNbnzzAzs8+dsqChjhAw1NW/iAdOg6w+uDwzP3m7xy7t956zP3Qh8m7TnVuwwHyenA6d996aYZNTLi/uOPu3D2TPCd4vWWCV2DOJ1vu/uEcp/rAWU526KfhqLUjQINDKo/CX4/4MqhcmRqyJA9xc9uUBLRzlmrAprBfdzzB+JlxaGCYKvhmlVODWB7CpMut5fUdo/HrjeQMU2+Y+9MBH7b/c5vH2dnI/e7TffeJ3524l+/syQv61RGh1mWBrmp1pWfoowXOAzc5Rms4uTYW42jUJE574v3Gc0xnPvWZE3cCr/5Tf3vHffDdGC2Ko8JOUvZmwlphPbYeHZiUAeNQdCDe9kTf7WBjz2QyxvQpOeL5q3RyvnABlRacC8kcrdF53b174D79FM5Vfd/MPbYLz4bOyH0cpfOVZ4fuTz6Lk3y+3nOv3acTnGKqdkcOQ2APm4NQrity+bK/4Jc8cKgB38vkCT4sA44oG6Eev+tdeCEEdcgZ92z5wENe9sprYF0CaXnKqfbUDsqgq3fNH/+GLkUVOInpSpv10PUq5/B84kY5sm7ac9uV8vWAD6PmBnZkc11DeprEts33jvGrckwBbp47SqCspR0zPxTg6zlGtubE44hzkGiujR1i+/9t9wd/5txv/LZzr55gqg5Tj4MZ3hdMbafqNXVbLtppufAsUcEC+4wWb0AePL1xF2t8hmqa7smBSAiVQBg7o2Oc4dg58HQfu2j/8M9G7pkv33P//a/uu499H1Yb4Ujw4kkpX90DN7LotnxO0DocPjB3j96aukMcSzelc6XD4ghVptoiLLCa3CGp7Z/OCmFs0PnKN+67r35txz32gYF76W7P/cv/0Hf/6U8xQp8cOJx/gJHuqduSdzaZBxSx2Yecsp64bolZb5nV4zTwAuUg/j7G87vbM/fed29hNMspPzpSltEqRaLUCCGPjVY1Vn8TtagTb5xFw/lqqMI1xXgcqYo1ZZG0oAMtc67Aaxmzjv7pYEmaR9KV0+s5tlHVMkfTFq6eUpGyDi7LW2BrCrUTLHFqlXGErXmow2ZDmii80dO6yXOF0kIR2+riCthXyOJt3wo5V8mynmOEYtqSh6kyjSpHPBwpnsMpPvXUwv3av++5wzO8yI+1lNH5HowvR5JLxO4RisHAjxna2BBoo0AFNqDSxkPTw4ouA8a46nAwD0dbfZyV6uYHcFjb7mzwmnvhZN/9s38xc8//nYn7uR/H+akYsS36ZceRrRBhBLB0TGBnb2fm3vGOMaY9sWIpo85sLo3UIQXCdG14F7S35V6bzN3v/dEITzP3W5++7575yoGbgI85pn6HWPccnG5jvZfGAvQEC50jpa+beujw5jiwYCRTsD4N652PPbrl3v4kViqx5qi2Rh2kMhL9ojyxHKOUlYKVZSLB3xFVpTKJZDmO1NhIloZ88ascgp1kTClz5GK+fJj6xZ2UNOjsMJmmMnvKTx5lWadzMMtwxTy3oRnTaAtvRW8ST4w38FxXPMoaQEwOOCVCYlJUN89vBAmg6tgW6i5W70VesS6v5xihkWkfV5QUJTjHJpE//otd96/hFI+OoLz8kgULLY2f04hJEX2piwZUiMHikhyNDjGGLfIXOJlexEfQ5uklSkeBPGrOLW5JK6RDGc3egh2smMrE6TC//smRe/W1mfu5nxy49zzhXS9HalK+Mj1BKfjVKQIKp/LsuY++/8Q9/XmsV+Iggj42+cxk45LS1jxiPsUQKEY6YL62AmeFKdin/qrn/uivh5gqxYv/GBH2sNPU5DvDKTl9dEhIiwVWsePXRidgVF+AAcbFOWjjkLvervuB9564gzGPvMNIGeUfLnhcHanrHzeJiEBwt40ifPFDpoGBPja2AGx/aQEDfPIY4usCWr5yalccLKPkCRa3jC88cdo5upbRCbxJANAyK0CNwj8qTECAehXlDDk8FYEU2RY7sgmTwrHjpciKxp7wmimbtoe0AwT+Al/KRoEzKnwlyEwpD75YFdg0gjMXLBPyB9pl/jUHefVwuMkpVbKRiZm4i2Ed80Yc7JCnskX0lV8XzRPws9JJhuXX/xJMdWEzoiAtlTWlfhVXWs85bVuLrz5GKbPhfffCy3vut3+r5+4cYXQII6wXJf0wXOwOYGcqKvPkfOD+8I977p/976fuz742dWcYbdFftS0pzxr40Pt33Xc8dizOZzY4Q/ZuDZojuhmmVctfh8hwAK0Wg8nqSJNxHuxisYtp3LG7PZy7D394jNHiw1BX17sMNObmxJZxKkYJP4VTzOcQfDBoaWPPQ79RY82mvFH5f+PwnZqKjXMuHe6NY10L4Xqmj40P5GPBcTnr26+P3L/4jWP3TRz6jQ3/EYMPizKjxHglgufTLOBETrA79Znnd93/8s8X7neeOnbHWM7DV6RwLS8vO2RPvGXu/u7Hdt02d/TKZpdYooqGxo6GUf5EooThn47YdNQG4ctQ1afJKITpPp/gwLjO32P2OAXO/jfXFL/3nafu/d8F7C20o76Yxl/uLgVo/5NDwbjWF4Cl5xvd2+RN86TPCQ5hKYUJzwkwHlkvVgypIxuhME9IKfIpqqgMAlekW0jqxB6Mvj37e+w0GZZnIevxJ/ClRxqypX/I4WlznCuX8bLkLlPUFZiUZsFRXBaJpTDXvJQ8BfJmvFR+oheRHnaXKmvecAV1MLUo7qChnuRiZC1qDdT192o9tzB9S5j11Az1KV5U/49PjdxffKXvjvFSY4/DmYfuwogR66h9rMtx+pHvIM5xAOordwfuX/7mjvv13znB6xKc2mkn3iGO/Pn4R0burU/cxawl1gVlGigWmqkk7/izR1Z17AjxLK98cJpTaJM+a8bnCyiJoxzXw3cf58MTt7d74n7mJ3fcAc8rD/DLAsoQjUl8VWxbkh7D1oWZJfdXB5+LXyV/Lk8a15aW5uNv+TJ5qVFgnWi6wFfBJVGNVSGTMsYoP4MgoLQlKIYohhdchAGQ/AHa4CXggQs4whKGMyZt/oxPy2fPy+4FH8ZPSi8Iq8SjPngxxkVdIUzKb+LLim93imIFwUr9xTiIp9KpYhwTLugKCg4i2XCVbjvLXc2XjaGt/ca3+u7p/zRzpzgcfI6dnBxVPXwXCspzXLmrEy/r00GO8NoDN1C8eraFHbg77hO/+ao7PcXZMqJM/GHNy0NFHDzE/G1POPeDP3jgtnFidx+HeevVrC3EnWJszuHRijNl2PhCCO829kdH7gPvv+0++D1n4MEfkOqzXNUtLV+JDzSwUJRSQv0D8TXirM8qKZa/Cw7LU0FdQlLUXBm+/FTBUeEKDovOSxxYAV3GUn4qoKIQQcKVwttz0z1kFl7WNnypMQX6QmIFrWqoiUdLq+a6iekigUKO7MBwRuoMJuwQn7N9cLyQv2MMFPhRdqZd1mXtYBV63RazEgpSRHzDsA/ngD2S7gG+I/jrn8JU6t0pdkTCafSHboqNG318gFeVmL8b9cUJR5f1yHJABbgpx18cHXLz5wCf8+DrHZ/4I+y+7R+7n//ZA3cLO0/lk03yWaeMyPFuygBfy/jZHxvhEIEz9yefxzlxc3xFQ3BjXha4VdZGDQ4hUjCzGZLKHpFcyhuVQ04r97F6IwwnObhBQb/mMR2fuQ88sev+m7/fczv8hEhRtHJOjkTpkFh+oJE7d1RGGYidf1FUwCGUPe6sU2Nhoov4GTXCTMSZbN/k4eqYoMdGoznWRee9fbcFEXEKf9klmL3cylQ0p/DcgETKWMroH7wTUvxlLHE9hawMSD0RlowjQoTJXcFkQCFNprqmqHFM5aVgBqFx7IXVGgM/c2NYhEv8lLn1eKKbUSBcUC3fhg1XBB4FWXO5TTQRSG2wyhV3cVcu4R96aG0hVihubGo9W6Vyq+B/U0dU6yAvjkILGMIBXO7O2dz9609O3Be/gk/WcXCENZnd0dy97z1T91N/Z8+94y2qv6pPRf48/m6xwnWhqN0yR9AZKx2lLgvK6wU6sphiberP8VL5l589wpFjQEsjBgehfzS0bQW9jOh1TUf5fNvleh/eqceBBgcYOZ+4f/gLmJrcoRPSI/AqJWAjxm7UR2+dY3frlrvz6tT99bcwVbv1OkZyj9I1IAs7F/F6bQVLbYQ4R6Sq/aAR4Cc98N4kTiPiax1z1Nd37M7cz//MmXvnW7ELlQe4jwiz6nmwtaxIgvEjxYr4yuUypz9B4/ryC8597ZvneA0II/HTgRuP+u7RR3Gg+nc7PXM2h6AmLvAQp5uBjePSMBrdqpoc8kkAP8BFs6DrxwybG1KiAT7lIXouwZC3JUahBB/hqQsG+BAoIDNRRaJIKTF668iuUi7IKkFvxJUv1hNDNUAGzHsFd5x4E26WAHVOIRay8XDsvv3ywH3mLzB79uAR7HJHGgcMqIbnXz9x73yXE8fYrDvNFOPUZfoew3YJr+cYWWK+CgDDfvdo7D75Hw+xtrbtRxJUSRhh6uVD7xRRRmiHmjUUGEa8h8O2jzE1+bt/sOfGOB/1H/zCltvZxpdDcG5sesmhCINjyGroPvidzv3DX3J4R/Kue/mVx/EOIqD5+kbjkAhqlmiaOUGhxTqIA/zIM+sOI8b+ZNc9cvCq+69/4S3u4x/uuxErjJuA4BQTlB5HcSMNHn4e0BdJrUOht1+To8dOAxz5/Qe77l/929fds8895s5wjusAO53Z99rbOnL/5Jd3hHd7RaUGlZbHWnEGaFk51NBmMjZEZRsuCYF3oQchUo76x04LkoTHZulLaloWPDM+J9McH3FcmidOS4vXlBbDNh2sEcPVhn15cumQFKK1xsiPdC4I6GWpPDbLMIf3Js7rj4q2Vhxi21EHsQrS5mF60B2e9h3eWnfnOD1rCPvAWSnauAm+r3v4AJYHp7vgI0kr2w3R8guu2sz8RK0sqglYGyN/mORyn/nM3D2Hr9HjYBgcRI1Ci0fEwzVZq6oyv+GYoEhUBFyQzdZ0B9N/J+6TT43dv/rECc4l3REDqADFr7yPyPcF8UHmEaZbP/K+nvun/+gx9953HMFRwXnRai5RI9YD/8zIluHL+flSP0/WGcEZf9eTL7v/4R/cdn/r49yRiilcjEy1N0Ns1+DiFNpsF183ce6V17GhC/ucz+dT+TvBuu7hWc+9fu8wK9drwP1SFkxtaGjKr9sszVoBuPAaoxWMLWGFg5uIh0UCppd15aFzElWIlE7yYJljhk/V4f0xdFwPMRDg5kR8Pg/2Zor3vs8ntn+iDvP1iF9rxCi9NviBM7yb8CefnbhjTMGJYcUv01Rm6M2Jk5RIxKnIq4I3eAomTjXJ2z1OI+z1uHRQTB79H2599BCw2orduRP36T/YxojxzP3Cf9F3W9s8UcZehj9FDqwhYgMPX9Xgx5nH/bH78Puc++/+8dh94t+fuL98dg/Th3H5NUwnWLZTjOBrF+yZaNWSAwWCsrJWED/EbuG97XP3Nz60637qP9t1H3gPRl/o3TENXhhViC+dROunSyXMwsezAqwiY7cpM9nFP4IHz5bmgzwW4HeCc2D5hRCWYYAD13lG7RxxGOOi3UEJIQwdRRQEU1RFShES2v4xDhtEVxzkTy7JiJ8MUomSn1B67dAwI+JDe1FMjb85/jIkA44AHwIkqTly+QTMwwZdk45aQJkPRPhzADlaBqc0Y3tgKfGdGIxzxjdhjPPdhNeWACpI6yjFpHXCJR/uqejj3eo5Ps/H0Txt0mSxLedNF7aB9oj6nuJZ8twVfgm6XPJ6jhGloiiew+eLnsFuVAyiIRCMikpKyqk2LYn+qjAK4URsEUD0W358AsN+YMvgJQjFE+50M4evvPKJn96Co4Ph5reIjzH//hu/c+rmJ2P3c/+VcwdDOh/uWsXUMwsNRyQOEjn4/uAAzx9+38I9/isH7n/6Px64Z1/AIeAyrwoRBAvlWZR6oHDg4HASzmKE10fwkeM+Nh/0MQ15jlH7CMfH4ewhfGNx6t7+xMz9xI/tu7/5Uef2d9iD49onLuLhF0O6OEXglNmSqGLICYuUssno+ApVKRk0JQr6CAiDTnGBgw/wsWhuqMA5PNh0g14oZDdHj1TH6GVVDrhjgnVhb+g75SnhAtcJ42rWWbM5rHTkKBeT0JNesEMijp3PGi0LM6b3JVrJA4ScUkifSzky8MZ7Nh90IsS3cYiBWMgVYuJAYyoSg+4kci3hECTUWQYI2Ig1znoTXkMCImXoRbi82NVKYzMf7Qc6tGoLYZNkfwTfp4ZNnIm1Q22x1RIHl52AwONIp/QDDQQqdi9O3HC4bE06Iuc7iviYkfvM5/bc2QnFAiMLx2iFNHR0Eyx3/BeJVcFE0BQQUiqJFCINiZeeIb7mdxYjFAXOaYYR5L9/CufF7i6wyWaCUZs3jkk5ZMTA7zaiwb/r8Zn7p//kwP2P/+uxe+GlHYhA1Y9ZKA5ZW0E9qGMGNSy09R12CoNeD46D993B1D26N3MffH/PffQH+u597x26x3HC3ZjHx8FA85NZZPSqpKvV6qn7W2ggLCPKipkZ+UtEhTToFtd0AVdRD2bsclUQIHMLZxA37C7kcrDCQuDDCyMH6OOyECF/NWMWPgZL8hYdvgJoIwYqoVNgZ2h5xUk5iAOgy6HL2G+eLlYC/DpK2l2z9mz3Og42olt1yDvEr+UYaaJPJkP3zFdxvuccG0R6+DwR/3ljYoW0l/zp8+w4K2ughNUwmqD1Qnyi4WHvWjZh0Dm+IS4t0xwNl+/tUA4iEuz+fNC/7z7xKewGxfTzf/n3ejh8HFODlTLRHKFquLsXc/aP3hq4nRFGnkDCfyZDlQ9p0TTgD/Kb4tDvIUYg++ORe/zxqXvHu87d979z170fTvHtT0xxug5lqDnsXFO8YQQeuRreXb7CE0izfAzbF0CsfitFaxGh5TJAIoYc0amQkUHScWIDtHejUprIufSSPDVGuk3+pQQyANYuIHSkogS4ifykHhmz3tU1f+CniSyQpsauCbyUFhhqiwEZMsKPq0lbmLYt6j3LENpZifjNw8oSoEyjzLH8o+hKUHWZ0Zpb7IKEC98gqYJfbVEFyRVHrOUYuWHw1VdG7oXXocV4Z6+Pr2nMsZ4WC0QEAC03nydGD/mKLxOoihPO2kLZMDKF00002pKxVFlMva4XJxHILI7lxk3LOcLnoO6P7rl/9+l9fCbqyP3jXzpwTzyiDTuUg+LE6HuB90Cpmnfwoiw/S8XOQY8HmFLz5OLd/7EycD2GVxh+9GN997GP9N13v3vgdnfxoWjuEcN+6T46Lub8qLLYHyQXp3uF0bgVaFLNb2vAmvwdo4VZlpsBLadhoK7023zVxDJc27vV6bVlcGXGguO9sCKKgizlL/CxFPLNC1CponaiXSowdugLu7UU/MoB1nKMU2zs+Ma38HHcExabZ4fCjGNabsIwHNltOMuDg1P35P7Ybe/gbxs7Nbcw44yX191k4E4nOIQbX5R4/f4pTkfA1+Tx6sC5vCDvZ6Uhyx7WlnpYn+OUXx+HXPNDjtz1Km8vsKcImIE4CtYgL9wrtavR+QTJ1PwjBrkA4aN8L5HOWnjEjeuFfG9TRrV+zQ588V+fGXzvi/PvXIedYPrzjz+76165N3f/7c/33fe+G/E4QJyfteI+G3wimFmwBLXA+6FHkPGuyFYdQ9LLAhzL3YMwPvQBvDf5S7fcrTHWF8VhYA4SOMmniMU7UP06BnNpXrl1+OGnw8gl18fm8r4qHhWZEkJ4wY0zoEe6I2yYoRhYbzg9j9WIr5QkBAkLmXJimJuIOKLlayo8UWiODsFMuqw8+AB6wDARo8yD6D0NKWOCtvRIAHbeyD9OZ5ILo3JuGFiAFvVJppbFAYNZBZB4ZpUqZ17wOufaIPhk/fYwumde/SFrfKi5pA5sngB1KYixHo1DC/iC9ALlkbdWtR/okQCIAuSFW+geUAz4kw3y4KeHF8emREI9FBmCN67Ncro8urxmSjSpUSYDbm6irPEZsgU2YPF1mDllg1d3mHs2wI5DvMozPvev8niUABOeyBejWB7yx/AQbPDgC8qG7VZmhawcSF96CXJAIT/zyju4LBuIaQeaO+MFscaRB/5J3UCmZEIuthk+9GC19I1gSdMo5d9DdrpZfikx9B3/RJ5ov7J2T0FYGWLEni/yOhd9MEBsXLEsFKTofJyxZZjoeGGTHy3yHHXI8gZ0nr4QA1gghZ3eDjvpHZZh2E7J+8Dr+ILLOOBVdJ24W1wqdSABMtKWZmu0W+SPQaSdIIJsSRumzLH/gNWq7RJpLGOcacXwWo7x9HyIF/pP3DlON5AdjeQIjZvO8dbOPfeTP7ztfuiHHnNvu4X1MoxksN8EaWy0uKNMUxypNoHAjvGNxsPDqfv2axP3wgvn+IzT2L388sK9em8hI6UJHCYP5Z4OTvFeDHdukhAcJXAMoFlSgYpVfi/6h8LXVyhwDBwrhw0WFRQmRUWzbXeocgO10AB3nnLyFLV8ik7AM88u3P/8f2Fa9Sf67kc+MnaP7+GzVpRRX50rj1X63GfP8Q4QTtLxBQN5UQb/qDckMv3xx/fc9vgcTpGfiWKcQEui5idzeumzPXW9e7y8AZF/0gArBpHq2FBWpHPfEOmxcdJQUn7cbcqDBkzhCTGFLNnBonkRZKhrlTE/8MwoT1DSkQNxMhJgml2BGYvwd2k12D5OBwI95UV0c/CAPQH44+aAKdYy4ezpuaGkXC+h4x3gizEjjOD7gB3CCfKD0zhFD5fHA9zGGWPLApGYxp8JXtXpwQBhKx82XvG91bFs3pqglzRDp2IKr8KP1FAWQ8hyACHyLrqCsvC9U84ALMYP4A8PVDrAyRw0GkEPjAuRF/QXxu4clXP3PjqqONOhR0PKk5iQvrc7cTs7OEgB+YdwmANOZ4OXCTZ2TZFnCgFMyRQvlJ8bxsQRAn6Ade0ROxCLfbpdRLCtkA8w2fHS5n6MioKdwZ9clAX0iDix+VEOfTg8Az94OIUY0eeGnYDNQUHGsHI4aRE8obsBnkase+oowiw/dQ3WpCNXHlwOy2AHi0ImDpx8hc++Ua9Up6hf7EShHvBHXe2jkzfon4IfynUEGwbmtJIoIL1oIKmvK8iLCOZ96IGDHgBvDzo6gN3kiVFckpB6QweKctPOBuoOLHAyirNKiwk2IECGY/STRqg3AAEj4nFbAIide2GNhBov8m+wWjDabqlP+WF6+6uPfReChYqOjptUPtqLbvZBYaQzsmI9JmxAHKtf9x8M3LNfx25BKiwak5gGbFHcgsH74Ht67pd+asvdvn2ENsH341QwQo3y8OUSASN5cRsvt78LH9j9G9zSi1dAYL+e+/bE/eUzh+6rXx2657Hx5N4R0igI4GKFU/t63PJJWQCnmiY8RKSioJBe6cdrQahGBvjHeFQSHeKCoz04bn53ksZTYanchJUfCYs+RAyyAX3zlbH7578xdU//+cL96k/33fvffY61QCjiaOq+9Vofm2726X7lUrwIepQ+OtxOad1sajTEXnAgMGV0EAHZ9NDxUfmjcXG9FIWgsZhCR+bzM6xs0gFhohnGn0aOToiNcW8MiaJ+Z8AxR33TvhZXhZgmIbomJcpKvdmSEeEMesPZifsnA/cS3o98+eWpe/HFqXv9DozsKYwbd/uA8NYWpqP3tt2jj9zCh5udeyuOs3rrYwu3uwPuMcIciGHVGY7CcRck24ZGkAY1+z5eeTo7GrnXXoP+vzRyr+AUpNfunrvTs4EYf7hutwueuHHrNk56f/vbhu5tb0WH6BHndiG7LRwG3+NuaLYNyJyj7zmMm7SXiJkemKU7mEPGX/qGc7/xqZfdK3cwWsEsA7/fOYLze+93zt0/+tkn3M4+ZXuGGZ4dd+e+c1/GLNFz35rCmU4w48MRCdwKDOYW6B/Abx3sjvDFmJF7ErJ69ImF2989c9toE6s4RWEZFdub70ozmsFhTHDy0TFmmu6Cl1dexQkrr/XwN3ev3x3DuVOfMIqHPAfgabh9jLpD/d0euCcfH7u3PDpw3wG+tvf60LWwiKA2JJJP6+AUTpF2GrNa59OhO8HL7c+/duxefXXhXnnF4R1b6Dv2YZyRL77bB552d3fc3t4OZOTc2x/HH85JvrU3dzvoVXDJw0H2RIo3jcW0teYlAuxDD9geTuEMOTN3/1V8DP3FgXseOn7/cIYZuqk7PlG9GA6xW30H+xIORu4W9Ojxx47cE7f23JPwj7eh3+yEcUDDziB3oMtpNhGtEMw1QB/HPgNtHTsGtIFqF0LOVoEeT+QCL3h5C7gw6wP95syGLN9hkyE7c7KFgv5gzWslx2g9HzaSu0f4QC4Y4kSqmCY4iCEM3Fsf3cGoEYziHNUp52TsoqDw6G8SZqoIiz10BLagHNhr4j78XSP3oe98FO9HnqEBOPfFvz5xn/3qjvvS1zm1qB/m5Wet+uhpi/ylS0MXQowSg8ZEA2BXEbKYVncYD1aq/hAzevEwIPwKhkwzwAE4OMQZjC5tOOUxhUKiCFAmPCA/L3IieIBBp4EkGgcBzPCN4hneV+y75/63c/dd75y6v/XRhXvPu4fud/9sAmPJ/r73DopAcFFoho+Y2DEo8JLmiuVVtlr9kn5B02dhjw4XnRr55qCCU+Kv3x+7r3yz5z735al7+S7kdI4X9XHa8BkaKL8nOYKh+n5MBf/K33+rO8C03ZwjHnhMXY9GWYQWS8WyFRfpS0w5ugAIIUwqoYd/hrr62nMD9/TTc/fFr4EvDEbYEZtgBIS3SKHJ2njFk9MrQ784zTjCebYHO8cwHAv3/u9+xP3QR1BHb+d5H3D87FGDfspbII2ArXF5bjUJeeR1FywtPPfSwH3uD07cF785d6/dwbursI8L9OBp5hccyfHUJMCzpXHkzUlnzpbvjXvuHbfP3Ifee+w+9tEd99Z37OAw+gd+atRmMpChdKGM0E3y/MxfT/A60GNoZxwJo/0gjuU9OT9E3Ry52QHq695t98lPO/f5Zyfu5ddZXxg5YpaEuk7MbOIs+xCywhwQHCvaMZZNnnzMuR/Btz1/HLuhH+W3vtlUkEE0k+2C7aPuEpyayGl5uovnX2G9nbuvfH3ovn2n505xogj/Fnhfji2fSzo21UfMU7RJ3jE3hdHjCZx33z0GPt7+tr77sY+N3Mc+AIe0fR9yuB3qB+DtL5xKdQ679eKdsfv935+4L3wefB1iX7iMXjETQcOWuVj0Eezc9vjI3d47de/8jn338e/vu49879g9socRnnckKqgMgpooa4u9/mvu5dfe4j79p333WZxZ+u2X4SCP0K3iUhQcygyOhNOrPZkZITK0M5SDOjru77lbeM/57U+euO/74Jb78R/Zdm+5NcWAB6/jzdBJlzys9fKleq3xXP7gxTiRgERrWo1IyshyTzjx6h4+0vDFr7NjhtfQaDcwlQgrAn2dune97dx99Pv/f+LeK1rS4zjQzLpVdb3r296i0UAbeEcPQwIECXpPiZzh7Kz0oNHZPWf3nN3nGellH/Z1zzzMas/Z1UgrUSNRJGhAAxAACUPCEiC8a6ABdKP99bbqVt39vsj6r+vbaCPxbHbXrb/+P//MyMjIiMjIyEhg7zt/sSa+QkIA5PKeOv8SlgFaDPDR8TkGEwUzQywxQqwCgwtE5jVSnUGgAHEQ5+HDRUtIZFMk+cVSQORAdcjzg2yy1ljH47zDbsyKu7e2pUu2VtInbl5IrxyspoeerKfnXkXjn+6C+K3AjwX58Xp1ikpW37yA30WZthItuDSTdqNRX3Ogm60PmCmYAQ2Pt6UXX5lL7xxtS1OswzjjifbGq2eDC4aMFllWAECs4xPV9PSrXXj6jqd1DOKTc70IWRgzkBYQnB1oNL9OzTqZKM+e7w/7JJpNFQ2Y+fRce3r7rZQe+X1Kb7w1RfSaErhBpVATpUFhumE9g9x8EIasH37mU8w6mC2rz8P6ub92e8SHhG1YumDMZn2f5IA+xn7QX/56Jj3zans6PoWLk2ZDMduioTLmGjXjRYYdTEBzGzNcNO9TzBBOTZSYNTXTb59upDtvnk+3f7iCwGRwGhIr6O99gDDHMs5gG+oE1r332Up64unJNDqNIsn4MUsoQ+LI4kIvQgDH+NETN1gZDm+Ey6u3pYmJjvTae+X0S/B829Up3X5bX9o6pJAitUyzXq5IzHIWMCvOzKCFWx8fT3ZRCKVSF8sbPenexzsQtCk9/+JU+v2LXezHdTzncepor9Bn9ltYBLjSIpAQ5io6Mygbp8c70qHDtfT0iyg8WJCuvLwzTIiLaAoAV0C19MOySH7NIfweeayU7n14Oh0Z6WTMOAqpwETfGRjDBgRf4QV7zKR52u088iX389aJlDR1kihdJ/CmR2C8cF0jffb2wXTJFlg45SzvmyjgHH9mmQ0+/iTbsH49lw4eL6UZhAtLtGEBcTUT0RwlOKs2FUxYLlKDd87VO9IY/gNvn8SX4IUSUa/G09c/28d5qLYpK1zx4gX8mWfG/NQbG9KP7h3DGtDPjLEHQSsP0aTLWHKbFvhqUxDCe4RKnh1e6vyaZWZbg55GxqvptTfn0wsvzKfPfqqcPoCCgw4WuC7asxZY4tHhtCh01sp0gfcsbxiYfvjLWnr42bY0Oqlgt88pCP7RCz3ceWsz3aDN/AKS/R0kyJ/lpHhBpThgYi0RKOt02skxzD4IBMeqbMyOlLk7UBaMgsMgi7WcouZlVctvVqfV9zT1hLA0Lx+/qp2ldO2VC+nAZVWit5fTfQ+dTM8e3Jim6jquVOh8BzcEFbMWAGMgN2EMsViLOeZikg4hDkOJaYFtKe3Vevocg/xLd1RTdycEZ1sBzj4q3dmenny1nv76R410eJT7zHbLdGAw2xKd6QAmxUK2nMgEAp1tBr+ETjXEzs/3ppNwGTUvWJEvRAXLB2/JNR8IXq3M0z3aqjNow2ibMgwXpUUGrOviUyGQ8qDODZQRYqLD3BbMGdwuMJB0jglIyeryTZOwbadZI/7Zgyk9+jzHz0yoPDg0gVezDIMysTbdtK9oWmCCvpqeRStljawZgSJsAriIgWYri5TxFvQBLDrNLH9a5HItc6pzAmeRHsxZjfT0y4Tm+2ENk5uRdDJKWWmhT5iNAb/OL1XNNRZgPzHrjwRuYSH85iWuXBdtIoxOjU+lf7y3O738bjN963Pt6ZINOi24DoY5lnXeCrMqhX+Ut9jXNJv+lnkq7MYQij96oJ3Bzsx5tifq0Aphm9pwiNFM34SWw1zvQKNvnekZ+Sd+0n6xUQKPTUzDkzhz3f0YY+PwePrOV9rT5duIdCQ9MDb4AzC5LwMmZoXW4QwaSUb7mU1Ynn2LNssqWLrnN6xXiwueLTDWnU83FHwKwwBAJaKbdtL2THDQrLiT4Th/g8li9nzpnWr6q++V0je/VEsfQ3BjX2ENFYcQUboqGQd3jimT/adSPdGYTPfcX033P4TPgeZh+oUaeH8uddWo2xkQBTmnznVn867jVqcvh0+zPEXTJ7nohndBOeB4nGPhHnxyIR06tpD+w7dLac/mGgpCOzBPRL6Yjq+AjQAdMOEFlCeM1sxYUvrufW3p4Qfn0iRxQOua/VXmGBNNBRFwtRNwQx5Wq9gHWUjKm1QpFC6O+TYmFSobs2ksPfNKHybtevrmF9s5o5Ve57k05ClFJvs9Ojx+5T8KjZK0Cr2NUdZPf1VNP0WBmJjE/AzuKyhA9h+imBqlJ2AMmsL8vQBOuCdNZUqFl7QuxegcmH4B+j7+3e40++V2PN6nMYu7V91xQN8LjvmjDnm/5dPzKCOUtBJUMq41TnnpzESbCpBs3zSnv/+/vyinJ57QJ4VRS3vzbNcliGravnM6feqW/jRAPOoFw2ueM2XCW64IZQznFy+Ca+bXJbqJCQiA8mOvXguQjFPNG6L1olcVztosy2+DeLuJ4HL1FeW0ddfGdCPmnft+wVmQx2bSHB1Wx77ehrNE9BqCOoS5nnm+fNEpd6mdtHVTb/rCzeU0gICMIR7ulQgIOqQNc9uN19XSJTsYyE/MpfseaKaRaQZjdYSBEka6JQikqEBngdP8bYaobdmzll6z9K5XvK7WLgXZweEJ3AdDzQ9yXqnrotstExUIiYjvGAEwJkbOLGHYZmYhTgaA+1exuqWyEz/GxjRE8dzLKf3sgZQOHs6MkTcAQxgRPORXY044IOTyBTHXs0B/OTAbeo4ygMMUTa6zJftDZWGt1IBRVeewm6FcPIWW+fc/Hk+EVQ1TUmi8MPY2mJdKi7P2efI3cF5RQC7hG7pxzU1PajmsSh+mQhnDQmMdrGYyvfRid/p+fTp9+5vdaTvVyRJUAnixBRbvFX3Ae4wchP1AOsUhdd//UUpPP+/MAZzQ5kasL9n7KGEIHPEi04vtO/xl1RP86UihQoEqQj2K7ZjloSiJM+XYQcxN3/2n+fSn/66eLhlE0WjnZnCaFkgBWwYq41Bo7ZUC0Aw+PhuUDrMDV+EspdCGDqQ7ebVtBdCgAe/rbb2AlSgrdAoKMQ3jxSHl5Mhs+vFPKoybSrp2r4d882qL4RdQxbcNgL+UwEetjgXldz3p148QF3cWJySiOrl+2F7rY/ZCRCSE43xVQYUJkMUvQy3GJAj4miiWc9CkjnGJwPkwKj70Jzj2UqW5DuxvvjuV/uaf6ul/+s66tG7Iuvss7ozUwJSt0pIaHWmKPvnRL9vSg48QCpNZXwMTfRPhUAL/ZX43wUGdBtY7pJusvIrJzBHBH3gqiTf6ZEHFnXJL9QE8iqfSe8c60j/9E2oJ3uQfvIbXmWCUFbgBkX+lw6UUCjtCkc0B6ae/bKSfP1RPU6xJLzAOVQiCIKi50cSBz9kiyxRtyQMNUDpRTnXAif6Vpik2+Ie7AUBSKPR1rCTpZPo7aLVZ2pg+8UHbQU7yByy+BHyBM2+DOylE3iBtXExqYPauEGtaT//T05X0w5+U0lPPzGVLXOCLiRBYKZd60k78WL75pb60fj0Vh9C+mBpXvnMBglFK8WNDGYoMwjkYYxBwIEmC8pmzF0wKmCy0ZberUHL3Xy0JgpwTAtTrbWNfI912bTXt31lKDz1eTY88Nc36FYyHtU0ZsAFsnbHp5bfgSLyoJAHwrsTMYJqd4+xJNLM+tRYIQuYUhMFf18Vgo2nLunr62u3t2Orn0/fvnUynJtcxePA4DPKWbFrJpqxgWK37q0Bd+rn4JqgXLgcYM2XK6GDxfvMGGL2DN5Iwk3/pldb9C/ny5RDT0f46DFyBWA8TOqYVbCudKGhNBOUs0nGm1pV+/9p8+sHPp9K7I0O0uQ4rl5FnhyS1yDa28XhETRuCRdhksgoCZ5G9aHx6W6pxa22QpDL4YmBlQ4Qq/i0hZ0XDNNM7+3j3aCn95L4GggjFhZmVXpdZBLBGobckAw2Wl3qqJerXHA2MzFiCsc7Wgs4nYdB1ytIgNQ++nYGVFZbQWQ0m/vzrjdR7Xz39289V02CVIQuNBrNZhMiGCCgfBvxx1ljv/nkpPfZ7d5nqwcl4gWEvoFlIqzFrxG2+C8eIHkzqPR2drN3b3+AeATDF2aeAxjXGTOhbBxvXdG1fmc8cQvX199rT3T+eSH/yR9XUW7XNYjD/DThW4LO43wIYxHtHgawTiKECUWtYO6zjOT2f1g/hWNdvgArugY6GMOG0NDzexFyOYw6nKMwhDBvQn4qLW6oaMK3Dp8rpe/cMpw3/fl3aOaSSAUNdlcJTksqlkXeOVdLPfzmXRjm1Ry/gWKJBkWmgVDXBR5V+Wt9bSpeyZrh9SxOnlgprm5pyqR/31LnGTJqa7MB5D/MpTjEjMFmkT9SolSUwCg6fw3fh8edr6a7bGDvgjke0dmWiRAgTaibLUy+mdO9jZWad0qpKnzxGAQydcGSbAqULcu2Clrrx7HW91WT0qzkk2Nwca6ZYCwyR1kQZXGj2QnPOSHHDAp6jOEL9EGV/26YFLBFQK4CGwC+E0XLQwFUd4fnES1jQHq1xHmIXa25ZgVNJSU0mCtBIGf5TrRAnGVh627vhzVgHgL0ODNPw6xloSX1NiAAAQABJREFUag4BW4PO3YKlUHKJB0M2qkhnOjrTQd/V08Z1C+kKomeVY/2iBchqPrNyqOZMEpSf80nQygK84wTOh9+/bwKLCjPWWRUO/RagY5QTcdzfi1D8Qke67lLUN9x8AX0FVZ+tqgBPCX6WlCnkLA/Xvq12SO0gojbH4IGCZGp5wPEGHeAeoinMFA5gaOJfNYXdPqbpjhLXO9AaIKgdQ53py5/Bo/Oy7vTTe7D3vzfLyQv9qSGXBb7MlC4SlCBG3rXzSadZ9P+rv2d7xXUdaduOlLbjybW+kyHegRlQbZmZ40K5yoG/8+nOj8+n9g40wB+wPjXb6ohV/bF2/6wellF1aGP5yr8UBP7VOh2Y3cCweYMzuNwbsnE12H9JUjBZh5aBmRkW8FEKGE3MjGknz2bpZ9eZero7UhlPuxdeKRPZZza9d3oAoQPXgLk32eZQBy+Gp+uANjraOmD2bCvpHsGNnrKwmfnRS/BKCBzfg2iTJk6ZsY22rrVmhrbcNca1Bpza+ew8kYbuL6XDwzCH0hgDHoUpGgXNwig6EDyb1nfGcV9XX1ZJ2zaiYGBxl59gXUyzmMsmx2vp0Mg0zl+d6Y1D7WkED8O58ig1wxw4+SNxisAMzOUxNNrLtlfTnR901q7SKO5FYOsvFoN5bo+MltMDv51MTzzbyzza7Rk6f+h1SXsZ8MgajgIbTbu2V9JlewZYy8ZxZZCoRcDKFIRxhQkWa58emS+/PJ1ef2cuHZ9AQAOPs0vpoa0yickQhv9Kf3r4xeF014eGljl0yOz8ZBpbC69C7TCXNqWtDgTiUO9suvGK9QSPwDFjaxmFCJqvzPA8rwfXaV8NYXj8eIXz+IbT488t4LTTjakWhoaCqgLnVo833xtMv3piKn39rh7oIddBdYvJGar1LuDt/vLr9XQEb9Ok44e4RNle4DNP22Ty1+9ppi/fQWSn3cxuVA5QCiquT0Nz8qfaKEFHOEWmBu5efGsg/Yig/G+dkEfZJ5aYx4przQ8+dTrd+uFN0KaCTvPHyuRMim5Ob7OV7J9/MMdas8oCa9LMFoXVtS49OPu7qumybY20/5I6cOGDsJEJAo8VbNLU1CRb0oab6ZVX29Jrr3ZzKhH7ubE8aDFIjX7arklXB6OudB8z5f+OI+vaEQg5UhWIOSOV0+mpUvrZLyfS8NQAT4Gf7i0Bi06B7ShpA91Tac/2lPbtG0iX7MLzFI/YTvY6p1pnKFgzGEGGhxMwjafX3i2l9/DOnmFZAf9s6Ia6Gz1Yame430PM59Ppsh3rEfoC0upAvlakwK/YXZ6yIrv8ztmuGZppDPP0PQ/MpIef6Enj4LgcfA36Zsw5GenlyLm7bqumj9zU2oJjc4FVc+77pYBJAnufdIGC0cKonebKi2qYS7NgVFh6X9IRUW1pcmYmtNn3qfuiHmn6svEGyY6BDfMxJmiZ+tG50k17EY5/1pZ+/HBneuChWhplcOR8wr66984XBN/LiJRRS9wvvTKVXn+Zdnf0pn4OGL5yz1z6/Kf60FwVFGZ3blRBa1xItxOJRpPgf/1BnbWIXE4BSf51vnCsyheCOs8EJN71eAL3YTFSgMej6KtV71zATxmms1k13FlmAwua7RBkMhV/NyAC94o5a5pozKUZFr7vf3iGWQGDqMTanso3By3XYVQozhByPV11OX2E992OrXXWA9bF9gz3UIkt99BVKANPerRWhIoOFv+SbkN9PHG8P73whqwC701MQtMwi+hNtWcA/PBV7ekrn2RrwUbECmashVJvMJXsoABcWgO2tqcboLvxG2vppben0w9+OpMOvb0+zQJ3qXyC4zKHoq+nmTE/+NhY+uBVnWmwFyIJwWgbMh4ncFabnWabAQ5Jz7+EMQtmL7PrnKUsZ65o6FUE236Cx3+JbRI74XHTU9OsEbE1gxljlQkJhgoqbaTNmxoogY30oRtK6eA7Q+kn96f04htuZbA+Z5xwNhjIDKa0nz80lD6ybzINDbHvIpIYKCiQEU0/ZuFYIDtTpTk0v5UZa5fuXEhfvWt9unr3HMqEs3/ahzBhTgSOsJeQGb2GJY5GGtxVTpduH0of+EBKf/O9sfTKO5rHicC0APdt9nNOH440v21P119RYlsXxSiBl6UFFd7yBNtm+tI77zKzov0drBVqiUJ9YuaIxzfOb1fhvf3n3+5Im9adYPa1EaGlIoInKNKrAaL0w2hsRaBO9SZkY7rxEpTYb7el/+2vWYsbm6Is2g1cYTKEfg8eYUZ7NKUDCLQI/kB7lqe2Gp66nLH6m9+1I9jgNsy2Klo1sG40+W5jHXHD5tn0p5/uT1cegN67penctgiLKbc3DZXTvh3tOLPU8UOYSj+7v5Z++9sBrADwzwoKl7Rfx/uzPJ5++0wXzl11BBGDCVyDLUtYker03++ebuMQb/aMUkUHCkqs9WHRqMIXN7L94vN3dadbr8EiAl06c2xjVlpDUWcJNEyrZcZeY0eiT7rS8CTLQI+n9OvHm0xwmM1SZhlYKpr7yyPpxberKGRH0/XXbaWfhEda8HsVwlZAeWE/FppT6cEHK+nhpztYmoF/htKAJEa7cC28p306fQxv2c99AqVDWgZ+vxxPmfddWH2rc5f/4i/+4i9X3zzbb9ew3DOicNKs9NizaOJoO6IkbOcA5ZXOFZqlPnJ9FVfk7EBwtjIv+D6VKZzUPkVC1A1ChEKE2D/tjIjLd+LCjifrsfdwSHBLCeY7N9MaSaVUkU2afFuBbvI6p4JJFEpFfsJfGRyE5oehm3bhJbt9ay0dPtIMj8BDb1fSjddjqsBspbNPwINwdIP41m3Ah5B+/S20TogyO3zkiD7LF4ALGM7nu0mbnGHMo7UbFeiOj06k6/bjxIO2LOzOaM5Nqw7cAgdem4AV6TeLeWVyknWemvfBNURZg2fMqRDxin3u9poYhjT2+UOldP9jMHMcoUo4D4VpEMZQJtjA9ftG0re+2J8+//FS2r9rFtd9Zo1MtnSiJaxr6oBe2p09kj8z/8LcrBKGGZQl40efdG7ijAgJQR/ERn0G+VWXUyamnRz4AdiBLJBPu378UFs6eJA7zWkYrDBjGqQ/ejh78iufmk1fubMf0xCtk0HGerR5SHaeHxNfDczwHQiczaxjXLaHgBRjc+wx5T5RZiru02VNpIkgnxvvS1sumU0717MWSD3zwDkz1UAbl3l0sK8PD93ncaF/CSdzTKrOqBUEmq50bbnl2nr6+u3EuR1sw9N1PvUP0L8wnlH6YZYtHe4508yrSV8zfgmP7U2EFLx2P2tdIxVmM9AXtBd976yVq3n665JL2pkNwxDps7zqBzz2KfU+8Qz723gvHFfUeuQwJvp2FkGwm32c//5LZVz3WeuiDdJrrC2bJWej7VzwiXUlbgJeGkJJu35PPR3DfHqMoB3zMmQtHNDtHHsiO5mBXLsPgZIXG6PfSq4fkafCTGcKx5FfPY4nMQqFsIYHe86FklVKX/tyJe3dgRMMipmHWWsdsffjP18q7wquDqalFawp0pH7Tht4Xp04xuwdONsQauxojLJ7FibS1Vezf29DRwQqiMZR82JCeL56uCvd/YsF9gEy9oDJmYsOO23041UoBP/Ddyrpmn0cRw58Je6bRxzxgz/yRz/wUXBRYda7rpv925d3Y1krpbfewjpBX7NTlfonuOrF5Ko1hWPo9qE0okHqOGQJNnIBAWGpp8dL6Z9+OsHMmkMDSqwpMu4rzJxrvLcBn4M//+ZCuu2mznxoAR3F8GRMgylwAaqD/uo4tKjIlzCV9DC8rrx8Mq2H9l55k/G8wIyYf1rn3E86j/Q9Mdqbrr1mPg3Aay3DpALYBj7eOVln3dxAAvm+f2O2Cz3u31NO1x2Q7vIzWxB6kd1G32vedlb+C5xs7rl/DusMfYNW04YlwtQAp+1skbn5mnL61hfY2oKuFxYy22KZrXIj8+IfCAH4rTPqXTPPYua4gHNeaKJUG6H5xIEQkHjP2kSeS814M0F10I53LrSCi87vmNZNvMEA6Ohgis3C9Y6tOCH88wxbO3oxV8DQmRW4hlDStAPphWPOBdZoSzcMTqb/9c83sMm6lv7mH+vpgac60rHjNTbQEgLvMnUYydecJvZKVafTnXf0su4zll5+aRBiUziKIJjjKo05v3Puv3l7S+4DPWV3bV+KjnPut4scwmgfSTzOBmGk8NNpNgDXQhHMTFgid1uBa0YhgKJpINzEtTOCV14dxdzaw+BAa2cGVEcgMsTTjfuH05c/18O6K3uhNAe6piLtwJQXR9UF0Im1RvVR+dp/zDM5WWaP3ikG8gb6gwFMnxh8oYx033sAs9kHN6Y+eOr5pNyfsBwY2o4tc+krX+xI74zgKHFikIkhdk1nKzAOtqSmN96YSx/dxzYbePwYAs0xsWEja4QwnHHMaM89h6mMmZjWlqzhkgH8XbVrIt1181Dq7ZlBCLI+x3pdB+b4XszUyCZmOQQgYMN/d2+Fj/2CqRw6bsOxpI/d9V/8OtGjxtiX+LZRTWR6srM8Hl56pZZuupKZE3vBwkMKBlakbIpehVEVD5KHot14Uyldehn5UehW5SqKOOv3+o096Y472ti/OkvMX4SqJUBDCq1D72JVivVUBbb485mCk4dahkDLvMTIWOFP/sAAvVSo9LluxyxU01pCCCxPBeMVx3UUA5XT7lh/TOkzt0ymqy/rRfDWWKN0ScDwClW2CHVx8gxKmh6kUSflL0+A9+LLo2zeR+LDQxTGDXBcxlS8caDJloY2Dv5G0K96bXkRS9cF/lmnxXP6U5/sYx21ln72UA8zJKwH0KsNbdJPb7w5ksYxkXbit5AVHnsBRg+enEW/c6SGww6KOHhRYffZLDTZV+7HzFxKN14t7rKFr87eYcd5LPlw29m1QTZM0TeaIimoyn7Fm25EgRirp188gEWIJRTX/HSYk+8cY2vKMbalbdgNfcO/VAJYkIxy7NuYXNifwHKu1MBh0YhmekrJN555bSH96B7oZaIvlJfsqAQtOENHCb1qb3f66lcaaahPWmZQ/QHSeXXhynppLP/1/jL2qeuv4XVGl2joCLdfphMzwHzkKAMTZvGHSnlml0tXINY5HVpW0E50AMNT4cCGOWoi/dtvdLFJdTZ1sygetnLXBIKROfM4G3TCvvYzbw8OTTIYMM9RyQc+oGOEBNaRJicySiEVcgGAX6Fp9aYNOAn80ZcG05b1k+SXoMDZRfRAAVXWzmVgOGd0zaQdLNJfTLKdum/PM1WbYhPw2DhOATiblHCYcWDOoLXOsbBlHueHti3PGnJ9rmWcRja8/qZMWGav9obTE4Nl56aU/vgLQ2nv1k7WOlyvm4/15zBjxcDJQ0cvxuX9ubwd1rW6o3L9Z3ZegQHbdJIZ3ciIZznaPooQfhjeus5G+uJdQ2ykJhjFmUWQVyoSrmX/WPMR03oktjND2b6uLX3yIzgweIsBC+VH2c6c3n63kxkSwS9O1yKayMbNnSHARkcn02FmHCeGURzQ9oOhwJBFg44Qn7tlCBpRYdMBRw2+nRlDOQSis/TBIRxNNmvabkunj2lmBUbWfgLX7Pcd6J5Mn7u9wlqkJm5Go/1Aabb9jUN6EjufUhnJbcvfNpQbgYcWMmB0MXtEcdzJWtSHEIwd7awlkg0yXzMVgqh4KFlD3sEs9+2eStfsp1UIJ2nDWRtkRMhH9vBNWxd5meHkshFUmtBBdgMBUYYZh1u+LQnw7AXWDhFqx45jDkU5oEi+HfsKFP/ZnOIfP6hMZu1Mxy04GzEpX3F5SlftLqcDO8vpgwdK6RPXNtIHryBST+ip9qotWJlqNOi9Y+yhhHc0rJSajMTTjln31g8NcPC3Zu+V75z9F/1gXjsfxaan2iQsZJNj5jAGU6YCUMFncItTrEmfGqMNzLh0sosuiPrngKUtvfk2XqitrT72kTy42dyI5680ynhkH+Msm0rnsPxkh0TWaCGKOtt7FIpiyog8gV/Kc63TLurm+5Mf60h7ttVpo8+FCb7FvwnMyoePQLsIw7qTEfUXxw31Z8Fo4yg5vvwTP+PLPMtTbO8wbjFm/8MnK+Hgc2oGZYW6kpMHfFUcd22sv24dmE3f/PJC2gLvbYM/FSnXbf1nfs7GK4p31/o+s/fXyrXinh0JUMDajsYW7YbheOV1dq8XWYTaYgbltPgPkkCA9TUhdkNEqfW6PlVtOYXo7cVWM4Z2H6amZvoa3oJ33VpKg0R0iL1AjrxMYq2/a0F5FuAhvHcObUyPPMtiNa7VDzzk5mHs+dQ30NMXBK9jvaYuIIzfQSEAvAfPuU9+kg2pzAqaMDVdvC82OQDynsC2tHFDOW0YcAZxPqXZLtsvMWdCZkkYgegWDO+jrfNXZjyDpigTV8HJGJfYiw9Noz7DMxnXdmSMw5QX3MOlyQqNnjJuvMpjsxSqU6kLL8aOXva+zlXT5Ahm2VnKVJIwGEP4xSzFBiz/FOjL9MXD807HCPM2xx7GvJaU22uDL99TwgEBMxhmyGJf6fJCbVOGwDqLfzAMFIAAFyXQcGM3HKjE2mRqMmuEiZkamNROnK6mcTTzTZsNnK8Aa6RJvFBrRO0YYelvVm9NGT59HyYmKtuygW0V20EF5mRd/fXkzYMT4y8ztUnWeUeYDRo3df2W+dS3jvVKAhScxmFimnLBMI4sg+myS5o4E8nAstcmIpImEyiC/Y1HjyMYcBIJ5dWZQaudy9ueW64QgjCYHe/fzdFlG5lxwbhklkFfGTk5a+u6uFWU5e8c6LnMiS+VdPOHmPX2uNWCJwhBt5e4peDoUUzb7qfkn3JUZc9JzSSKVm1uOvWgTJYzt+epdJs/kumTz+CBOYaDnR7MjDWVtuitqJysJt6Nn4wVhZBvB644oHsAE3oH64AztSkEB8w9lLN4K7etdVl8TbHGdvQklhPoFJRSnrPNdto1ma67jtm1i8DCeh5JOIUEkEn+aUtbOILuxmsRjCgQ/hZHCvwJtqm8fYSuAz6HSNQQf6ANcPXuEc2v1A3tKT7FA4fqpOuvUvnixFzkS5MZuPPJJgSsR7mCUdN04Cw6lceWTNWMUrLSV7RtAPq9Fpg6MKnH2ie8QR5v3OojR8EZZba363QEH0Z5VvfIXWQb/LRSlFv8WPlt7GFATO+gKH33bkKAHmHpKwQ23r1+89wgMlv7CRLxhd60d9cUCoim9UBeFLbEk2iT7Vr2WVnb+f1aKvn88udcNFKNtA9rggQN2kGGSLC3JESMlNx6F8/QGZ1fohPzq0We4tfFfAczp8w69j2Fokio6jPOd7g/h8oCARBuyeDVbRDDhu5G+tKnO9Mdt1bSIB3pZtcFND01jKDl1qDJ8Cx1aAY9/85DjGvqmUWD+T//dir97//HdHr6tSkEIzMkdm13QlMakyUKtX7fUavVdV/PvCp7iD5GpJTLL2M9wFwQ4BJOViCK++dKDHQGj0x6+5Z2TG7nyl88R6viEprDzNRI42OzsYE2TpeA4MThLKHaHEAOftvifxNNj0t/eh0ERNtOjRKiSVMbDFfHDNca1rGV40rWW0xuXp+aoiz2fPZz+HK1exqBwbaXCbb8g67YskI5Ub51FPUUFVlI3M95/LmYlqFt+fsnT2PqkoOBI2nUNRCdlPbshl4QZAoNmUO8zrPcD1aTAVg+uIwfisoKOvyQB5PPhnXNtHmLGjQKUAs296PNEFx/kq0Cs5hsJ1kfm1MBgF5cDzyFaUoNO05iCbgcxCnt2eVa0gz0ihmU8ittMCLoyL1uli0DcovULLPEKQRkB57OGzaTr3MqjSAcRxG8mm57uzhuDMHv2lm0yHZB23MoN8dPsE2GsWB9dlzGlT9WJ+7xmtR7BZFqPE9bh4c2aDW/U7y79L2iBIu0cnBhasO7cfcOrCyYG+MBz1QIa5R5BB7hcLU2e2kaz+eJcbQ00rp1vayN9oU1Jt4LfGV6mqdfD+K1+eN7TqWjKED6ERgcW75jeTlwN32ssLMw/9h26LJEvgU+0mgnwXm7egi/x+x8dJp9clhHGgruYNW+FG9bAsEnNIUrFOUdWhAUNhXCy5XSRs46LaE8SG75jeLdVpstoLjFd15zgzfQx6CBD61Hmbx8r0LIrI5t3uG+NPzWO3jWuii6IhEQA1SdIE6seSMQg88pf8PAMIoWOMHMXO9Ay6DDmSCCmzz2LdfaxWZUI0zxm5m7eNIWQv8xYcUruopFSkHJLWbL5m/Ay46fJt4qHtpaQdvgfcGDyRPRdQIMc56ZyELyr7C4Lgn9zk6kH7AV5LlXelE8sOyx/t5GlKk29lmqMnVA55+9o4LlT3/hXsZgPbbvRFH8ORtdBq0XmS7gW2lC9gzqud4L5IO8iOqAljdEDEVNknXiMrbPEbQWjXoehiHBNdl4++bxAcxGM6lnm4JoOZKsb/nvc9W8lFsyU5vwFIQymrWzVnmHe3EWSxUb/CjPu47DJb2vWaoT+L5wh6aclO55xL1gmgZ1CIAIydeA6YXeKmhBlb7MJ7BrmVwHKVEeVDKLE8jctGYXOhfhVOMd6IT8biBmvY96bXdeF+A+mpjaJla4dAcmjjcwgYwSiL1gIFkNtfLi4ztFsmA/S8ly52GAfZgzPnBA5kxZ50gqArZBfM0gmHRpbyP8F/46CEL6j7BnEQuRfg3FtShPoQXcoZPLbPl4rTmQngjnGO8ZjUeHBFHWtW4irWdzuZE9Qr5Sd03NHHirMPYqgnN2mvBOY0QoJTB2LzEOI/i1zQ8cFJXT6xSooIoUX/S3beGzAiutH/BDAoJrF0OLhlZ9XwWlq9Ke9u/CkQY4S7j7u5YUKIHRNTCFuxUiO/8UdefvNgbigjQG04wZDy/Nwwg7QZzrjjXd9RUEeEjXmnjmvoMJarOmL7ZhQFcyftPhk3owgmzqkipVotTyd2xg/yuwyB+bOIfVMRvBn2C27A+Fc9pkvQMhWQAkNgsKTQeuvp19zF67GmmMM1FPn5oChwSkHsSTtNTNOIQmykQ0gJV4is0JZo3Z6UMmyfYanpgCZfxxHIRTGAPGGWI3Tl1b2Yqko49HUcW6Xwv3+c1lf1tdk+/ww/90usxU5VSHjg307zu0za0pbVgWFGSnh12rY2uAChoB3R2RfbhWs4zKXszZdADHlA2PNtJRxwlOO8Jg8vipWWj0gSfxOn69gaPdGJ6wOPv1d6Y+1l+r2DSNt9zFsXfdVGHQ9U5cZxUegU3GoY5eZXAJWwglvwadqHjUmZ13MVOtEszeFGvq9NEpgs0bUzcsKtDLAoqO9LpzOzMr+BDdBdvIilYcbgCs8gSjLHm6SCY0328JPRseiWckZ2RYj6NtjZL2FmDl/QXwcIQQdjNYmLrBX2wlUZqwPnuKKE4jExmfJQML8JZrgZv7c2za2E/LtgdncvhuwQVRSAhXWWc7GQ7Emc1ZubRGP8fyTJTN+MBU6ZDDiBE4Ukg6N2/A66pz8HYUtAmUhXXtWC/gbS4PVfCkkxc6NqPZFg0ac0uL9vpbhQWhz9atGuPqvgfL6TfPGJzFPaDAqxUAr9qwnjA7vfm6nvSZm93qRbMdJNCoXgMFS7AJ//LUgg94WfNUU7VLV6dMFCvvei9YYwymgX5cZRkwczGgzJk7XI3DGcDEVJ3zGtmguhXEagMQPdyP7yUc+eI5kzU3mB3W6WERX4Xq7SiFpExQ5nYuJLm+0QmPvPNTBEee6073/5aYpphHFC4MTd6nkGBYq8E5E9hFJp3ZCgyN6T82/NEx88LgVxfR+l1RSqM0HLisA0/CWnrsScMbX1yi6cCLK3//NEGIB0CtZKugXpkUXfabJrUmDNKtFnMupvO7zNqWZmgDVocZJFgT2W1Gq9niNc+e+AbR8Rvk5/vQAwxwYpx9WCgDsTUhmA5u4uu7mcXycnQ9wMYgB9/81p2+Sti07l5iesA0nT2ePlGGqWHIwXwTVhJpxtf8qFYXAHF1riRqpmG2zgidrdP6+LSzvrhOU2O0DWZmRj7GJ30ep5mf3z/DqQ0wGKZtnvbRyshz1lMEhCQuIEF+j+OdZ/QUhAyPVAjnwwJAea7JMrbcRhuim6J8vQZM0ofJ0gRDeh5ch8kQutBz1bvSj+t8B98up588zIxobjy0Z4Nix3PXMkyus0TZ1I2Z1c3nU3WcoMLdHy0/mIhlsX486X473PjUeKz4PFJ7NdNT0fbzeGVZllYlVsennfOfUMlQGmmz/QJCJllLGoG5dzIL60GC9XS611ErgiZUwuwxK/7oDfX0w98Q9YatP80Ktmjw7Nqq63vzKCaH2ef4HkrQUy9rPWIGz8xe86vjuYPnnTgwGbRB2tqEE9SlOxDSm8pp5zb2HxOsoB38u/G+AwbcwckHs5j6p6ewADFOPEfWE18cPy4zhFNTi+FkOmCb1PoB+s7ezClaTfsm6c7/djfbVQ7BXVjns/8VPOLC8hTQvmWEGlOF/azTCK0pTOOo2dCT66bSHVFtMMezrOpi9Iq+G8HaU1PirUo9KpnwZseZm/xBBVtqHPcd6R/uZk/uEbiOkxnWo4VHWo8PtOF6/zy81j53K5W0fnIaAabA1GsYJdB7NXjIHIKx1J/rNyBG9K3EaxujnasAW/xJJhRBZ5u/ea7EHtJymsSy0M72p1KDwCBoK+5bxMMh7dw8ylLYdpTn4uX3LbjIdOHf4ChO+wEo9cBAgoMz66W056yN4gFM0Hzm6euD8DqISoEzgNpXvBfYEDPgHXfrN9/tSDez16oNd/y81/H8GmWnFPAIrIFxTRX2ULl3Rtr07LWcMjytHyu+hEmClDvHKfYIg172qn35ruwx+DhaygzMRu3ckG0ysdwOXon3fJ8LbjoQvBUtEAB/+cNnzCTmiaP6e4Ilf+SqDSgMhoiDAUPi0ZZWofEuA3egC8/F6zvS757Ja6SUcl4pQIo/1I4gdL1UL8n1aPZLGFsqyrrDLZt2e/TNDN6mOtSEFxnAaNabZ6HCAajgMrVAzd/5Fte5UgeEz7PQ4JtrBeMsDF+mIRTZZIkXIN421VA6GF2tcrwQdc5+6jMEdcbcWEV1HRj0GmbCQJ9iVtkPgyqjqvqa9QW6411++H6rPPvEOpcnf0UQa81ii8/tO/Oq1frNKIvXuEthCo53YRavvsU+uyhbkzApVxz9688iWe/8Qj9MB2Ycnnq0W7gEDiEuYw0c84K4Ewz1zzhiyz7xfouujNjR3WMeVSSYYot5GiFoeLKPDelEJCkN4JHniFCw8j79SYlxHTNV3o17zPSaJdc8rQEmRt9EtBB+TiIYXWNanjIkwigOosXxOOM14z7f4O/S4+VFrMi/+KDI28Kl2wBc/y8xU6Si+Kj3zGGyLxMzdZBj5wTNLRV2sEY+6aqno5nuvK2HAN2TBFjgpJ36EG3Dec25C+8nhInjOocSpA3cdAbuOqL1TCPw2LzKZJPZz3CZmK0pPfTMFAy4B+er2XTTdc30MZyodmyexjnM2SNKN4KwAhd23XFqCsHDNL2TTftTOC9p/lXRCsOvHU7/e2RTTPUxhZpiqPCHoZZeOtiTDrFdBW4Vz7JTE3mEb1VqEHzCGTtUglCg/cwIXbt2JjeHx2oNeiZadvSDeqKonWIvojPv1amnV4EKjlSc7AvpD5rRIvIGYRrfYaauo1CObOP7ZuITwFNP0JeVOLOjtVggNB/H+nQrt2Ms1037zEqvtLqWHLajoCkeWnz8iYxc53Yo7H/z+BQWJ+5zq9TYyLfbz8Al/a9cuWL/Zk5rYqbM7DIqkjaA0zG1jGSt4KKTk4OWfgI9Um+Z0RqhdJD2CpqAnwrPntT0eApgPQzm3h4bCilCIKb8KDe6CaG89kYdM48zGZ+BLDXYcyVa68AUUDXsGqvxzmzamabH/dBMRPwFJDraPlc4S6bdDDgdcq7Zq+1c9iB0tB9i95Mxbmv8LKWzocZcc8wan3q6lJ5+llk07vaxbsb9gslEKRTg0UYeTrpFL9Lzd2NbAiJgAmI0XD399uyuxl7A8LRdlsvLgIuNw2No5ZNonQpALQTO2nSu8ailpKs1KYhNBaf42LV8FIbxoS6VEj3l6PK4Z8faE2rczslkGrzFR9MSTEoC5le+5zfPZdp8pCNPd6ijocuELHNwA96rzBqG8eAcHWUdAVmhcuEgjMa0SrOkc6Wa2jL5M7MBOgZa7C1T843EM8w/rukpafV+DLWPx+53dV0t9r1yvaAnM59m69tre9JQWzbZ7SpZCOeydURYkcQTDdY9PlLxBe05KGU4henRdooz1E7WlyxbpipTkkodf45TlRnXp6b5aLrnGfkW2IhN70JfeNzC6OMA7RCa2BIMv1KkYMDFjz/st3QVQhcYc2/a1lxnb5czuUB/eA/LKcqEJZOfNELr8piohfRn31jHyTpsQehgozkzKHEf3qtYKZrNddARSxdYe9r4uLe35NoU3sOO7TYZCZ8FhK5buSB7HFIWiIbUSfCD9vSf/69aeuRxQo7xXo7RG2CmLkIQ9bBPJqxfRD8aZ+tNOKIFQdsAPvKzxd+5Tblp9hN8gPE131qTVLAUH+ZuvL3yE5TDy2G6pe2QKz9UluBMBV9q9Ztl6/k/g9nXgP6rk8tMYRYVGOArBAnEwTU8gH/YefJr9gv0F8JQWuc621da1zzWNGxYvzYUL9vtK84QXXqJCqKkQETu6+jgPBYCT7mmeKZVwwIc76xspP178cplImHIabdmyKEj7i08ex7+8NKrp+EHmpHixWXFWfe/LEmXjj+/5dPKQlObjbORaucKSTM14JreiwYX32LX6/jtMyM76E0nAwnOwjMJVkZkJjRVGMGRUyn97jVOoKdNDnwDOxeDwjJWJCv1Px1Txywpc7FzFYjOUKTvAoZgJNTlvzWTt5d9QrsAprgJABLGpv659Nk7u9KOTcZTtSRNF/5j0NkJASi9F6lo+LJCKSOIKYSuazaYYGYH0/d/PJqeJDD0xATanIQTi/kOZRI/Pf1CT85Rn6tBF4AWRZtpMXlNwx0QwiMBt9qsCXgja0zX7u+nJ12rMuV3xRW7V4CB8xz5uBXDI5687zrJfPSxGl1+oxB0IQCpIvMk8OQ1BYt/ZzyFoPQ7rn0eZaChwiRCFDmiGaxCIiNfkXhp8V02x9smo8s0iF+pOVetuBN797p1rE1S3wgb6cdYyJg0+DcFxRmN1s31YsmZWHM1xU2+pWe3Mtizar25TxEmWAjMJp0Zb9MZLkMUN3l7EDzSn3kzM4LFaxkTQsrzEPOnm9/shVXAijgYjY4YKoIGWnBpqguGb4q2gg+FlWt4bZiusrmZdgcuKF38IfiZqwRcUqmWOYWy45RNG8EoLC8HhuBdZ0kqozFLkVkh9FjfjBknjNjtVJkZmgfo+MxjwXFCFmzPtVKQkPEiHaA4AkH0H3czXfgrspnxLElMRkE5j/mE3Q/wF9dAgyVAxQxG5DjjFeHrQAmK0yogzCgJYopnRW2RD+9fPJu/+tmu9Cd/3I9Fppm2sXXFQB4l+rgBU621T2JhtVz6SqWL9jtZzEA5U7Uf6QMUibLHMLFuV2LmOcem/fcIrfcPdzfST3/N9gfGht0KUfIHFk0ZXcwIuzCpai6VeYJFntnvQkxDA/bc39yIdkit5jTsmsIaqubDaTKtj2Eji+smszE/UkmssgKrfbagZ6j8D4B6saqUMQurJDl+p6edrdF7KKrC4L8iCaP9J4/MFnfwFLSiqZ4VZ9qh4HGtUl5tN0lX4i0sDVYvAYoI7sUhxfIXyg3LIGVJox0Eb6+EZzdwBMHwjmBwnalJiDINeWXdomwBgq8jHT0sXPq+mQhJV+/qjehJtsOoPI45WyYOj3IG588eBaPwsxDasV7rUys7n5RLCgBapXqtfPIj6O7r1GoaiRsVK5IArMPIJsauVDBqYxbBlZYE9flKMDCVMbN1wfspNg/r/qs5Q6KRQYbA4HsW7e/RZ6YJXcXaDutJeePqGo2J8kEioLiR3KSXk7DKzAu8e19kLU8i88y0dC86w3e8FQwg564yU9q7i72FX6mk/+fv5tMpvCY1W0QSEF4JIvNF380F5edeR8rlZkGN5s77bx9fl/7+n0fSJ24h4stVPURLIRoOwbFdLp6FwObZ6Hzo3fZ0z306v8DMZFKmxTLzzxbA/LBy4FnebgcO2tSe7QuYgYQFuAWFWQ5dwToiphw8/MRdydVzaq/jBaApTVwWZVmlH3NE9fyxtHxtnfk6GEI84HfxPJ7m3/EXmMK9mhzOutXMJe+QO1EnLyyrW5gtyz/Rv+SfBz6FdpW9L30coaWwHB0fjv2ItmuRflrlrSjbslr3ZSh69xmYPNsIoBLoUavIDCHZkpuDEZDSbG57M23fjva6fwLzGbMQBmcTr5EQGAi+Eg40zpQdLyFAgNnjl/I965XhG6NmOvVhMrz8Uh3OWqY1aihmlqwEkOwUG23r8wBVEbRc/nA7N8KnnvJ+7b4aRwihTAFTFn6arFp941tklGHZi5l+HREquMwcsUi0tTFz6hhLlwGTQQLcSlMlIECAYJucUVqZbbMjvDYFEeTL9/trthbIrWy5fTGrVUlCIA/jNTs2KVRmJpvMX7zAgLUq2F/eMeB/HAEWvzIeZLPCN0AkoI9cn8OWnWSp8c13R9MbB4nCcqo3nTqN0xMEV9B2Fg564xJxB8KZZyDEerPlGvlKxVfY+K24xkcw/fC+8bS1dwBeRRYWmVTkTYKr0/s6fSoUjjHrl/VnfjWHOTPWwBUmkdu3EH2Q2RX7JkLRi2hN3m4RqPAtJcq0/dzK98UEid/VzjECwFcY5x18M0Oc1lucLTehhLk3FGFq9oyq1gX+HRyJ1ljAexP6j5mj0ELvzDHSVdBTO+uudeLpdmi6BBaFVShSuVro2j7hHQSf1JTxKi+W7hBbRC3atwv6ZMuLfSP/W0630oMfnwlbAZ7tq7Ks5h5bx6L9vpEludtvrRDakKUDziPVMSsENBMtmzbHwQT3/mYsXc/G/iv2I9SV5PSfMXOjEvKcV2rBUcwShcX6bX8AKKwmfueRa6P4rdedmZ09akYyFqZbIpSki9I03sx/2unJS3ai0RJNo4HZImvkdkB+LmIF4sjhPg4XxVsOBFQ0uemgAMEuTyLeGY42+BxYWpTAfJCxpmKqm3/96/ydBz7jO1572Wz61CdKRHFnAGF2BDP8d3CLLwmhwNj71NuihGCPFHF8dF36/s8WCGM2j6NNe9rOzHqQyBujlP/G223plbfqrB9RNvZ0Y1rm9H71+MyPyIUBMJz70DKvv8HoKCJO/NNflD85pYelRA3TZ2w3QKJrtMF4ZU0Sw7I2gYagjaidPw5QH0sL+Vk8iWsHifcXE+CovHRwrJHrAurJwhf7ryYhfgYA4yBX16KLxXfXuMhFK8SFGcMvtLhuHScrYJLSuhEy/n3KKR5ZTrfr2ph+cpAJcQSjxFHhFKb9HZxO3qbJTQbNSzqH7d9bTbv2sIYFz5yaIKzz5AyMhLing4boYp2PExFcj5UxiAOdP0xRpwTMvQXWHcWDHo3BWMwQ7UcJIHunGr6/W0kBp8A/iev7gUu0VDCToBw9OZ0N7kRY//GWQfhAa1yhWOWUmXY2VVs3/eI/3vXjr2g3lTrbr3RuZOM/igcbvU9z/FMVD6cNrksXiqDrm8V1q4aL+8qwuGlbx5hZZvv1ac2Q/WG5iBkqOPefMPf3tvZySpIKSYR/a8gvVU8+DB60CA9gZis93bOcWkM4uM2D6XaEGHHs2R4zg4ML4xf0aKqL039wDpkiTup7J2cQopPs4+zCPM+2IZQXFSw3smvtCu9dYvtOzG5I//zLyXQZR2JtNqzjsn4SmME++AWezFhESWIb5QPA3nhzIs3ezIwHa0CmfRm6kXnm07/58kCs68H1fImUC10xhuJ2ppcilzTmp7ywhTed7WvGZYsIEWkUhFETXdbf25X9GcId3oJMOAFOajaWRtwvG8iNqruYXX/5c0SUgQ83ObJJW4cgBW+Ib6+XYPSq8LS1ZJVZk9aRDmjVvdsmzxgNeveF/HrrYqlF5pOPO1SccPEGfQWlgsP9l9fS7bd0pXt+OZ1mQjbQiVE5CiovTBMk/R/vm03/y6UcL6XNlVmjHquhD1rweSQhKcymbnGzDyxbgIQrhGSrnCwYl1oSQEtYMrsKmm9MN2GsETCaxkSHWgNAy0w2sPegh6OV9E6KGI1hTs2lZ+0Ccx7K+aNPzadLNnEWm4OTgSo+gYvyM+N27cV1ROsU1ng31I2M5TMIqdUAv4pnvidRrJWsq0g5nx1uG3DlRqP+5MdH0omTg+k3T3IIEELFTotpu5qTGZcXUBS07DszIhit2jfRcEJAMFt+l0gOh0471JldQKDdDPw5Bnedcj2FxHBSMjeTnZPTErBZEOW7RfvC1IspdvtgPV2+m/eZ9bgpeo6NVjWOjolYqYwel+UkvPxeYJyCZJy5ngJvNs1P0DjPYmD4WwmZ/8e3UPCTVMAZP7i5EEyDDR7R7mAZwDc8yonvM6WIJhJv5Jdb8LTeLYpoPVu6K/4xuTB7rKMZnh6mT5i50UpgaOlz/Mr4WfVyC7yhAXuBcngcMyzK0Zx47Cjf+xjYvK/JBs4YszGHvLHpR8bkfKW0GcbbydlB8/MwdyKGVyCWMm7uUSA5AmmtbyEQrc6YrV7tWfOU9yI4Aheic2ggz5JtW2ZA0hrK40kMpiiFGkOzWZPyoJFOHR54rw3HA/uxEbYxa8sp6o0aBWfpfn4qO3aORt2cqqsS0N2NlyVtGscR58TR9lTVmcP1OQrPzhrOn3I5xfgt6iq+z6yn9cS2+i4M2dMaxjGdOtPqG2RLxXG9ZakDGGNbAG2tYkrfuQ0YEIi2LfYOQsuBtKKy+OahVigsJGHiTkbKJz9VWb5d0tPhLEomb0GZeVMgFMksHmY2R1jAE6dZ///dqfSzh7vSyCTBKHS5ZDuP41LaF/b3TvWlZ1+eSnd+pCc8iqOi1p+hPoyfhm+ibWEhog3O3I68y0kboxgm3bKBGTv3K+OQ9/TL6UJJKnC6vLwzrwE4Uh6r4h/SY50Syw84arIgF+Z4xrrrlhU8mIcGXNJqpNOT9LI01aKBiUlC3gHneva1ZiXfGS62E3DUDn9qw3ThjLgZmqaV5j7w9Qx/hiT+cq+ArLhbxiZvFCn7TeQZ41YLlm+HIyfELp8p3rPc4tp3lCv2VXaw40Qd+v3jH06cNlJNz78F74J/5ZFBPfSfR3O9iHXgp/dOpm/exdY7HJVKRoZ3CeFciaqUXwV+XEcUnoCh9a5483mR7IE1k51SvIiHDo1AQ0Ydc8tEFlp0AgWtZyq9aSOr5zQjiHeN0urY8p96hs28R5S4IBA9RRjU7nSsUQDpyq2Zye0XroNERBTL/AMmtQ0Hl2fZ9ZbWpc/f2mSzLvtxWKuQiOy4tZJ3RWJ8WhlivYe3yuyFcu+Q3l4LzAY9qy2vBTmjYr2PgaL26/KaCiZZSf5Z/mkVuuor1+mMD0bHQPnQBwhKzfLi7HhbGmdT9DynmbcxeByEmsJ1NLANQJM/9KGmP6uSMHI5dAndqyKkYqkw9Hd0ufcKsFqwFD+LbzM4yx8ilpasIKs8WahNcCzP8AharoNgWcp1L7ux1mVIMwYEwmyGQMJvvOWZcOILpLWGmDB4eTYGvgHnpjjXMPpSIcXWChD+8ousebOdIdpPPa5xziGAj56YQgDXOKEExyjCuHUy46zhsDSPq3ooScE+qdVREwhoIY0fYtmZnkxYJmamMvWphWYckgOpu3Wz6+UCnnGbcVHi6Cj6y8HO/Qrv5aUjfqE46YRTx329oQ95vLD83SjJ0rxYlWROjl3X8bqYLXNSAQYKNL+0nv1+Q+sRGESX0TNUxcFWXGyK9wHBANXDpxpsLyBEHW78Q4Od7FFMHB00HBF6oFyqoC5w0c1JDzu3yaChUxMD0lbIpFZ8eMdg4LH1hBlzkAb5ghJ4Ia8dMpND8McGftHkhzyau3Uuc6a3k32ln+fki69+iVNoCP7hWrKi01msloXu5hiFNtIrr3OiB7xpdeply0c/Z6I5M2JQU6+WG4MrEB7tvekIVtHAshFrlD6x+Ohr2gPQ5/oIS8BD2TU8YKcJzzgTfhbwFCxy4ZUMXNmKzgVguDNgwwYCbeebiyCfPF1O774D4p0Ry+jI61hoi3VoY5KCtdiTULyScZ6xJuaWfQLh/F72rTXAXSI6rkn3bassgEWp7/ed+RnvMyDaUR42DdbSZ+8iAItWBP6FaTbM/FozmCFS2a8fqRHIHQ92fAfa6oWlbe1aLD+Ui5bZMbxNHXygYzVPWl1CdNvqm/k3zA3Ki4+dSg+HtsyVwiu86xh0PZ2z6crdABlan1L+zKQLtKcDPPV7PMKIH+/5xq4HaOJrZ19OrLvA8LK3EiX4f62Czix68Y6CNlq8eGf1RSaOAFBC8UPyrwNDebGdw06/9cV6Guwi+gIRn3XYrDqljVyt7xCW+V3fX0wOMp75DsZg3lBAuX7IjI6ZYzgowfA0JbuR1+c2tA0EZwJZWWZUE4WHiAZvbrjnyB/29dTxuNswNJ8+xnaPWQJlT4NLVtRiXGnp09HGWYqCIDsdOChoMp9gAyDXQ0b9XXyMLRvrPTL1ED4K4NwPy78Df9xf/PYS0/iW9aypEChdgtGsgg7PeW719PwLxv2kbLw4rVtlwCoMVVUwjmXjjcLoDZ63s84QXmrwzMPvEVdzGMWJeuOQ4eg/ZzbOh9j/RLzNKaKWwO9hEA5UK6gTQB5Ni+lE7G1zGwMb1q3z5Tf5vIUmDkN2c/HJ4bl0lBNSOtp62CjO1gn2Vs+isM0BYnj8wek6m248pm2acGLDPrQBro0RUHzKKCMJuGVSkS/gpS+ckQKTQSa2ryOKB3twFQX2uwcp6816cqycDh0ReMx7fNWAM/BkU8gs3VToV0JqIji5Rx+ppTfcMA9zMq+fEsqYgSpUuPKYyF0ljjXBydxmKWvCxVt+r9uAs1DsLwzRHpnt7yJZTpQVN/MD4dP/QbhKKHuEbQiF4xQCcZRAA10EaxjidJBuZiM+/fXTCJuDveSiD3GyqjDlajDbMd5lv5M/FALpqUKovNbyEUeW4ZghksiLlR48+UFhwOKiQCrA8YR6vVcVgCvoyLaKQ4sgWa6fCkj48JWsV3LYrkq6sZP1TPYw5jmFBVrh6RF8I9TCVqVuhPKWbZj28OZ0UlAT4bRqgvH44iHHPu57o8RLnsQiEZ4iPLYNwG6M1hhXojDQSAXc88QXP0xDgnaNXjRjODwnQwiCBmOrjG/AAnThCrb0rTOMliYV2S7q3M7pKhWO6Wq4nkyLxc0stvjHnyO6lPSiELHaGBfgjuuIZETHLo5HyjYgveNGxV0lSaN27kFGmn3tB34YtEaeCtaMyEMd0kj0CcThzNFaDLAuhuwXUeDH3yZuUTbwchP1DFqlTQBz9ZWl9Nnb4JlsHlX1cMavUKzTNgX78HRP+t6POfh9jBZRiH4D4UAE7Iw6yrFkeCbl5gDp0ABafiwFUnnw2kUohGTthDp1tmQFrRStyb/19HNgKNQ038U+EyLV3/eb2dCsc51F8/P7bayhzYHE3704nz5wbT/rknjJUXMAKzZpTDGIiyov/HtlnWu/n/MULQsceosLwVBL3b+nPd10Uy098AR2bcxuetEummaicWbM71hHUVbxLWNfnhbvk9MnS7/NpcJxfkmjmGaoGuuKRlq5fq9esBKuplOIjsKdzWeNPJdt4ZYfn9afaGfxmB9Ls5ec2edLUK5si0/OSLSXLdTE55QZcrzSMc6RA2eiQUeap14YTldfMZR27eQ8QasAVkuVMUpHq1NseeC+QqSB5BmeqKRHnhzBicKN6Wi80RoL4SraxG0Y8NhplATWsvqIiyujR4RwfFBKm4dm0rtH+4DJrRYQHTOCGsR2/y+HOfJnCCHDQK90En+UdmBicrP0guvMclHgCHTwd6aK1yDrfKwaxLaCUY5uf/YQWShPkWdmB2UHpzzsg763bGBw0sAWG+I5ygvaST/xYjey/WBCxqdEow9NNTjiPb+YSeu/0c8pJHXO1EN4UrkDP+KwhrICvWC+EipZoKeUKJw1ITawcoxwUv1b73SlCTirveKewCahVDpYT9y3k1icRNfJm6aBBiFjrIGmgi3gcAzaBluyRJd2kZ/ir0/iAGqEWeRFUE1jxjPQvFp/DzTgQcH6G3jQ7dMvVtMvH8U5D+WwsqBiAqsDdGeJN1zF+jNc1nGXU/62343K9M4xlB6Eg2c9hvMTdXtuoPFn12MpGSDOaUKwBYBKTsuJQd0qzi/gEGeuI0qTMnXO08bfge0cHJmXey6/FuutPJ9nb22eURRw5fKcGGzdzOkmZSIJUWkon8GM8bznmKQDO+bTh65DsHAChCe7aObt7NazFPP/gpFslpL0TVX8RRKiqNRnKul3b7H+SxjDOjQ4T9/pwVyq9KV9+Mds3grmaQCoC3zZD0KnwrvnUk5beYqScORrahpmbCywZnrwLc4zfDKlj9/Cc/I1GXOBoqjZ2hHmcW2p0pNr7ih8jAkVuXH2b776JtvtJhwX4MX1QMa2jnHb1+P4t7sDJSjTb4ZGygGn9EHQBn/yfWtaI7VuLlAv+imJbRooerfe3JWef7vGaT1EIsKBKNGWKjhyLMjxXn9rNj30aGIvejV1Qn+mJsth0pwC1iAm0nKYdFu05e8AapHW4rWz/smlnvXxygdZ2tJUkKwUDu0cILZt5ngnGMvkwcK4sBIN/jKMz7ucdPDAo/PpT7+F40OFDaMU4KxGmNfG3Mr63/+XZLJWWgnLGTmWv0ZWrGjpU7dzzuSRtvTSWxCODFxqMbW+4pXl7+Wnf9C/GBSDKBp4iW3tH0k3XzsAI5KgJVgIOa6WgLKPChpwVugoKu5FruI3RcRv3497i7+ixLX/tBARD7mmD4n8lvbuYU31OGbJ8LJlJsR687GRdk78Hkvf+RrCpw8zddRBv6MoORAjWWWrSNykGXyaJdlcDbN4+LdT6bnX2cqBRHUYhzlKbuZvmSB9Ix4MrD09Xk2nj5aIfcm6CxuCe7ur6aYDBNA+xvoWgyaOCoIReS7ga2/0ph//YiJ98XPdafNGZl0IisasZrBMj4IUQhwmkYFDBWHG0GQmcORkV/rne1J69agWAf8LvEwWx5Cuk+k/fHV92kF0HY64y2OxBa+MzTXLG/cTPPskBztzgomDPY+BrnTw2Hz64QP19MWP4wS0zi0XME+sMj63CKsRLlOLlUGbeDbDCI8Od6SfPjiSXnqNfaEzfcweYNAwGttsKLQ/+6NZ2okWThsUFK7TCnVeMpF9tUr2ZkHvXIa3pfeixkxnZQ58dnburGqGrUCG3BscAD+sZznzkUGPcn7m716pp58+PJGOjxkWkC0ntMNDhl1J3dI9T4B5ncOKFllHTlpcXj3USH/3/al0csbDm6mIprh+a5yoHnD40Rs70xfupG0ID83VYl9lYLEZAbN8h/K5znLTPGz/YX1xfBzNpNkHHcrYgZts4kBlrYezFPW9WZ1UrK7Y00jbiax9CPOz0a4kkib7iUfHe9IvcBwZINrTgR0KNFZMWR+cgf47cE/1yLGYsQVurdMVeR0zWIsHP/c/MpvufcRg8QaEhwYZAw36tlIaTd/8ZCVt3DbAGzwRXcXAtmHAvGsnIfGGOtL4EZrqNFulETofm+5P9zzIlgqCFdxyw0I4o7lMUsyq4vVi/EPnFh1hARmD4zgoPPT0JGt6+FlPDoaVEH/moGfPnvzE9e+m7bv2cuqGwtqxlXEvRHlpQ8VhSTBy+6xJIZxzAgEScj2HIXztzvb0Xw4z1jg02f7RalCn8fKF2cZg+tWjRA+7upauQ+GTOAw7CSWGoudkodhNITyLQvGsEJz5oPyf/uNf/uWZt892R9TlikLLA8mei1bF5rzi1qQAAEAASURBVHWSkxneeBOJvlpjI3+ctwXyNPhN4V20D8cHD9AEb6To6fgqGLd3LyhRRPHu6u/3K6dgBy0IIqsDwz1oPZ3V9Nprk0S7MPxR0cHLc75fyf/yZ9YUqGl96+4/D67bcbH+zEc60g1XQjCMZuiXDiky0yIJ3cEnTiwChDgr9LOIm+J3614wwqgwl7OYzzLW+JhrKWUsxrFb6L8vvjaBezWwSey87J7B4dFaOnqIcyq3dHMqBGYoNGjj2Dopi2oFt1W/BC77mmTW9uCvcNp6DNdzTGyh29tOPrJHh0EMCIho765m2rcbJzD2dHYyG/A0i3GOdlogxNpWGNWzL02j/TJjgbEoWOEbmKM7w8lmCrNVXxenAyBcCfrFc5lkZpRNcK6nZtbTh9kC05OefqGa7n6QkFonOLmeTfRu0XBfHuKA9rKuxsHcn751ENd6WhHv5jbaPtdv7Z8BlIiXXp9I46ydZgUBszoCuYl398kT7Ns6MpsGmN31EaTcgNV6FuKmFa22a2XuuG8FM59G+XjlUInQYzN4OvcRV5WZNsJnjhipni7jmY2bNkMztw6g3cv8RLQ4gKbBRROJ8dTvCTB+mnKBPxLAui5dRiDduJ/YvgMwdgUF+X27iRn2BCbTUbYDVQiCiuMuYfFYa0PWHDpS4tSLBZSOcU6670yncb9vsp6YAyZ4WDHewjC4T38Yk+aNCAdgPCORf5iIMw8/zTaKWaxN8N1pDjaega5mCGk2Ng2OTszQLuKoboYaPJxX7+MzCuK2ne0T2iaMM5hyH/hNKf3uVY9WA+9hScgKmj4AhpK76apyuv5qlj1WAScX6GcCMzq+kF47BEUy/uzjtsooNbDOT8zSl1/FEY3AAIMoau1do7zBeiVCdA7bXokZp2V4fJsm8xmCy7/OMWTfw9vy54/rnMQ+SgR1nVlZDTMrBkQEfzl95raBtAnTrwoAlElbtJbkca0S6axNen7lTWgxJLzQYLmp4OE525EOoqDMQw+bN+HLgdBfYOautQlRBhzA4joedc0jHI3lPMxpHvfcV8ZDlEAbKDlSdx08zWGVqEMD1Y6RdMdNPZxS495LxpQlxQC23oX0Jksfz7yIFWSZYFS5s54DeypsP8pLV1YfFMV9baqO6zgvFcYw1N+kzzlSC2/ieb3HeRo8he8FzMiz8Idxoulfdw2etRW0MNbPdVrTgTObTRW2y5LwBYzL7p3lUtwGbs7y/Ky3HRxKYTUDNeyu6mS69qqB9Kvf1NIwRJM1kqXX66gpvewdm4dRHR/nBOz7JtP//C2P5JGBmk8NiiTy/n9OglCF2Vx15Wy64+MDwAoxyMEjieoAuPX7D/+VZ+ngGrOZM9dLGHAfvLo/iFXnjqAXOrLo8+L4I3/bwULL2InnkcfrZWDn9/Kd4v4KglqWd81LmSXM17WIXTu60qWXtqXnXnKbvH2qExMMn9iKvz/aTIf/oZauwd36+qtT2ratFqeX6zYtCWu6msYz5PCpSnr37fb0/KsT6dBxRBXrN6yiQmfmYyM0Mx7L1UQWBx7L3FUQYHg18OPxN0Mb8YpkpjHCDLINE9/u3Qvp+O8VPjAwTNFq5E02J09i4n/kOQYxMVLdj7tvdy+WD+JoYursIGxcHVO6kXdGhmfTGycJS/YW5r33WHtkwHZg6poNO3TGln972+fTp2/m8GPOjFvAdOgsxSlI8Gax3kLsxkEG9NUb09HfIuCYeimMDfZdwSFI4fQGRzH91X9rpkt3OQvvZK9YndMSYEh4bOmRPIst0rYdP7GQXj3I4djHUB5m0QgopoTZyRlcBCmgfd2s7X7gwACOMMxAXXjB+QLdAzyyqgb9SCNrJmD1WXt7T0RNmkHQ9/W200ez6Sh9dN/DY+kYs6R5mOw8grIxjVBGS5tE+hg7meikgMOSCf2mEuM6UM0FLYT2Zdu70l0fZ83WSFYy8lWpinDfvpnTQ9j/exolpwLcDYSf673OAPVSPEl9f8sRRSPDXQjv3rR+iHG7BjcLlCPgFUJvH8Zc+fvp9KvfcewZiplNLyOEE6fSO9NViBH5Le29HGYLfah4LU+W5RmFN1zfln79TBdORkYdwnw3vyHedo/yYY5f+y/fb0v7fr+QDly6nm1a0BOwdTLl0bStCdx92ofwjH4JenrlUI2tOtlSYX3CoCpmU4TvJsJpXrqN97nP/BFaymPaZ2QmD6ZlrHceDXX/09TPWaAJgajXqtuGnGVPQot338sMnrXevZdVoaluFMYFlDh6iPEyi7YyPtOJV34pvfr6GEdcseaOF/gUsXdVKCr0hyRqVJoqfbxnU1/60I1sEwEXrgLK76UnujiSjlirZUB+4t9WpqUb0D1ry6B6nq0kC9bFPydbn7itmg4da0tPPMt+ZvqjUw97KnHfbR2T8SsvbcCilNIdt3CIM+NMB1vHj3XHbDWQtKyiNS5FYyB61TNsKg6WFpZXPTz7zygunACk6zon7126pZGuubyUHoMg6pgH3IogM9fMYJSFOh0Qmj5a2XOvdKYHHp9Pt99OEGmkvy7EsWBLw0ywyfhukUBcv9+fokOW57FJMYVefvMc1+LRWawo6WKt6JaPpPTmwZn09OucdEDw4iZBjMtoToZFckCQ87xwF6Rgwb6xVmcJLP9tOaPUXFyBDDiYwlBmqPa/DhPS5z7Wz6kmDDAEgbh3BhLvkc+iZUNeOGs0MkvgsPUs1+0dtU/fWzu9z6PF9ubmCC8fPEc1M/Wyaf7Tt/SkE8fYM0Z8SNd1GgA4r1MADHKUI6YefX4qPfYy5iqO+lk3wMxR91eS52pOsXn5JB5+DZyJyqzJqMW2MQDUBI0uk8OwwfSjla694datCHZfrGHtwKMCUrx0wHS3bkb4EeT7wwRZOHJ4NL17YpBnzAoUWtSpGVIhMUEg6+cPLqQX38qBBTrgStmLHdhZt3V/Lf49vAeTcIGM+mVxXZhCZ1iXbGJaGmyvp0/cuCHddgPQQe/OjKIrcg/wYylVFgbS7R9p4MXIjPjJdWm+OsJaoWspMAaZCgxwhg3/LwDPC28ziwVHVU+GUBDD6LQSNPBW5DLM1Qo8twmIp3nwVlkYZjyhzcMsPE/xUx9EQUDZEx4/9r2CM2hd+JyV0n9xTFqYFvkZNIRg5PzSofUIRA4EGB6eRvjAuBBwL73bzswC+kIIO2DyaxQMTMbvrdDvTfuFsksIY2d1VWjgctbh/uRbzJqH8KAW+fxfnTTnrcOp79arOpkZNtKxRi114XHtFidx3wa9aVw+ebo9/e2PGuluvFs3bGTdC8emoUHWgXFWdMy4l3GYyeTkVHs6TYCB46fm2aYC/Hj5hScsM1c3wce5mB5rgev/3t0ob5erHFPDKticHRkBaTfK05c/OZ6+d3c/TkxE0nG2j5CoI2TrzNRmcJZ57tVKeuE1TZ/AgzVCJ0OHuY6LnnQyS/9FgG/60tm0I7UdGBrgSmFV4tix7ZsG0jduYxM+XTevSR0kR7hG6MOxnpGnUGJnAM54X/t0e/q77zLj42AETx+Rp/qew8e63z6N0jncTL8ibGUVW7Gnj/hcfUkFUGeVBlt3GtCh1gRxnLcOodhAPyqlWzbMp29/zhNMBICx1gLD8R19SRe5ROaP4DdUXmyjAVL6xZauTPMqTDxx3Ng+M3i81SYOEv/6nZV08r16en0UD114ctVZPf3aYA/mOCdx3PPQZDqwfwMn2cAnoi2uo8oLV9eyss5zPV9Dx1pZwPv9CtMLBCRSutFmb/sQDOYNIsjgYQdkAAq2tT0XQoEWK6yM0fmzX88SZWSQTbrMLECCXnzZsSBQ2qr2/Rv3frBd7LMFNHfYNkTBQaaYRO78eE965+QY2w7WQfjOgvR+C3I4ZxUF8qMVrY46H2EdigHEqRaVUYenJBcf5pTxfXsw7UJEErvlRrH88TtXUVzL8Lwmr7QWeTI+899zgv/+GaIQK81qDF9exizntlt6092/mEMLRZi1v4eWiVnHhwoUBmsTs6ZbBSfx4BM2+b2KlOHMVJ8UXsb/zHNJGRQDnfv5w+ZsFC4ViHjXWU+8m8EVB95HzvKHaCH99XQFB7Z+gUN8v/eDyXSMKCVNTC9hBqOfS5Sllu47VIS5FEEoo/dGq7CoGcGsabXujFUPOL7rsX0CbR5nixv3VdPtt0EdLXLPfZFhWv2Xcc0BsM10121lZjwn00tvbEzz7ZjdaEswItvEv+AvDg8417zuiiRxEO0GJ9JSmU3fwq+pXW2aotMsQcSrCPBLtx1L3/zaltTb22pLlHDmn4JORUGRLDvWH5HC1tdL2JUe1mztq9McE8ZmXCZ/WQnw9IYcjFq5LU3YBwhH8KkCqUOVIc/27xlPf/wl1l/xRyjTx5ragz/4wrKkQDIw+0c+2plef28hPfa7dVgDUKLMQ3llmD4lxrsNZn6TYwSfx5p2yOKcxfDJG7ehE2Y9Ko+SA2oNddJHKE/yX2eJCvXoXxSJrQOj6atf6MArGZsw8K6EigIU8ijynfCBWz7UjwfuVPrJQz1pGqHfoM8qnB/YRag5lzwsmv+UjVKl0seeTvFs/dYoz1PlDQEep6pomdJcPpI6akOc+lEBFpyx1iu4HSOOZRrCtTQQNyk7UMg9g6188Gr2M35yJv3wXvZKE/YuzPzgLXAFMbntR5gixinKwSzusBESUaBImfYQiDG+HNcKMVRPFGwoM60HJ1+9q5z2YV633gDGr1Upw2rLrc3kNSl4QOs632n9jUatuNNkj2IZZWjX1pS++c3p9Nd/05mOsFneMHJIR4pGqoPDUyeG0r2/qKX//tvdOL6JDxWcoJQV5RU/Clovfp/tu/wX/+kv/jI3MCPnbBnXul8sXPt+BYeLHkK+HTyS0rGT2Kvl6jAPp/PRkRRg1wSOwOokA7c2UklXXoUWiruiWrLMwLTIxC8cpHjfP2uhf/Hh4sWZFehJGCdGA7f60Hrczhcg9LcP4sXH7MVZ8CIjpZwM85nlWIUMJT6L9Z3tgvdbRWQcOYBkJjIlTInMIg7gJv75T2F77zauK4NKrZKB4liRWcX+QweP15Tlvaw50R6LX/YRilZ1ZwPofe7nN4vyzKiQtkSflGFK2zAfDTABOvIeDjTEjnVvn1JeIZSJFuKGyXiKvUKwgRaIyImPwtDe0+RUYWbXjhZYYZuFe9gWYDxRCQMsM0a3wTTTlXsWMINmpu3zRdgYJOq9FVwRDUSxeSNHFB1HMWPW0MTLdUFlDDg8dUDYbUFuhfQIJDCM+PYucIapP9qgh2MemAMsT32McIef/QQROUIAWX/GEUWumcKMieNGHwN8527O9ETAnDpJn8LEsymJuqHDwMViUflCTT6glbCAzj2yeuoVsTiZC7CONMM6ziQziI1pF45xqNi0IDppJTy2D6b31HPNdAxzHsVBd/wBfoV0G8rZbR9qZ12NvoMWy9iG2/icxFz46LM1tgIIobSqFyrvIiCl2SY4XdDsS9+1o1BswpLwgWvH0jc+vw4zKjMjFUwYm6e+tFq1DC7aRF+XMQMbTWnHVrwtZ2bSEWY688woFrAMiBn7SeFmu0LQUK8GfdfvPOXFszX1vPUYsPmAT4VGSxa/uRdrrNFPmGqB55Jt0+nffaOb2SLjXsHmQBK45R9oyfrADM4582k3ntY66x090g4/c18fXrfgX9rMNCiU0pDF5Flhplzx5jIDSQbPO+GIhiLnaudl26bS1z/fTx9iwUDTirEsOPZLFJyv8xjnBfuGdndCx9u24xmMEnPkCK49zFznaUczPIh1IkRQRZt5hxTKT4YirrkDfhmTcWA2XA4A5SUV+vWSjSl956vzWF9wJsKsbrsoLMop/kgDBm1/69gCQRI4rxaFIOcAA/SJM/NYY9zrjDaDEuXEdattrcIcB3F8GGJkYJDZIE5JBw/Tn/CAhpYwxzZlalofgzaGNrD3mFOGqiBFXOd6C8gypHFvWfuXnp55VUYu/mX03BlFnZl59R2HWgxfaozI6wi4NswGb71BvMkZvE4hOMkiI7H1dgtivVRHGIzteKftIPpFV/Ty6hou/rfEuIQOK21VHPeLP2vdg9Jbyc3RevFtwhHixMgcAdHdK8fzYKS5huhhKSL/L16N76XOX3F7jR/LX1Y0ymwcXgxCphfre4fTVz7Tmy7dqmekxAu1YAZyo7FoC9Q5cLy2KK/9Dg0tf/vb3opPVBc3VsByLoaeM698z771jiiwYs1gnQCxfXOZYAl1Ts1gfYdoPBG4IWxTDhCZFDMgzDbZosBAUYEKJQqmhUrSzgDd2D+brr28Ld36oR423ePJyfpeA8YYWqOerzADj7W64YrEGXtZMK6ATm0ZQQZUbMmosw7VYB0U5soGxXlns84mQImM2JRbslRCtClwRh7YLti1Z8JLspfyLsHz9M5PzKVPfnSQ9VKeuqeQNqxMS+XlPrEe1+aBCnx1cR6g7vbuU5ydGMUUrAMbqInaChrLJQpfRD6xg1GWLCfmO9CDa7Xd7ZzLubGRbr2pmT5/5yDXWQ3R5LwExRJ0lqeAcH/xGYIR9q/zzW2YYQeIjiNtuPdV6N2n99Tz7Zh7UTrMh6lXRSEEBvl6iA6zjlN3dmxye9Z4+sLtPemuj+JAwuG5CtdwgAKXGeNrQKbiI3741907l/YSqq8Dk+7MqNsa6DP2LjK3h+dkF30VcIVzmX6U+eePvEdLgLA5ZhE+McuAfsCXcHcj3Dbh5HHjVV3pj77cmQ7sxXMWgRprvjDfTNRL+CooJHM0Dz5upst3TRDgBC9OQl7O4Wikad96TbYz05RFOa6XFQmsWiXEmQp4JwqlpsPr9ralL3+2F1hqhFxDkYyx3CoFVGUaAoK45r7f1BdbNLhyy8zunZW0eUszjeMaPDWFh7JwcOoKTwGgRVPCx8sqJzl5X8EJb/GQdYS14Qs34Ih43SVd6etfakvXH8DYzBpDvEcOa16RaKPi/+3jJRzeUEBjY7qw03aLh56uZI3zGpwvVeRNmedEI+L30h/bpvIAzRCcYseuEvFwUeCO48wUJgUcv+jXNszXM/gCnD41w9owkdU44TrKFjGtFHVkhBW3zvndGsVLhZzzjeUZIDpxo5nMtSSZ+YHLCcR8aRebZBnoPqRxOkmY0X9FqsCUxtkQ/qOf9qc+7Ol3fBQS0b0tUmCxyHpR39Ykc5Eal+HovMpybcQOyYy6xJoejjh3dabXjlXSeyfYjIrZRS0tWiOoVgLx8T/SUivz7/P6WzQ5yoPd0eFq7Z5peAdejpftG4OZchgxuMztyUKx6O94rdXY4p44XwsBMWAvFCnv0wgj/Rj/1r1Zauy1KgSNB96Nl3Wl/bun0yuHS+mBZzvSOwQJnmS2saAHIUytVGGRTQgz8LldzJA9cWEHgvUzHy+nKy7hpHoY4SXHetLLL4+lkxwwLR15GoorfQMITBUrlNrFfi7KSzjuSKKucxtBRjgPMIPa9fW29B4hvJ59oZZeeBWP6hEM56zp+Z7bE2LvavRpQBdo9ET7MjO8XrxOnYUduLQXgcw5mH240bupHiY2Hwe4BtVRVm6UM9YiFSgvs/naEyHUfC13I9OEz901nj5w01D6LQ4SL71J0IERtH0WKhV8mlQtNdMV7eZCRqupvBslTRPnFjwOr9nfHXsD1/cR1YX8WhUanOm40GBbQgHEsu9MJ0tPZPhnZrQdOY9NUsTu3HQ63fGx9em1w5MoCWzBgUY7UXA76fNeDoLesG4h7drWlTYPEEKtC4sHneNpH3EWJB3ijNKOCQEC/EX5GTTrwuRZtc+02nQQFzWlPyIW6a3X19Mzr0ylF57rT4ePEpR8dpqQgayrhsOG605iqyWUKMbrdk3BKj4IHpAdcGzEw2b3ls50xaVt6YarWYtmu44OLE3GtWbuHCFG3K9McYe+DjyRVwpM7QPpJpzJ9u6tp5eZEDz+RGd6+TgRhgi5ZzhGC1EkCkOUl1HJuyozxvNlDZeIL5ft6U0fu7oj7do1xSwUIc84b1btR6MhtWiId+N1v+PCvgFecKj3ck1lGVz0UNHN+9rSgV3r05OvT6dnnofeD/XjYYp6h+Klo1vQOnC5Bgqj4SqX6TmXXSgMgxuIHbynmT5ybQ9e3xMoEW5tQYSbMTJb8+qU4enszJFs2qL98kkEJpFylMEeDJHpjmJydgpZvFgq0CWtmladAA+P88n01S9W2CVQSc8cRP1wHRULQhsB1evIkbePdKX7fjGdvvPHeJkT9tCUhe5SkRdyVWIPnL22+M4SsIu3LuhChvAMi87/Nx6I740hdxUgmtEsxT7IVxAMwwLbepn1mc0Dw+nrX+zFeQFiAHlu5C47M1uWLhQu19JfO4lmOdOTNhJho29IcmYuEn3AILIeEjSRU1z4YwkXrSehcaEPpt880ZG++1M8tqZ0/Yf5O3PE3BevOPha715Yh0jMkEYQp0qECgboAZQOhM3HbphP3yCMVWykhbIsOwYFeTTIBJG1AM2aUdEgoImMEn2+t9Qyr5Z+Fe30u2Doy++d87pFP2u9GzXzZxqPvNFxT0JYiCg2w0QXGSWIuicT6CRRQeh4msZGTJ7bWIPavpWtD2irVZDjOZOj7DG8/xEOqz0o5g0ujoNGX5Ujt8po/OCq1Z+5DRnibEoGTwgQ6cd4ieK3SK6hTeC9OsypDydONlHmPE0ehjuBVuqSHqOyojcme/RwxEsbNddsYnM5wbc5GUu2eNYkLlbTgd3xfnTs2rXB3yfZ0nT6VD2dGGMNhRB1enqPsB2qhmmMEjhRoYx5E5iIPbxlqIyJmBishGbs7VBjJ8cSUWdaWRNKEOJgI+9//q81HMzU9X3XmTG3GX/tHNH0H//H7rSTCELiUkburNE9ftKnZ2QGFdEwTayL4e/OQltR8EX9oTIVbAUmMHs01Onxejo21kwncM4xKtJpnDM8xm2OqCMGH4lxwZ92nIU8M3YTx1Sth7bW45xzCYrNAH3YxTqvs1LbsISziwIwXrLPa+yEP8rs8diJWjqG9+4peOAYdD+Ho5LONtF/eDyvI1TeBmDZwrLD1k0u2UDTzuyBOWAnZ/4Gx3EvML0COJ+fLUkCtknTdo2Z/enTbJkabgdXc+CK7UxTHDbAWY6anZGnEc913WAFOCppO/S0EbiMw1rlfZ2+KO6cyTpdIjk13p5+/tBUeuZl97oyPWJtsvP/a+/Nnmx5jvu+nn25y2/FQhIQCJASqIAl0BIFExJDpEzZkmxKtqWwI+wHM0J+9r/g/8GvfqHtCMumrAeGRIUlhyWHRS8hCqZEUiRhABSAH0Ri/S13neXMmfH3k1nZXd1d3afPMnNn7u/WvXO6uiorMysrq7L2lrH/EU11/uWffVs3palFoiKMZaBAjbOZ7z45qP7pb87UeaS+Ko86H3shHndkIP/Yp59Vv/DzHG1xORZQTA7auGHklofHOmv0q//kg+rv/YNjnQzTCEdndrrOvt6hhp8vS2j0rwp+Wv3N//yw+tyPv2eLz9RZKmrUsbEGpYubSvvb33xW/dLfPqieaFfiw9eeVT/+Ke0y/cn96tM/NtfnsjhXpVGfofcephMqaZoUFRBNCz8T4l/5h5fVP/zH2u6tnrg0T1Nb6rWwMw9Gk3FsyruED6ptx/QYvVszYPKrbZTOzKrPfeKk+sX/7Fhf5WALt3qoFu5pza8UQSsa4XhvKKCt/OUOvsq8lYxbnrLoT4axGKdAo67ChKI1vipMdl/O1AHyi4dRZISsHWcaSW4r7zTTtjFGuJndudA6JOvWjBDoRVIedLdYceLgsz6ko0A5ZOQ+q3wuMw9BL5o4BxIbFgaPPjEpfvXCyJE1Rr8mT1vfRcNkCz8wYL30ZsIFvJbOMuu4DV4ROU1g8jIKv6Vlmpx/KL/g2GRiueNdWJhiRUpkn12z25zBEx92zhY6TEVLRkyPgsAa1Jq6giw0/aoVY7oS91//t6fqhftowDbMKWzMMPLpIlydl5RHqML35l0gDUkiDZWXNRChU9InSoktu8lxrINziXbdIcs6ZlyRoC4ckJ9DJSZNm/5ucEf6lZ5ilY7uXIrF0Qo2AUGR4ZLplLwXsux+uYm2AwnGrmeU4Oa60MHrsXSMJPqhZeA39EQvtSuF1ZHmUVp1dJiw9d2l2jRmdVUbyWSkqQ92zEKwgpBMtEormuqOil2mhFUvTTZtrENv2H2NuxWt9UXpoTYy6yiGWJDCMlrUhVTq1Ek+ZkGHsAyH8x1bZh2snEWJmVpkbZsiRe9I69rcc11pFiPaw2Fs4zH1sAzxWxmMwy+MpTHTNG/1F77wWvWVf6lty9+UoCWwrmMdiYaQQ9jsxvq2ela/9D+cVP/l33xDO1VVafXPpj9YG5ALJaAyLnSCOdHnZd79gQ7NarH9kS7U/YMf7Fe//tu6Su2zJ9qUcL/65BtSApXSJZpABUmNnTShg168aDF6SxfWHqoh/wtf3K/+8J0fVF/66lu2mnCpeXMaKNZYPCVNmyu2uO7gGnhVj8cSGwJ6seqt3X9S/fV//+3qY7rLydpJwZiiglJwyMNYt4RUnMR3h6S/+u/SRg8ikwQ+kK8s+JIt2VghsanqZmLWBWq8WBiVl2oFpxgDjjtQh8mV55VNEdosLwPKupFdY5ZgZmYpBQisP/w3pY8g4iI79VNyo2fNaGc3jSYpDtgxXCIOnzaOUji6DE+AakndnL3rJ3ASCM/8hSMu4nlGXB0GrMJpyDH6Jhg6CfIxUrNo/SjWnKPW4Xpi1MLZ+S0hhS/H7RABn5K14oCg4SaH+C2d/eSpkj89HLcEoQTud8x0IizQX9f+zXG38JqewwzTc+JdXloSnqwmm7Ay6ilnkr0MU92WMOWKZKV/qcwNQZau5DVcZHPMiRE2NIGdjSheYIy4lFA6hTGfiVNUDGNBMDrFH2uj5DvyLq+i+W27iG+HDr2Bge1ZoqH8MjpUi6JlDHSM2Zg07YhIqX9izIpSBpEgP3lA6kVO+ea+PTVWmjyo7mvkeF+f3brSVYqsARtV6u0iNCPxuijRZKPJIusG28d2JGM20Xn7TaUVjb7IRrCWo2rDWI5ePpR+GA3GR3Xm7j/4hZ3q+3/7qXaU+bb8HBtz4nZ/IT1xDKQy+O13j6v//m9V1X/6n5xVP/YJ3bbBYvkKmURx+IDm/YePdE2YmmEVFiOUZ7r770u/eb/69rdmOqD6rPq5n369el13V9rXQ3LmOn7WUNX5lNroaiatm/z1X3i7eu+XP9DHhl/XqAelZ0RMZUsOj2kvSjkhA6ly2pVnMrRvaBffL/4N7Sj8I2wP1836YDc0ql5RK/ReG0NRrsMbLoIbmDF/wFBfhxwwYUBJNQI6hKIXDh4qI40BDb5VUwu05sFC/UdKTk8bqrR0/Cn3fJCUhkUTJqb0KL61KTKSbOLiEmnWrBe6LEO1GOXxPHteLb8IHG4F7+VHvz1VPqPNZg81LFofNGeJ5DN4Dyr9Bk3icj/v5Mm0RY0HOYUbu4TZMisC+i8QOfGi1stJEm5mQaE0Cg2MJTB4h4yyt6DOj+VfYV7uDh8g+VvdzkMojzBg5y7SbfxpvZWcBn7KhfondvTq9cG1LOh7ww4sGsMISL/683Sk96zkmCNt7zkRiM090PEydSx+8QZHIERT1sl03FhCz/SHkZeem16QlyAOErmuvkT00JPOHjwwu+GbgLwNQTp0sF0e8WAHMQyj+IpFKAaDJ/EXHQiiclfz6icT4NY29MjgsoHnQkNGdtVbjhnegXcIV4634OeLLO5sPklebxWsDrCGbHjJWy29BL/8Y+e/Ssc1DJVJMvCuhhxF1HK4eveawnyLbfbH1Ze/oV4Si+AJtW/+wDCqj6eKbV+ekBDnurHhfc3H/+t35vo47JXmuDVK8LJSXhGui0KPcSfAvaOr6ne/qUO932OHFc0GC9raiqzeywea7//at46r97/7WOsOOqyqD5CyW46rwKzRCe20lNBUr4pCZYpP+bqvUdxbb+vC5m/oALnWvrwgxGhtcWjAKTRXSo+He/3x6Dk1hYyE1PN/oE0M/+G/p6+Ia93MbvIQv+qDOScpOQ0Zo0XYxJ//WW0o4LcgaANvTJj2Z5BEugt88b742aQdgrWbWFTJqSBMpdCIWaVVAkIZRdpIUp0Ym57WLALrzHyZhekZ0vFnekC+gVdFQMaMNkscEGZ5zSItTD8uO+vEi67KlsqLjtFIhUwtM5Svil9ly5oyG3jss1AY64QXXLgubg/136DXfdYw8ET2DI+4NlklmRghckKe7dd4IdaO7dCoSndJ69yCp/MP/Ibbn16T3AT/unalflub5ZBw6DCNG1NXP/cF7fR74P1ndlHSQeS7lG1svHf1SUGrOqGD+9qZl0YVx4vyKnJe82RiUrnZmr+lbPJuoyCDl6ZQhqZDjJYQNn+UN/oVkoNG2VEvprjgy6Rro3/ouo7adKrmHPln+q5fJL2jdpARpNW9jEjIIdebLHrYK1bh1inpSVY1GHH9lt8jFS6IlC+XgYw3I7AEgEzN3yin3g2xPQ0/tPiz+ogBRqaSsAKpm1zIQDvvJSZGDIEeS7pdHXHy43+0tUgZ48DyAfqAfF3yK6JvceOGMWXUMpcyWdf6FvjiF1DZUQNVVgzfpz+2Vb2vb+j8wb/mNkny80xHEHR9Fc4EKCW1ngR9KFRJi+iPjnXn5iO7XeGTuqqLKRNrWBXrkxSefOgXHtggwCXWv/e7oqvpVNvNieCsB8X89JWub5ppM8dpdW/vSLekSKyMAmT4moLzigQ+DyNO7CrgI29qfUtfIf3aV3UPou7ynLOLlC3jamBFXcqBsrtakz7+8kJDRdwp39o5yWTsX/5z96q/+DMyxZp6tEPmImaHloXAKpKeGBUzjJFcz0a5oYQLivHuofGblzV+d7UnAgyvVVYBBY06Mjw5KUPRx2OghoNc+B/tPRLmF1mYPHjlDx23PypXBEaEnvpv6d0rYDmiW395pEF04gMHcCKW/qyyC5H/8yQeJxyoUPrLaYU887BRf2InYGh3wpksyAdd95QfKyMLU3iESQm8w4E86+CyXwRyGJe2ugTS+X/2W/PqD7SRgfVKNx5sTlOnVEsEP/dv6bwl5xgRtkrCP9aMP3fw2fDaIpQTneg3PcthjVQEJLp6tYY3F0yAZM/AhYa5vkifVM5+TAFA18U8N11/6H83fPzdcUfXy2ElIxln1vasNEy/5TPVU502XlzrOIpl/4TGsjhOrBdLWtcI5JT+zJDQhkHY8XtC/KFD6JSXt+Nw+vBQ+jMyjsTJJb79Jf0m+g4LX9OccQi+9Gf1juTpL7zxXj+noe9DqVzCIaENO7GbWg620O9rtuk/+lkdOP6ML7yizAzP4SH/48165RrZscnggydvVX/n7x/pa9vaD3qpkacUyof609jlWqo/+RPz6nM/xq2NTFGIJqxlfyfawv+N94+rX/rVs+q/+5+1bf/7GqFocWtPOyh3dUE0I9+iIaaglLef+anz6q/+27pdhc08CrCsqbe1pY05zLNb/jJ60A5Hdqx3TkVhWlmbkD6uS6O/+EUuWeaMDj0g8a2eFmsDtiYLAWjHnxpGv90mQxwEXj3vlgQowu7fSA5cB1KaLpwZKSlY/uzCkBQQNNzWxFDINJKSotromKcxVUjcClJjKp3c1F8L9YZe6joTdWeJ54ZYaKEReStv+GLXNPX49jp040PgsvqXplL7mbYqEYD96Okh6pE+1Pe7Pqot39/VrSOPtI5oX7an15LrAoaF6QTW62Qo2C31XF2rd751Xp0+O64+ou+R7d3nY7FpWkdpUS5TsAI3dLaPDjQavHeoT/HoIt3znJgSKOG+HfDWt+RkyL+p7dX/3zeudFTgwo4NcBk1holNBUUaalWOFPfJP8LWfn2dQJ+pujjXuTmtOzEXbj0OeqZuHkUQ5aKfmPOR/DRMmjrc47zep3Q7/wO+Hq8Ro6ZRmShkU4gtmouRqOCFLNdBAZM/68gBD7BTXI5zOM00XBKfyTbH2efB5Q979V8faDDE1s1Svabhvg2uzkeep6K/Ke9cRrnc3bh1ckVgx9lUqwgHHoTJBd58X+9Lvz2r/pCva0g3vXOK3qrecl/pFw50uQL1QAg1G6KTIr68EXqc+I7XDtkX9lrn84VxUCKs1kBytC9gSGCMFM0eopb6Y8wWulFKfSNhBT28rrKNMhp6XhfdITmG7HkOGkYrqSEMY+Gcg6KgI1eqpNwd+PqDc92RqKuKvv2BzvYcpTFjA0YjyRrfti3aMu2hKQ+tCZ7qo51f+9Zu9a++qcPVuuroo9pUY+uOYzwk8mzeOdIHTX/jyzo/p12vVPfcbWlH7JY+i8QUxoVGiO+Jr9/5sm7M10jyRz7O+qZGsQM9OZt7V7odje4++xntWtRdll9/54nwHGkaiqMXmDSMv2gij/Qn1TcWTBnoKVIKGh2S/zN9meD3vix+f/e96gMZ2f174l/fuNvngLrg4q7EPA+b8ztfm8E3DRd5XuwmAY2isc4JxTBQlqOJryGSIu+7tm4Sb7rRB2yFgKqHjiWKjjPdycJIw3olOwZ/52u68lA3ijBT4+FSSR0V+eibs+pn/sx9HW9SqLEnrVYPrVljFBJFkabPBIEvzk2R3c1z1zGMyA7hpb9oG26eL+cDXmCl22ZdFz+3rYyazYwTDKMJyiRDzWjeBoWFdK3FC1itY8hQYKRee6Db2X/oWKMr3bf4WCM/7cBk8dQ34cirYZ76rErPeEuLtnblE/f9nevg9Vb15a/oK+XvP9ZXwo+qY53t08dIdJWWerOMuGSA6OWCAT5Z8+Yy4cc63PpP/pkOterQaSw8JxDBwgML7zzYCqxrp3SV3dff0ZrLd+bVxz62qy+uP7U4rrcjW6y1+GYQXsiq1hI1ffrJT+ok3d5+9c1v6YsL2pNtC+/ikD2Yu7aogBw4J4SxFEFvaYxX3uCDO1nP9AmWR8/3qq99vap+83dn+vq8Di1rrfZYt0kc6dMrLNJz4TpHWeCk7wx5OZiogWhLMBZXY2wDFZU76Cx6ipkuCC1FG2ebXvBZV+JajjWDlj7i7b5T9gIIjYne8IcYrLWvE0LX4IBNf005ORjcdOG6MEB2YQIfT4YN5NzstFhwnP60UYPFwktoc4IBb/fPEHcD++/Q6zmlRSYXuqTi2995pJ4pMxN7mrnQnbyvnVQ//ZOHusJLN9tQJa1Oq1ZiGKk2QhekS6h7tCYE9PKmNKuGGXMTaN4sSGMYo/yjOfA+W6GMNskgHabUUa/LL5VjXZjEb9AxY2N1QTi7ZXlzZRR5Qv7w0+eFsNz5Af88JPypIvDK8B+zU6xcAT/yZFqUOz/1cbzqVKOjr319t/pbf+9Z9dVv6YOTabform7AwTDifNt4B6EYZ9cmVzd9VJ8++amfPKj+jZ+odOuHdq+qR7tjoztjVGXP6qCMom6o+Uf/t77k8WtPq0f6qjlfIGg7l4ZRddJKi3Hd1yjtrPrURz+ofuHf+Zg+CqwPhtJr1u4quzFH+di90LofQfCrJzr3XPbqH3/pafW//K8H1ftPOIvHpXgyhgBoJMxXBmxDH0yY8Ve4HDjMgcTk7IaVUSd3gd7TGuYPf+S+jpjo014/sV+98cZZ9VBTtnyGh3/8b5zkvMD104wnaJfHOP427DheE1wHxI+lKEso3QTXhTMddbEqtbonKnLOjtmGJekIlTRcL20WFzAu3oaXPH3AOKsNDOEluIDfkh5bfIkeaWvANs4I7j77tGqN6oJm76Ii+tuaHuWDsN/8vr47+VgHwLUp7VLG8Y3jy+pHdTfvkW7fsHOjKhj0Zl+3thzqhp2GyQzlmt5+PtZEeOuSa/OghuVc9ccAgB2+GEarwBS6FXdd+pvn3tqXVHQDurd5ojdPr5+Hfn1YpGs3ZBj9G3jcWXClacFzjc7e0Y30/80vn1Zf0cdo+YAnX1KoXalRlL6YgWbtT1+rxobu7z/VCFT3Av7kM3349o3qY/pu3D1teD17fqnvuG1V//s/Pal+8ysyktzKT+uY1idrOla724rIV7zZUUrvmW0vD/Utkz//Z2fVX/1Lugdy7z2V8n27F9NsuHpXLnLhkIcR6Uyfnfntr2hDz//4QfUelwoLDzv/2NjAd+loXtxRI9zIBAdgi3g/NqJRpG1F9i+fH+09qT7+2lX183/+YfXzf0pjbT6/Qg8vUBpix5mIFB9LG0YI1DTG8XeNTZGBCMw6XxH0oTCMkiVlPji1G7Ke2HvvV/J+QxDyjaeR0DCFT0NxtGi+q3VxXaXGWvelOp9XqjN0Zi80U8JtI35ryyvDGPJb7dk2jBhFjKNVLhTCCiVag9UojKZ6AYYR3cQGl5r0UV43GtnUh35dKROaZBgj6dTMBVx0SuxCbDuz6IVO+V9qrPiVPzisfvnvzqsvf02foLJufcqAwOhT5Q14ZIgzMRVXZenquUo4K63pYe8483eg2xy4Q5NjDucn+pq4jNGMbeecfxHqMGORnzBMzbtQwwIGD2PG2Tb+7e5Vn/v04+rf1UeC/8Qf1a7RY8a5bLLREJHNQml787aMOwbzXD+/rynQv/v3T7TxR19Xl0G83HmiRgiDGx0AZOFGJvJ2xYjWGkM1RMrDlvJ4JRqMNLlCb1ufXLnQ9OzewXn1N/7K4+qv/dk37EqpFv/eBR1VxFyukZYy8dKJkOZp9TVeC8asjoqCV0CTp1bqAPVnAdcqhjFotZHz5iNGtfcqK12/xZUZXSf2LO+FqByUrKHP0Arjn/sD1sttHJlPl0aKkeeIYSzluear0HfpcmQ6IB3nkg0XgPKWimrOmV794xW9u8JYUh30jxHjEfcaCGHQG8nBUlGlPC2FYNPASR6bQYsCqV3RbMFcI0Y6GtuaPnKdEgWEb/S6JbUZ6mCxjwBvDl2NKcqtpA8RVwPfoKeWZCj2ErRvxDBS4JzFs6MaadSG2dvRQdfv6NLmv/MP9FX3f3GoKZ3FhpGdqxg4vyXGp3cvbE5CaSUAuyqMVUBpHDcU2XVvgkY2ZlRz4RQaZl8bVMsCzzJD3HCyLz4vpMQHh1fV53Vp9Rc+v6MvkevGRV0sva8vC+zIGMUIkkuYt9TYbMmovqcLsv+nX3le/R+/IcMvgDCczgLFlgyj8UmoDLEYtW/ayUJj0IGaIzsZ+Uvl/VyXIOzM36r+4r/5rPov/mPdM6sOQdu5OmQ2qh3deQtlhoVakTow+WusNeVhY/7AX4QpyD8MYwl+CBeVrxRHOPcp8mVyGoXcMNLhwYXoaaDCuewixkNzwxhwPIfo5jBdv+lKN7D0nir0so1LvomghLYOk/ytCKSGronUJ+Vb0/zURD4WrQVtNeKaOykYxhrPS+rJVGIjOaTduinDaPrcy0BbpzeSKSFZVj83RXcRnqZOL5/vXrNaE0uVsl3xvfrUMFM9KiA7imH88UOJyQSpZ/q2PgT8i3/tXvWjb75b/cqvHVePtC7Il7b55tq21Ua+RM12F91Or3W/Pbsk2MZxwhCGRfg0asO5Lsjo1rIobVAxUJhKnubBPhlXKnkMp4yapm9xJ/ri9a/r/td//nv63pyM4ls65P/26zN9cYHvgOmLGzqUv6Mb+7cun+vu3u3q0UyfFb98q/r0m8+qo7fm1Xe/f1h997k+djzTnYXJ6HGpAPkzvtUgWaMso0pHwq7JVoBdWi2Yufi42nqterj/fvXZTz3sXgtpPHKlmjllApyWw4IBcqDm1+XWvA/7Ev4WQFsv2jrTAPYMWEH+bUwpbeLfDVaDz3zkk6KyjLbj7Jork4Jyp3g7rkEBm/NnVOqcFYsJsECZalnAOUzCUcPII1JmXCKs9Jws7JD1SIJUzjkZ5B/5ysO7fkbRuMgTfs8RMyXekazFZZHT8AJ6txy5TmWZynmz/CNN8Hu3m4Ng1pfPi3VCHR3mSbhTIU4p92E84zG9+jsOfq2x0cb4BjVqXCo/NDeX64pcDI8Yc4ROUyFOsdQItcAT/EIdY7pSjvWM5+qc/vOvXlW/+qsX1bfev9DUqi7a1Vpf3PbP1IPtCI2GX+lCCZhqbDsp3oqK5o0KzXMStWXW+WwEroLQ6I2dZOzY44/rlvhcFh+FZT2TCwb2NM37yR+eVz/zRX0p47P71ak+MfbV39/W0ZOL6pvfmVU/0GeXTrTZgU2m3Hp/oTzyPUMblendPuMj88iXAKCxv39a/dAP7VR/5k/er376T8/1BXjuI2y7uqgUTJy9j8gih3dMCukHtolkbyX8obQZWF1WpbgcruhP/JfYivyX4mztTNNW/r1UXU2uaUBKtusCR4SXcHVhgC3C5VYmEK76jMYuSx86nwX1vK7D4rhXL3LQNDrMgyyTKafSe/DY0rx00vqoqnsH2h19qLu3e4qX47lzfkrSS3OKfFfNHhQuNHsxk07SXfcPPy8ophFiTfFmmlhS1BEcy0SZbHqNP3q2DJbNwHo7QkcN+W2egUmG0ck2xJkOaFwTHmEhu4X8mmFUr5Udmmr85kr4lW/pu3v/Fx8kvaqenB7oOjdhZeFPrdsuG1Gy5igo+/VOQZ0nMRGbhy/2G+8krbOIp2sYwcNRE3GjaVRvYnQwQxm2Q/nK15EM5Od+ZFb9lb90Tx9u1mUAjIL11flzTc+ea/PQY3216gcaUD55ruvqnu9XT/X+ROuiz/Snb4lqg5E2JGkTxNHRji4p0AdpH870wWRdQPD6fvWQ7yRraWjKlJllY8Qw9sSkBGG8ahFYTsmzXC3WJCQB0Xi2HHJoBTQvgbsJmeAL/ktIg8lCHBPurOdc6HwoPep9fbSx3hWckw0cEVbA1ehDAOlZgisCZmk63qjURbl0DSNyDZqJ55z1iAoShrsbGJE8o5NZwzTlxlc3pAjWYWMjGuu0l8kwHr0IwxgZrXnNM7KuH+ROIMpjXYyl9FBY3jBGxjOMSQn8iEeEO1wBOgDWeprYa+VbC9VGEncNY5RbsR6tQHGSYazxRs99gfTNuCjRuBwTkqj8euXC6JlK4Il2hv6Lf7lX/W//6Lx65zvn1VN979DvcfSNLr0WKW04qfmUxw7Xw0MeONHvws1Tsskmd+rxaSrUvr+oNUVGtVf64vQ2Z8Cu3pIBe6/62Z+tqp/TyO4NfY2DSwSYnJrxVfK0o5apXtaaGMHMt5/adCrnKuc2YoRvvlKtm2+0K3BPt+DM2eyjIx+7bNDRfbNXGo0y5TzFxbpglIfIRjvQS+5x9tuLawUgHoG5rErjsBZ0/ZIr7mRlDsNYY5nm4asoGMaZDCOdiAMZxumcTqPRg0r63AvPAiLfWdCAN011RsENQHWDN4GfjzjjqEdXrLGrCrBGdqBjS0eHKvy8enQZuMb3JUWxBCcTdH4JbCVQKIRhpO77RQkS5TKyHBL9BL0r8TQlzNhbiskpWNeD8XbkBY8Y6yx0GihTpYI+LTaMSkRB2lk+x+6otarGzk1F8cmd7+li49/4ncvq1/7fq+obfyhToW4rUzq9Wtnhi3i/kxVQ17qpumfZiQw4a2KHVYHGMUVHo0v/2m6nV+OhsYg+YXVeff7zp9Wf+1P71R//BB/cTcZPO0vBMZeB5AgINGzfn3gzLIyEIaAIGxHrhUE5XypHTHsaHe5ozfFSl6LryJlGpac6R3kocDBNcTn3Rib99NMaxsh/kh0jh55L/HpUG38PdkFAbiyLoL3yLUL1AtuGkUZdl0b0oDYcQIHJTTdOI/QDVwkkyibFWQlEMZSKK+JauAqAKT5iGFTyUdvGMOpsY9qV2kJ1zS/BfifbG6M6vS6tThKZLmsYJ+c36crq3DUpN6K7Dbpr8d0uw5hl0RmTunYaLQp/rladAg0Br9YYufHBEL773nb1f/7GrPp/fquqvvdd3XdzoY0pGjmxaYVRlhko7aBjaZtbdNg0c8GGGRvNYYiYxtS5LEEschd2XoOvVysPGGkdj1C7oPS66FuthDWtCvBPq+zqtptzu6buj39mr/qpz+9Wf+wzfkdrxQjPiEUTkygneVloJyp4A8QNo/fa9/fdcHZ1f6FBCYSdp9PuEodb57gDnkaF3dDyuzUwlscyrlKqVfNRwpWHUUZzXSl4TgdD09uHhyq9rhDzBBvwh86Po1phJKgKZZ2mXmeoX7umTLGX+Ms1gtKjXJipYb5irh4ZBvJA54SPr30q1eUTPE6TaUDf3ify5fN7F9qYxwIMI0b+1U76am+TrWGdcm3P7ZPxuA7EjAZ8Xwfvy02lZuKfYhixjhR0v+pmiEa8tGHaiymIC33aaa9699l29SVdCP5bv/Ws+v2v+9Vp51sn1b6tUWpakac1fEx9YtREP41AYYTzWYvcrhoAa9e1Y88+RqsEu9WJjL1umoEb7ZTZ1nnJI02ffvzNqvrpzx/pb796+21NOnGOUum4eYejFdD0xiyj+hIbRnTCGlf9dO/mzCTQ874yjD2R9AMGDSM1jL/GrWoYDUOgUhlSLnPpMrMdFxhGTUsfaH373ivD2Ah7CR91Y7FhtEZjCaybAb0O47IeZ+22usvfrTWMTcfVa5JPqaky6ZVzYziz5rJVk89tdSQZZ9r8E1BqdGVsOMTwWAby2z/Y04Xfle5PPa3eeW+reqaw8wut0WmUyPmrba3BMUrQAomw8idGtEaHa3pp2QSKs6xjIro8AL92xPoeI03haiMNZxAPtd732v2T6tOfOqy+8Nm96jM/Pq/efvO8Otg5su/Y2dEL8eiGVcMUjGOn0fJIRcFI7rIAvKjF7NyVY3DEmKcPfxREvBeeGakmNhnsJqDxleH7oRbiwutlO/LdYG1812UYuT3oghHjmUb/KrvDQ3YS9/luOFnPZ5V3Sfxhh+hELnI+zb4Iqi96SzEBP3DBBTWDouRLEKwtzrT4byNGneU9Zir1Gl0YduNlIt/XyM7GUKN5ZhjVydiRnnDvLC7yObV8LdGKP1G+veS3TM6hAz0+U8DtNYzGoMSc2pm6PVYQ8+hEMGqw8zoJZiiTQ+EYRtpr2hqMK09mSDUrahtWzmQIn+pO0nc01frOt06qr/2ry+p739uvPni8U52oIrO7cybrxqQriUm/yDk9XZWlBcJ9jTD31Ts+PN7XhppZ9eOfvKj+xGe3q099Yqd640jHKLRmiL3lzlLjkeMWiWeZaZEaNoxdPmr5KQI2bSo1XXgwZBi7OHhf1cjEBp0SzlLYOJ2+oB2/hHODjqnUC30kG8PIRil2+LLu2+195ix18zUGm6fD721Lu6fbhfH3thyWo9GXrWtMTqmNn5hlaABvVKSUcwyj5DjTp9XYhLMnw3j/mjffLGoU4e8uOmQ6u5AsNfKmfdFd7eastKQ8N5HvZfXgpuXc2OeSnjfcXLdhpOW+tY4dmKqTMjb0pSQo9fpP92TtLjUavLhfaZNhdfSaLhK/X1V/+kePqpMvblXv66zgd3Uh8jvfqao//M5F9b0f6Gq4022dk1QDqfOSF1JMUIXYmyaEHtyOvoN4Xj3UF8vfEt6Pf3Sr+sQP71R/9ONn1Wuv7Wk9kS02KLBw6UsYXD23ozHsnjbPwOOFDviz4cO+gK2dtEZjgjUOXiiI3G8vjaaMllMr3ShkO3LVdG0spbcuZiRdCmunjTF8Uy7Et988RRdXG0/+BmQ+S5DHlXED4an6PLdTN2/B4xS+AtYNFkWcd4wanB1fUZdErxs+MvrPMU7htBF9yAOehaXJQo5yI/5ovLudlI0gv21IGrHeNs6ukZ+u5jXKFM3dpPpwjRyuvMboPFGj3RcZ4ZXNNyj1NlOQMl7denuN+alRcw6L3u5MJzzONHg70yj2/OJEGzFkvOyaK7prMnMqiW2NDGUTdSm3tqLrblXuXT3UdNE+15qyLa9wHCQIReU1MaTybSo2UF0liJTNk8sLcA0kmx62fNOIwhm1ojBDcrR0qQACR2LF8I79BP81DHRSqzc2iiRd0Iq0QzSB69FRWP+4PXrr1uMJAAA510lEQVSjtV3h3kJxwqWGPuSqnlHEjD6vtD42m6kzdapyFrrj+9qc1UnheW1z7nfWekw3j53k9gpfbQx5WfZTsEmMArUyrWU9gdKydLKy7HIxgRqFptkWdUp1/pYRI/XmQDc73T/u5raL/dV7SQLIvDdiVKDpDyIdquAlZJ2wqBulehagARPvL+aJFNratwpfH+oR4+oFx0YYfa9QDeqORnmHqshsiLFPW0kBkw2hZZajkWWjjppMlZfdaUo4BpEAWlKlHXKtQjV8Q5CLw2ko3bkHPpuwiBt/Nvwosf4vcg38IshOvFis2SVqAS2DzROMwNOhMgc8RnFZIXjq/i+o+qE93k0mBgv0CKMJVwmnhZUiSFNAuWo5uGiGCCUGC49R/mCxwGMBzaugWyaBVfXoJrNxF3i8xqnUF1mz1Mvl2IYcvXMmYtnZOt/V03plvMcfBlE772gJMJ7E2AhFxjJAJrY73piQaDnXbffNFoBCCGMD0BhGb+TaTC7PxRiFflxvjCTyQ73VEn9YqH7jqzFkGMUgKeH04TyyVMFsHJsyD11gjD5++5cQI3QhLuLupEkpxh9C11AaB2UaJXhaADkYXcr7IHA3wnjtBnbeEQ85MllmOVuX8Q6ZD+OrlZ3k6mW4Xk21krkDZUJ1c4dnvTwHput8XqNhvE62J+BOsme6jo07bCCY26XJ2eiPXTxydTGpzFjCxDARFn91mRr0q5+7JgE6FzTwPvn74kvzxXOwTgnebe7XyflG09ZirD0bRf8K2XoSWNMwYjqiYPHT+NDDj3APa2AM5GZ+xBaNIaNFGwDKx0dYh3iJ0Q4G1GAsW9FTjjyOsw5UawTSSmax4wg6sSG9Ojjw9SJqiHHPRBYa9I2vQRxMeIhDlOCaFMO+xencmHUx9DNSY6o9KY26qpQJG6Vs9BPs691Buwm6tMbeU9p6hLk6rjxlsNijbBGDsT3wdkDDazt8wtuqJCeg/nCAIEDpX1GOKhcLL0YuFs+KyRYjXgSRaWx4R3kZjVxE7Mbj1zSM4tfnWuRx6UT2mY6kQfLl+2GDdF05DrYw1FNcTE1xt80qDioY15xa6AuaT6VAHkUXzGaRZpJTArAyzg3cQ2iy5FBMHYIm1HhM5dSEtn2Ge5BRYIOLLN0ChogupBpoKDK8ka6UuIOxBmm1Pr7JxehLH3dsI1UN6Rha8G3aC99SuaE7YF0su8DY8NALGeGnnypST3hmOjZMQhSKZVnnbgKhlxMk2ofVc0cXvXFev3mXz8omj23gxnzr8zSGfVFcxm9SzHF+MvhFqG9B/PqGMWWCTyThGG9Ru5pRowXc+p9uYzFqGwZy01OMtVqyASJTg0W7R36CblqarjAyml25GDyHAwfclS+SlmODThdpFzrgUrjz6C81/g4MscAZavLdZbEAHz0XK8cuPAh7znU+QO1ZwttLVwhI6RYmHypDER9PG0sIQwicp8BRLJLxpIVMvQpaVwK9NmVdhNeQPniMZ04iZuLysLvg35hhZGIKIdAOhjAQlAnrDlSoaAjiuanCc3yrCYAjJy7D1JFfBk0BNsplU3mr8RRo1XHyhOHIw8w/VdgJLiqe5aNLcwAXtAOUIyDhDyPY5SloNIBdiPzdsXFh/WAec/CuH2PWTVkz2AUeeTc8ih9Lm40Yy5ioqw2OOj8pDNTWxzE517FlVC9RaK0PG84TYvTias8yBZnrohv4N/GER/6iXYnnJnC/aBzRjXzRfLyiPyQB1aCBNn8oxavwjgSsETI5jlmOTqJXr68k8EoCH1oJbG7EmFrvpqfzqhGyc9ydbrxvBELfotddlhOhV7pRx7vxwBMSaXiXy1/LaAyM0fygY5iwwPJ66g6OFu38BU4F2wEfpD8lwoYyUwATTIKnB2sjMj35xspco6b+F1YyRtvZWEww0YlkGaZW0fQQLZufHgIFBNGIy96Lg8OcuUgTT/FjyXOYhA9ctiGtxl97IvVL92zasOvMWtJNSKRGoVaLFypilCBXhFwGaVbBgpzJl2mUmOd0Y4YxyjIX6c0oWJ6d9f21cmaoFtiNDLLtBdfY7TFt6MIbjVIKNvmGkPMw+QOmgMGCUrPXb0wnpG1wJuIZD3jLtBVTbJ0bbNN9NfdNEiukMmUyGSwCYf4Eao+IrLER4AAeJb95eoB1ivB0IfL3lXU/RxKECs8azDwpgzVcHVuHpExl7413GNqn8tuFDHSXXoPrlW+iBBCjiTKTfuadiOVawVbW4Wvl6maQb84wxrVpHSty14S7ScNIEfbwSfmtWZnQtjhcapyEqFtvOqIe1phuwhxyAh9jyXNU4Tf4XsYjdoVnh0dHPcBVBzZGywSji+P6GIn7sp7EtViqUw6wZ3iCTAHpZLEN4iCPBcRrBIFuwyjX4OYlSRrld4sFW6orL+sIsatVGzOM0QAZgdRiU/b1dFaX8i19n2xs1uF/AhFATAlNiKo9VKCoTEG7+x7h3ecY3AReuugmvY/RnIRgBGgZ3IJ1OZJIQuylJcADSw3BCBftKIxuHtKjk0eW/WbQVkiXY9sEjhyf+TtI15JTD/mHKwBdNH20+tx0YkzEt0IUDU/G563g6eaZ2JhhDNZpZ9lNaS4pQavBCMBXz1cSeFkkoFatbtjWNGwvi0he5eOVBO6yBDZuGOlN8lmmS9vbjV8H5u9oYxH2fVMFbL3FCchYnrNr7IBVr4L3fMluXb6sONZE0t5gM6WASxug/dRrWyQluDaEK9RimtI++z4mt+XuaCOTPqLil8K30GVGrRW+5MtidgYRmlHNC3gQsh/hybI8rMFHF7uNDIXvVce2K5nV3719pFJLK7llK3pU8Vwd9eKUJd2wm75g41Up5wLcvGHMsb/yv5LAbZBAahCKVX9Fg0S2XjUmt6Fw7yoPRW28q5l56fjeuGFEQr3BiHojqIG1T6Vey0sn1nKGkMJw9gsxCLLUk1tUpwqoehyV8LaAhGQUj5hYxEcXX+udlxwBay9kd5RohiGlzZXNgjKc4INGjjP3J2xBcWlDF6RqBBl7a3kD8QQkZG8CGCBR5MFuMVkxEgpEeBlNp1ik8CoQUUoPswMbNyKTKP8bIXadRPI6f010rsUwWgunwreGToxHxY3qdU152TjaMUVaqWwkgCGcJXzWRoUQs9yFPFsNfsRzR234B551+oF40hfItqAX4WgBL3hxfpkOpKmY7vr59A5YjQFh1wiB7sTXgO6pQTvhg699BqYZ9uYw6yDqIT3pJijY+S6IvXuHw3M4rCG5vJIO1EKRp5DfIrFXgYMS8OUUCRJZ8od84zmYav0IK8aistQFvD6RG8KAuK7D5R3jjRvGNtO2ElW3TR4XEHevQK6jMEo4Q0J1nAKuTKm7DXsPUknWk6thxCqaZVwPV80/HuO/w298ADpZYdamK30zfqGLdCOAUIJ721mXkeWof9voQHNT+YRQRkxvZbcpemXs5VDxVWwYM+jMYOe5yP3kj7O5bRlmOF55l5fAi1CH5bn8UKXYurgYu+V5SBZUlfgDRiWrxmo+v6xmMxoeKo42PlzqWxXbO9X2jjY+sAfHvm6Q0l1t3CYPMbuxcNrvdV3W9pjtid6iN9hqdC63qvPzqjp5rg0j+rAy/y5mVXV4tFUdHErSyUCyi4QNOrkDNm7RyMOn+u/K9my+2FLxLc0kTOypbeNBNlsX0sZdyWyrOnsmOZ6cSG6H1fxirt3Sl9Xx8X51eIwcLyT/XTOJqzbyiJ+0rXZtkfEZKAxjfVVGBnASvAzKnm4qYxcXVXV2hg7Oqt29XavD+xL9wcFutasq7MeXk961BDHC1IckKvX3rIrTyl6ofYyO2qXqOR/l3kGGKnw24myl78NuRjy+sS0fBW0G74vEwr2siT4q55KV7NzerMLZkHxWNIwNC2YA51dmEDGE+/u7KmzvUc4Vfq5W/nK+rUqk8J273dOsC6XJ/tK+pvHhkjJKVwq8Lcs3PzYD+Py5wrfOq3sP96u9XbX4amzOTi+qZ0/P5T2ojo52qn0ZyKut5/q+5IHo0xp5i4RRXcfdHcOI3CKvalT0AerL7ROFHVdXFzuSV1U9eXImXTyv3nzzQeqUVRWyffZkbhXp/sPdau8AI0pNw8gyclzOkfLlMozkiD9dtq7H2dlldTY7l/x2zRBeqj9i3Wh1MtDbvf3tav9gx+SbuiaWVj+vXJIA1fviQh0LCQ5DiENn8M7n6qwpfEejhm19oWbkIzUJ2zKPl88wIkuEl9c5BlscDwzZLiMhYDdkGK0pUKVIDbFeKfT5/EKGb6fa2/OvF1xSg+R2KH3lQtEykPqR25OBNP0QCgyDY/JfA7iFP5swiJEtRGcjZwW4YZT8LnY1QlTToh7l0b2r6uBoW/La0mjnzJIdHR2oEaqqUwzkE5frvQd0NtTLpGmnWHC1sfDXKb+eNCEIPFMSvgAY7yFCOIwYPW2FSgDcgnoucT2V4ZtfnlZvvLVfHR3s2SwGDZAU0TptTNU+fbytjsaFGvvt6v5DZjTAAUSz+jZJIxNQC3alEaN/b3NTIqXhWM41kuVLITPV1dkMmW1rtL1nDdH5uYzk2YXNAO2pIUdVrq5UpzXS2ddI8uBQjZPS+jTr0gwsx+5th5ZwkA/tHrNoaJZ9gUViudRgQa82UsQY4uYXDqMm1BtqS49ury5Hn1ky9Hfyhzod+bf6be+qqxIJdRX5urs0o2idekVEeKQNqO5zYfxyU6kUoBolNcAUOlMD25rP291LDHNVs3re9TfyBA0DW4KhwlyosqEEfP5nb8+nEsjkbXeb5JELmZEFf/QfzumVn9FoYxTV4KgHhAGcne+qN7kt+SHDy2r3YF4dHuoKbM1dPXsyU7otvavhUuOu2Wrqmn5UPkuOfEz8m8zgNRamKb/lU3LRk2qAMcMgPlfHYnZxVh1LhvceaIpUBmquKWk3isjGe+Q7ezM17oc2On/yeKaO3Vyj8D2TLXJcxhXbrRUMo9WRDdaDIl+jGXPiM9Xpc9VRdJCZn13NWBCGkaS+m84yKyF92VEcyyOSsEpBo0c1CwfqiNjUoOq76WP6HSX9kkWio0yT0sllxszWzVUgjLQZHSIXa5SlJ+jojpaZfDpaIx/aRsVvS7Dotb2sKJ+7bhjRMbQSeVr9MHlIJgp0bUUwBuHyDDll6cZGkVYGkabwXG4qlUIXL7MzepM+QtzZc+apTDYSulKAHAVsGdDP1rZqlTVMO1IOpmjOLcM+veqN/1paYBSv70fZ3pi73NL0iaaWZxoRnp5ILupo3H+o0d/eXCPE0+r8VNOjWvu6EtyVraMJRH7kvaXnwZGmCA/2q/lst3r6CJmrYT/eUxhy9l6+yTLjmbLouiyaAuxGL3yPFCXcCxMvAWB0MDZ4jE9mIXj1jsWpDOLz55qx2J9r2vSg4j4JOhysy4aNImnwidG42j612Y3trX2VQVU9fnRqPdH7Dw59mtqIZongV2GGw34cwBov4nIXRPOwQb9zBU9LJRvE5xHgKzv45q8BQI50ZM+1hnh+rtkKKRK6ZPV8dqbO757VWb70gviRLU/WeZn5iU4xfTL0dEezGIea7rdlk4yO8wPtcA0PEXJXn5YrZCLB0BGjE0F7Z3Jm74UaPWDQF2vkFWVlbiLQ4EI6a50M6zCDQwZS1pKGfbgsu9JyCoQa2k0qVJfUDbyzLIcMIv9W9Yv6xKAr5JlkXvOHTMpufcNIYaViZYqFDQz7GiHSY6QI9GqMlch7ZtoxVCb+WNQ/19TMpRr2/X31NNVzigy2U7y4txL/63BDxTm/2KqePZtZJbp3f98aofPzuY0Sry61Ep+Mocs8o6ZyMKcWiI4Gm0hselWG4ckT1h8rGVgPi15WpO5u0iHc8A/rTSQdfIZOJK4G4daNoA9tbe7WzI0HMxLqJJxplPjog5kalUtNmx5Ux5rKu9DGL5s1HZJhzQzcsy5RSfdcj5mifvJEG3UOtjTiPLSRTyMecRGjd8DZ/KP0dFZWcbRZiyrmSngXFYZ1sOhwKRP8SQBMj1IPt7d31cHSSFvBM+kjSyTAXCnA6oFekS1+q/MwiF9/Jkdb7pZUFUljtq8h5OE+hkB5NZmRIORGQB1IxB11GuXRBqpuYszMoFm+XGb1bIVgGqMogUkBPPdJPhKSGQCVzzZWUiCMLm2DjvR7bOTjglMCJboOnbrJgqHd4g+3rR4uMrE3/XjoYm6sCqBzpCWdJUQnLcYQ5P4hjCMjRpojFbCmBeYsHmvKaVfTn6wlBsNXDP9GFDzlsaFtvKWhMcwrZjZjg442Qaj27GFwo62xaUEgLFGD4wZ9Pf6XpM2oz/hXAzPXCIaRzblGeodaRzy+p2ZC3e/Tk/Pq4vyojbmoCJkcxBj/dnaZOty3yvTsyVX1/KkapEMZzXt7KidIq3z0t43B7TjST9a2TlpeLb1V90LkJoOsFy16SRVONbJ59oGmmdVKP3j9SkaMjtuFpk2lqyZupqG8cXEeS8wo78JHSty2NoXtaqKDnv5TTVNjdA8OtNFJZWTTqyrHLdUDKlRdqUi6Yq/85g0j+TWGbXRInaVjeqo5aOoyeUVfJFpb7nBhS57KInK3xkoeRpGMLn0pgEj9ydFZxug1+wwEo7ZhV3V6Xx0NRqDQD3kjef/T4467maY/L6zHwOjGGy8MYj1tauuIiiPP9l9Ckyy6hjEXAzpHZ4NRE3hwsV8jh2v8wNxdwxjGkGfUMeRF++u51zPFNXke95kdVGJ7Jh0OHHUdHkHRNoxwYphghGkTN4gYLUaJ9PysnILbEcRDUeA1pxEAPe5tkMqda0v4jC3hbOLRfnAUI9hh15EplkHe3E/N64okaVTmEtiZpkxZN9zd2a/uv6Z1RDW0Z6cyiLN920VJhcG5aGoBeWD8KthiIhp47J52ZO4eyEAeH9k7o6jz2Wl1796BprQYiVMPXckSmYZOhivIeOV1yFDYOg6aKfWy5eHppqcK1tQtU+OgmQXtwH2ijTXPJMcHxwfV66+LR+3mpdN2OdfOJBuNwKloJJ3ire8CM0/+aND01K5WRk07WwfqqGl6VaPwuRYp7z84luHQepoNu1sFlY2EnIrrS+DvU44KaTaqH12HhN6lqliHlzxTYCydWEdf6MuenUpuGuEcHDHDwGgHo6j6aCNJb9yDlqRv9RC5whc4asMoINMRRUSukSV1WBNAKZ1Prx5ofXyP9TQQJzEGjbv2RA7I0WYoorAwdXQeiGCOwwomNfRmBtFLzzsycm8KSwKIspRGm07SBtJGImPH2xhI0tcyx3eHZBr1gHzFXxhEcmw6lboOvK/rYr3V8Tq2nF4Jf9swJggK4fxUpaLRhk+bUghkgkJXCVCBlnHZ6K/WI1oHvYQy4CGOaR0Ubl/dTHrx1nMC7paVfJ2PkhySxrKp9LlGhGyeefDw0BpSNiBpB7wU3Rsgx0OCTLMRTRevhQUcTwK8HChw1hcP0mYc6ub77z9XI7ZV3b9/pI0lwp7XpC7ugfdckWqQxGapPIrwKaFxLiayXNYoc0/g2FJP26aT1Ng8fcoxi+cyUPsyiPs+ulNrbptB5uDMsNLo1EqVY879SX7I0HhKwrF02qSjdTIMJhujnjzR2Q+NuF97bdenXY0U8dBpGxEoDOqF0gWXqP4UtzAbU5AkGHTi7NQ7n5xBRFfIhW2IY6QNd3m9TkzSKXV2qZ/A0A4kI6lUjAwtz6Qlj2RSAfRNWGe0Dq419FqP1O7fQzq9dNaAu3OOEZxPNc+1T8DWwExPLcsWZ9lSXXQdlBxMKE2HgHzbX9KBXA5+qbiEgpx56Lmtji+bFe1dxFmvZPTI2fC2m6hU7UQv7C3qOU9fS/U8Y3sIK9Wt1ZltplIpl+hkjBlHGUYWE6Sp+qUSYJRgjLNLNtowfqkMAsBvheaZmM5oFFpKx6u8Fmp4PV5qYEoT64+oFaNHnxaEGiEZLvMuy8t0ri2/TtYSocSwa0HBhr9JLMhIyqpwOt9srJmrI3F46OuI9MqZMmYd0XCQHtY1cr5KRpL84wx1wh/0LCLFRlNlm3JsmjTJQDxs75zb1Bhld3aqhv3pM5XjkQykpsxY84lDxJBKNGzKNeuh1TRrT6IuAdTSrj0ZZ2napwmJdDxT2lY6mmaXmSOmZwwoa887OsLCsQrKfFY91Prpkc04+/oX64zRgDA1FXnJGxqoDrrU8JPQOXPdo7d+pTLxNQ7WfNW5eaYR/sncdJFdrzu7avg0Wt26pMchAKNPxlqZGyZdjPHCaBn1Keg8WQujT+EjV9UWGnLpo60jKjuHh35ciqURZjNsBEi90z+Ku5GfI05cGX5TBwWomUk6jM4jIgJ96rVhhJQ0elxU4RkxU6xOIrtdWdu1KUMzz6SaLr+GxnX56hqW+FJOlFFmJxhpY7Coq2iONeQ1G55PZGi+rL5YmEcnGZvgzF+Xeb30AmACRrbyeiOuYERNuekfBrKZHEHet9GlfMBe8hYNk+Rb58BgI/+L8pRSmXJ2YJE/gm8wdwCa17oMUpAMo+ZL1aDbIVRZJA6b7jLl4W20V4Am/cZ93fxYPhKVM+2Sw5hQsfatp4k60nLilGGTyVQBeqp1fuENfhuerQQNJVypzmhnKWtUOiO3f2TriMByBgz5svbVpG04KYVFbCnOOikB0Hn6qF6Nj0bbHEOgHD94/1w7iTV1phHXvfucf6RHS0IZFxjviNBU1GTbQa5EHdAWwCBfSlRMacYpyZBGXNgudDZudrarkZpmDrTod087bt/Q9DM2l/Ox7I7sMWxchF4oNleiFoelFyEWH2X+mLFgdyAjK60/Pj21juORpq3ZpKPje0orunQW+cONCcghBn7J/bK8BypP62+So/KD3sy10YspfBpyDuLva8YZGbKu76PD6czmZTuPkSVoKDX+U3565s7eTbYa5TB6TKMcnyq8EE971UG69MOLLMowNT45shv1kyv+yfgpEywpzexSA/ZXUNbkV+EpwyZFywACQJOcf4I8X4RKxxJMPCNLk/VV+FiyBA1tTRyLsx3ApR12QeCFPsWsnIlKP6EidJiIITzCDHCpH1KOpx6SbYRTjqHb+SanLU2vXPk1bjp8r51kNAIQo6lYQHOpLAwBm8CyyHg3HRIL6p+ptzuznXJ72oZ5qAoeypYluxEvdK0gozAZ7dEgznVAXzNuz7VuyDmu+9ptSm/4TMdaqFQGo8bEijAa0ALHkfdClJVFqEAfLmK8WnqFZTebpq/UO7/Hjs2L7eq998XT/FH1QLsuH2gNkmvRbD0uGrpE2NS3QdmwIwEot4MuFKwHoESDKbd1dAfrrNEXm2fefXxRnWgt8f79g+qNNzBMMpBq4MmTNTjwWmQiGlUajiJAjy0PUEaHDGOWYnuPIx2H1UxLDI91/hEDfV8bfzhLmvOzDOUMvbwu8OV4VzIMczgrR5W1ppdPTs80uuESA601a+qUjsVMhxIZkfvmJAqlVMiBbPjpI8YmreljMoy5boY+WJ7EJ++76nhTN9iNzlGjXU1Hcz7Xzj+a8NRpo8P2gh25Y0TNVLPOeksPmVHwK/F8Q4wbOvIL2zHdmZe/5zvFq3x5RwY8XUVDhnmqRRlv0oODcmU6Gz/LD0bTUATuRfiuO97zxpWMMAl/drEBfJvwlsl7l1fy6Pls8p3BLMAfaUJPIyXhW0+fnF/t7fkuRvBYIwWxmHIL6Bt8wgeOw/DGpBi1XXRar9M+DJueFMtWwQLWU1zvb06LZRmxJaOtDSFPedvWCFHXjKlXDq8zLSTaOUSvNmSmzZzJuh1kb0PhGWjOR5OmFloGKa+C1Smv9o/PdQXarqYFt3XMQbxfaXry9T1t0RcA04LcXas1ydyF4loZ5BH4AYXXHjMNYCheE9L2WZOuxpnG+rluonn86EyG/H71+ltMQWukM9MZOjXyFedgrbEM/lJe2+h6b4voWwIzir2kvQC/29J1jkjOnD59xI1E7IzVjuoDX0vemmt6dUmHHq3sMG4mDqb1XB9PtK2WI1CH3Foju23TpmrcfclEAbgFRrEkuyhrKzfH0pR/6lwZK8GSKUh7JGkbT2h46E8kHZIJUrkzqvXp1RdqFsU7cpxphocZC1tHtJEjRoguQRI3ek8+ECUZwaMfe08btSx/BCs0Sd3zbGHr/xhZo+v1kClKDLSNxmBJf1Fm61ObjgF5QBcR+Z/G3gqz8OloJkHGxppJwANAwS/RIa8tzZuLd3pzhBIVRYj/xTjjRaRt5JIKPjTqQgeyT+3clRbytV4S97LeBKcNX2qAVHGe6XgEjc7xvS0ZmB310Jn6VU9YI0hcwNe8WSMWmpzEXUcmD8rUDeu89/BaGk8V4rI3CwcfFZP1R10GwBqTWp7HGpU91gUB3HDy+ltqlHRhebGtRKE79O2VQPD3mGmArcFoXnu+C3bnnuxUH7w3U2N0Ub3x5lH1UBd8sx47F16mBMFhfEXHwowktLtcRYMfzVOPXDkAGuWYTiiTYXTUZKRNJuwu3q6ePD7XRjU2PmmaWuuP2ry9tBO6tRzrhHTGTnQcaFujmgMdB+IICvrInyuiiMTMAKNM8hGXcSzJQGMYvfEz5lN55HonU6IolQuBsJFyicpAkj/OocqnOP3T8OdAM0JHB17uCfyGHmys4WgaN3SpPaRMjEct3sSsD8d2FEw+LDplwsRngTT+RLJUQb3hxR07w3EW70Fr/1L3wMdIkSlW5Moo1yizaYe4TRKcyDF8WbuATFT+JgvUwN4nIpkItgnDWCK1pfUGsev/HcALsAT84sKyCqiGjN2WM60/nmpDxI6u3jl6cK5eEtMcKgQxSY5QlLajVHqBbRAgAMMZKC9qXFJnwTYqKIidpieizQ0fRzpoj/hYt2F0Y8ntx7DUP2NKAV5zi9kzsMAVz5Ta45hbSS58VjesYipEjeKOdgfuc72c4B5plPZcG1zuad3s4WuS2x4VSnCaMSC+xZKFe4jhLjEAbQk/aPOK2za+PJxBINNTj77Pl0RORPfA7izlZh+fdgYOOmBxn9VyEFlYqfPmQvQGyQAN0n3Dv638BVihMWngpH+Cs0aPkfaWRrWyMRhI8nR8fGibhBgR+fojsF1+XTqLGy2nFGzxTO2reKDx1ahGVweePJfcdJaTjiKb1TiPSeciRjjtUlROaiV3PkotVkwN5rRDBt3OkGFJjLnfU4V61E9Jwiny69i4b9XXcV1GjHr2tCuYM82cm7admkqlAzM5K2v5nQc0qdEyDCJHVqiL5J2RIoaaXaBWTpYIfpAf//1Jh7PWOc+SeHMKdfk66Fo8lxOnnBh++cUbo0XbnCOhU07sGSmoc4Yu4chCpnnrzNbgXs7MAElm/GMtZ11HPmoc7rOp2Dps8x4rTxmYhu7maWwII4XsqLxBkMBlBCV/7bzUZg2tn3HTP59l8u3NAtZ2anOUn6XtF6QDtH+j6uahWuVSJdnV6EbGWFve2bF4pF2essU2YqRS1b1xyE2UaMDFM6c55g/4eOawpbAkgPph8DJCTAMyjX6h4yOPPlDTqh0m93XPKFODfPKK9tMqVbTGGSFT11I+EbMSeVQDsC0cVNQLbf549MGlpnT3dVvNTOude+ID1miR1Jr3PkcGDm98GvJGpHk1nxtGaE8r6U7y/HUiDh9Bps6Y0nMMx76Coqm0I50RZIMO8gtp5CTw1w1nN6L1rvyTIcTAOp11TvisFrrPppBzG/Uz0sJx2Nw3KNlr/6fOm8u1D+AhRd7IDK6gZNahsSjw4gQrb64nNJcRW3sYvRIocDvTzNNS0ellV7o2i+nZ7+gakZV+vKlFHxlhUW5p7RXZkEdFeP/SGVNIcvIZDOzid16tIQ0QnilBiCuPuh6/+JRe1HwkHjHsvjavaDP2JerkcRWXMklSoaBug4mnrccSLhBkvDnndbyom5sjYpi27oxhzDJOkVhDmsJm5zs2iqPhsOMRbAVnqsgcRjQKMZ4pqvSwdJQohlWVR2WhPTW2pkRP7OhQOxJlgFmyYRqVdRsr/EwBamVI5EpUgamThCcPK/GWwgJ/PEdALQplbTmMFDq2o2MJOnPFmVF6YSf6fuETbX6hQXqgnaDHWn9sKSEZCVRdnHkmVTEdLICV7OqsOnl6WD16j0p6Vb325oVkqYXihJONGED3R1cEwoee4aw88wBF0MCaGzCMBp6IJcjhxxiOTiqYVn7IsY8yNKOgERw3Gu3uyvhrepXjRjYKNx6Add7j2cGYvSb5pbxhfC6ll2zq4pD+Dte4aV2bjjlTqUz5IcGmkKDrtDKkyQus4w+YRM3ie6kUEHApWQtlqIM/A5OkEhGCxthETB2MJxEL7y4ZUpin5XgHG3TokMJEYIB8StjiZPGLuhdWZ+nI+G5xRojOR32UINBAEjoZKeQQsogRY4DzDJHH0zjO2c6B1/HXPIEc/asDDKt97YQYjSCAiHU+i6xBV2SMOggOJaecrKxE38rIg43Muj/G5rq8rsDEHTGM3ZypNOoKokLRSONSI7rzUzXuapRoMI7vMR2DwudTShi7cXdlhlHGztYbNAJ4xl2S25oy1d2PnKMTLXrpl5e6tYYNSuhVFFzSsaj0uZ5GWIl6Ka4XhgKmxIGXETMuV55eOsXnjZMlwDAa31QmtaiS5faOLtbePdZGHR2VeMzF2me6um6unaHHdvTDaQo+mDBE2Y8AajHQkOudNRuYZnTz/e/SO9fnoN5U2UiWPssiOOuAgIfUgSHDS+gg0Tbc2Js1GqAf4n8sccQpfZFDM1yO2I7kQEZ9Ji4m4BaiQ40e2ZhlMhQCzWRPcAIi30k+lJcfGVGwOjRHx2xWYT1McygqQh+xSb+twWoIdBtLCHtZ4mvgeCu6rFwjvkkfIapjPsRqApIvdA9KdAnIR4Q5SCPRCCfbvgs0kMDzTCPwuOqwbwQS5OjD8WvKVB0I7oNFZsz+4OxaO9Ft5MULHFPoSbetnN0ohgysQ6T0TbomP4b4Gn+CByPRqSPk1TsSTb3kqjrlKsmWfJCSkOWd6ZtoMCJlpM/SAWW7SdfKnyHeMIERZu+gYUQ4beUz+6BgCocDuHy94/w56y1b1mNnetWS1I3wsER0t4RwuIE91dTpnnr99x6yhqkpRzVC9MztIL/XF1cGpgAhMIJ/TGlKcaWwHteZnoS3lC4anCY90EgNw+6ytF/JiftX97QhZ67p6Q/e0zcO1bAzvfrwdS6YVjzGruSkxRFDRwUK85k21ugM5fNn+qSWcDzQx4H3uVVGTG5xqcHifopR6hlGawQix4mZEdkDcS2GMY3kEgfZQ5IwA8UZVo0gdUHA/BJjJgOpToE3xRl40av8kU/lC4N4oo8sg2P/SJ+r1nlUypk1TUb+TGKRv5D/mGDbjU1HhvCRAGq4YZAW1/DQc5JB6B5PvklIPYkw4N2g4/F8ELZFr8JyQ+Od/ogXDqb4uRygOd5BisWOtBgG1hHnOhqEtKwxZzRlrDsdw2SCRKZhGOFGgdRzHvwLOSF7EtlP8qQ6Zbg2/SM6Ma3sfCcCHcNYsxP0kaP8tv6Y9MXX6grlFmlGnrapS/F+hytlo5dgKMlmJPmkqD6a1XidRKwDVLwSDhhGTHfTeRU9VyU4eS5DpkaFg+46zqVCTEpcZ6zJI5WAw88np/qck75+wRVr93RBt18u7euZNs0SZUOtWsHZFOZAutCrUrQrXopp2O6B1jjEZ7AaYVQo/BFO4m6YodYPh9d39jhDyu5VfX5Il5+/rk0yR68/kz3b16hHhtIaAMlbu125Ng3EW/Kfq8F++pTdppqmVS//9Td1xEbrmQAE69Gw9DKwKEAIvIovAuzHR76pcMGHQXUaFee0n74bwshvUT6YxGKGk+vlMJA7ui/3+OGpOgh7kqNyIsMH+aYtpRPnHFzMd2xK9kz3CO/vHdqMBWonNZWu0rFpuzA4jLaGnNUO0JsM8CzOgwORpCU1C+7+OMYITW96OF34chzBK++N39P16gi82h+zEFqplNIy3c+FBeywljSEJc4/Rt6hqJ2mki/42BwXl2xYR0sIvT6LOfljfVOJjEXXEekrHoKgb77kj5cUdl0Plh026WKqk5Ee+feReSrZOk9dmopQEKFWVkpra5a8L82cYbFUIdulUdxAgpfQMLrU2PlIx5MPrZ48P7OPgD7UvaGsD1ph2nSfrKZVnD3dtqKpL00hzraf6XC5pg91rgoluOCzGJfZWlhdKLUW1SGTPJkmYaSGXCmuFNZN34MRjSBDXKrndTJyUadJWeLdDOaWzj7SgOuFL068/95jNeYPq498TIbz4FTTrtrxpi3/tOOXmoq9lP/pExnEd4VUad/+qC6pZuv9tr7iYHCNzFauFEIxpYGuM5h5Qg55I+etXcQ4MG/tkAxJ8pIT2qxF+cB80UQzMkKup1obfP5E0/LaFXxPG7i4hYhLDK7YdKSpeSsLwZ3JkD5Tx25XIySmYTnWoOsb1cgLboFbxFMk743EI4JnR1GaksuBBvxdYOVH/9OPRzbG0OVi8QldzzBaOAZRRq9WVqVQHeZGLOoqHYbmVizgHPRMI0RG1syO+MUB0Kc8copCJdyWZdACoj8bMRq7ws97lqQjHuNwYz/QCmQ50Qhb8+lZ0i8yCkEpQ/bP+hVZRkULUfGXG1JjIWS4lDDA7fin6uma2V0p+aBhzLqwLcQhi1bgLXyhB268qgw0eFSP3Y93MALkmMW+plmJZ33mue415Xadg319qFZnwFAczgPZuol15emWemFGVusRtWlZhE54Zmi6sgz9Irwbl2OeGhesGT4QCK/RiIhAmvMUYXqqT22tAY0OGyBYxOcyA453sMnpNd1Msy/Dx45Tbv55/4PTSkdMq4f3Du1u1p09jjPQKGm43mHaWIgMZzSneFvst16mpHaYOlntmZ42IK0NiZehp/C7ePmlGdIoRlfePdeO0rk6XYyojzU9qjlqRfMBazpy3mE7ONJUvqa1GRz6WTqhQJ5WjhnjyUvDttBJ5gEVhrFrJMAx1mhl6lLjcsVCZ8rO0mQJG5peD0lFGP+Cw47KGGJg4C34A35bxmNX+wn2NMOBn125LHnYESo71iKu6JgYDUNjfAYOeHcjCBx5FwwGSX/m9QAZ3ut1RiZIQNhcJrQI2sDTZCwakIGCjcR5039fm/QIRpZWd5FRiod8lAP+UReFWGeO8htNcSsiX1rD6NL1ikaDw94AOo4nz8+rs/OZrsk6NgU40ToiF0Lfu8+5KdZtmHpp1h0cT7ckm8q8dCkW9Dx0p4SrFFcKq9Mm/D0yEeC6b5WBNJEzi9YPTwtLEX73qkK1vsLHpPf3Z9Xp8yOdf1TnQTtN7z2UwdS67rPHMpZ8/eJNtthrFESjoiGVHR1gPdHwGZWa1bphqkOW99SVjIas66xT0w3svIuvGkeKKqHqpJr86riTVM2o0UBrDVaN95m+Icn0quafbZqUK9u4beVAc4R8/WJrS9e6cRSokmLG0oZ1NOA5FdBkThKg0kXK2jDW2tAga6CasJ4vw9WLGwzwcorSqjuY4gG9psYG7bpRFq742kJjUGlgyQnypLPAdXOMsP3eZ/toMBtrbMkD3EHRGQv58XQ0gQ+MoAXe08S5uTik7xjW/I1CyNAUghIfGdAGvJ6/PjVkZPevSmbIBJEBhQh5tiW4HCMm4zrJOphqJNfqWcEwLspUX+DXmoMx5GpEqPw0Qqz1XGoH5uWcc3v6lNETQjCIutZLs1O+qU4wzMHKeS755a+bp+a9U99IOu4K4uviyJWI0cKQ66ZrwYlOTgqcoex5uqBlYSlNG9axBNy2GuitQ53r0Fri6fOH1bvfVw9T8vvIR7SWq+9C7uvAez6pZVzoPlSbju7IMRqnFt9LvgRfzXGNDIE6RAtdkksOt1nDKPmBMOMFrtA3JKuBjQzkRfX8EZ+CYjZD4GrPOfh+qcP7Nl8rPWXN26YC0201FCZa2G3wFSTYMC28tV277OFgeVeXG7JTcsMyBZXJGtNHIk9QG0YQgU3hsSEndooSg07hmvwqveo373bfr9JuJZw++qNx5yPCHHCHMP8bJuswjzJcdb7AZR0Qh6/XbKNzYpws+9PQJmWpjBL7bcQbUMYmX23UvIU8Y+3Rw1w/WU5BdPCVSs1l2UczGBL1M56ex7YsBhO/wIhhwziFKeWyl0XrpUuat841nHKMgHUMbA4N1KVdVT/ciEZ9mFqooWxRmReJIuBrBRZPTqt5LsbRgQBHCgql7EC0XoMegQEfYVaahSLd1Q5Tdqqyz3JHfutZZwYAXMED/nAFVBE17SkEMdqJBE37QaMWoZt7NjhLOcrpLEccGVP+XIHHGU7TR/WG8Jell9Nq+2v9aQent04PCxnq36BrMlyDjEDXMCVPjcoQuPxC56PD0JKqyaTBRJzBS0YNnJCllzrfUoKcx5oGofa/0Q3jyYNNX7pGs+a5YWM9nxla9DbncD2UY6mtbFciRUejwewyJCALbKI7vkbHyCd/TRl0QG/56+KV/LEMkPlOvOlqo72d2Nvw6pWD8SKFzdw6jVM3HzfJ6VhliQ2G8Mhf7oLnTrCDKDLi8zRD/rwyBEwpLOJ4sg5rh7Hl37btgU3FCLgijsSwzXIF4F15FjOUMV8sjCy+43V0KqnU6F9qQdxHQB3AzuuYznRA7XV5+AKWCXmz/HQVr5CuzmPAdmFslN3wQEtjIHkl6JQFeQx0TMPWeU5wFqcfMFkcfnsnzGKTrBq6m/BZJ67D6ybwlnDUeS5FvgqbLIH1DONkMrcPkJ5M1EXT2XgZYdV12yvQWE8olDOvwyNo+1GpshKR4+jWrbG4PtI2roi33acZnS4N4KDDHznf4owCGxlMXgrhlX/Eu2hI0jiDa15bvohL+bXXCGsBdl4KdELmHUh7dV5LMeNh5KeXpyn8jaNtxQZv0GF9J89H7m8lGnsxWU5kUkQtfyXwUljQ7R17UkS+nkta4yMlkL92XYEmOhFsrzH8txf9+H/j1QyYhOZR9lujNqJ6q0NDFsFL5BcIC2sYC/oZsuW9QaeXEjo1V73YZQNW0otliSwB38iukSfJx9rIJdC/ENCNG0ZT3LZ8ihmLBqEY+SrwWiVgxdMpo1BugrtVOOJgit62mu/EHxdiEcZarsfWUQlimYfRDtQLE04GTLwtRPhCAagP0VmbnrM+y5Y2DEsenRuuPHwFfxq7dVJO4HoiCKx6PkQiKWPooLUbRJpxbCOMNJZ9vXhbRGfDtRQcgQcCTT4sZSc/a7yW5L8GuldJb1YCdDw2bhhd4RZnZHpvYsNKGzVNLMYiv9W9qDypIuY5KHNQDiVd6s8iCnMFlClm8aOuyCXQEuJOpTSQ1CjmuHI/IsnfA0WgJx9NfIQqEK/+HD2jj8ZkltjthkXnKOREfO7vwq/63vC+KobrTucjbsTZzn/Iuh26iJuQaw43JoOgMhU+h1vKXyJUQNDOrd5CIQVLXGgZecpRBpgbVvTRkdPQmVc//iQuRQb9HFGE9Z4JqJM0wBKVeH3Jnl0BuRAGRHHn826GsVYS64Wtm6cwC4vw3LRIoafCpfbwX3m1PTd1U0TB07vs813apt0FozKCwVx4Uk01ynVrNbzJJ5Lbs0egFesvXZhCQqOdkpbyRhTheVywb+Lq0YjdgUooQFYVt7VFnuxZz9wS51ShUHaB+roalDxPZQ5edKhLGl1ks03eWXTePX7ZfJTkWQqz3DuJliAolygb93SB6tg6XYy+XA9I34epgRd5UkcuwHJcMV9xpTUAW9HusqZEUcNMbsJl+cmEaCGFdEFv8BmWVwB1m9kCXgVpC0H9UsZfR9+wp5+vTJw3zMv1kgu574bnesn1sU8RrBVHv0z6yFYNEW5HXzaIq6K9bemmyLrEM+kibW3XM0DC2EXJhCp6ZH91g7hGwygaQTcj91J7kaUZRuS4bk6XFN6S4Bl3lLm/Bs/xngFN9kbaXNcirEESlNwA2me4msjaZ+n0w+UTfRw12CvPRAm8KDsxkb2Ng9mIMe+pbpzCLUToxtAbIvrqm644ecUm+1TlUCz80G9de9XUdcVMczmNIf4DZih+GiWHAkfg8xCfGSAfrj8rZKLAwCZ4LaC9dUGeT9eGXB9hFF0hjNjQG8LH3FQ4p+XY2Xg1xRk/ltBTT6U1DXcfakwHWnFSvjwLnYGmENNhi/Fjn04ppDTfFV0Ve+YESwhWCAt5Uo8MfSuTKyDcYJLgbYMobyWqbj43v8Z4K7PdZsqUz+t4O2JDb10hU0FrB3FeN1DBFtWfRfE1Tx1PpGsbwg6QMsANQRvLTBf9q/drkYCrnX6n6l+Cc52YmuhaWG8hNU6ugZ0wgjmxqA+TZZYnXtp/DZlamocPV4J+e60rMBHBqkWRNffLSzKbrx9KbCArMhcba8q41aiLedr16GU2winkagKvSDFYrSsSxIWOfmCMygN7DhNxuf1UV7fNeum1E9ZOsP5bjR4PjOvJA34tTzaJaiE66K9oycnT1CnXZ+LWYJCyqEw2nzOXn8sU+TFa1J2fUEIH9D86KEa7qxeZfPqjncSvJXRAx5Elyr2wEg6i5DcPi7jOM0PvCtKJB4WxLcAWbAdu2dduaUCjx24vAJh2IDzVYi0yWAxclt2F8EblJkhZ/Q12XBb1zTc3QT9I39Czbl8zevVtRllY7vURY60VedRiP1cwtVVscZqlINYppBHGvKHJNztkhCQL3krCHON9qAGBDeQUFPxigS6mxKwBBWQXpvM+EayTarnXHg0vb+NWcTyRpcszoUYQAbActdsNrfyuWE2G84XgkLGepm/Izd79iZcATKV7u6bAg+O3GAvfAAwpaCQ2GGFIpEi0Un6d6Ryr04eFVugmXjoYkzgXYe7JiUx3ULVxhFDaoRt/W0ngK3CR2jhPmfI2mv8VaNyiJM2gZzpTa02l3pC6TM/NBiFzYS5rJHtslBSxB0RDFNrpI9oCyK0JCk5ps5GPGcc68NawuTFGKBv+bbYriMAW16JGL0ayI1Rd8S/G3MZH+loFya0CrFzbYKNvTfoGDByl8AbiZn19Xsj5stJajudJZbgcypWhTU/sBxS1Z2V8tz3hKrJfyTCubSiuSZJtvsYLHFg+K8VlvnSTmXq1CqNwqgjCtKrCOzU7hZlniZ9xLhzRKgW3kIW8npeYiPhSXAk5YrJ/ipTfjroIx9yu1JMcp+Ip4b4jYZsyik15UwjonQnX9IytIk38sGDq4vOkRcC8SAKnq3Kk9mQR17UNSe2LuLuBY+U/FtfFs/n3LK9iJJfJ5mm1MdZybQff/FsSwdR9SLR3JqcXW3BryWld2a9kGFclGgZmrRyPJG7xVawB3UDXmHp+fQB34I3ndedjgI2lgnOdzpqGGkfEl+JqoDvumdoQ3MVsRvkty7un69aDZbHcIXhlmNxet56bRFctlGsW5y1l65pzvR76lQzjKiRv3piUqkJa4dvZ0ed+9MFYjRL18W8fIXJc2LTbtj1YFkvKHvnoGcl6cWZcOpyryh34OkGKbo/ArOcOnGJIbaPchMTiFONPne2q9+AHHaVKomgqSMSBzyMjPWgbuEREjyaetM0VcIy0bauIxLetL21cbrlKNRQaHNfp4xuHlEmUy3XSWhV3jzf4TWXjX5lIZSzh2UamvCAIg3CdoMsFefewAAnd8GQpspts4XsoD/RXxbGQyMYBQhYhr01zHmVpH/itiW08GxMRUkahSJ4k+JuIoAcGtk3LrEdkwwHr5jln58YMY070dvuvVyVyZQtKbZUuSUcQSjjWMPWVIsca/qAe711ahAdMN27oPUzrUPyr8FEJIO6h4hhN2I3sl52318uWZxfvq/cxCVDvrF6+EvOYmO5c3P8PGZWRfrN6nTkAAAAASUVORK5CYII=;" vertex="1" parent="Buge2XaDmnBFpNvuWRcV-37">
          <mxGeometry x="263.0596194848821" y="437.3760975377163" width="138.7080701754386" height="66.30065614035087" as="geometry" />
        </mxCell>
        <mxCell id="Buge2XaDmnBFpNvuWRcV-70" value="" style="shape=image;verticalLabelPosition=bottom;labelBackgroundColor=default;verticalAlign=top;aspect=fixed;imageAspect=0;image=data:image/png,iVBORw0KGgoAAAANSUhEUgAAARgAAABsCAYAAACxSq3vAAAMS2lDQ1BJQ0MgUHJvZmlsZQAASImVVwdYU8kWnltSIQQIREBK6E0QkRJASggtgPQiiEpIAoQSY0JQsaOLCq5dRLCiqyCKHRCxYVcWxe5aFgsqK+tiwa68CQF02Ve+N983d/77z5l/zjl35t47ANDb+VJpDqoJQK4kTxYT7M8al5TMInUCFOgDCvAEZnyBXMqJigoHsAy0fy/vbgJE2V5zUGr9s/+/Fi2hSC4AAImCOE0oF+RCfBAAvEkgleUBQJRC3nxqnlSJV0OsI4MOQlylxBkq3KTEaSp8pc8mLoYL8RMAyOp8viwDAI1uyLPyBRlQhw6jBU4SoVgCsR/EPrm5k4UQz4XYBtrAOelKfXbaDzoZf9NMG9Tk8zMGsSqWvkIOEMulOfzp/2c6/nfJzVEMzGENq3qmLCRGGTPM25PsyWFKrA7xB0laRCTE2gCguFjYZ6/EzExFSLzKHrURyLkwZ4AJ8Rh5Tiyvn48R8gPCIDaEOF2SExHeb1OYLg5S2sD8oWXiPF4cxHoQV4nkgbH9Nidkk2MG5r2ZLuNy+vnnfFmfD0r9b4rseI5KH9POFPH69THHgsy4RIipEAfkixMiINaAOEKeHRvWb5NSkMmNGLCRKWKUsVhALBNJgv1V+lhpuiwopt9+Z658IHbsRKaYF9GPr+ZlxoWocoU9EfD7/IexYN0iCSd+QEckHxc+EItQFBCoih0niyTxsSoe15Pm+ceoxuJ20pyofnvcX5QTrOTNII6T58cOjM3Pg4tTpY8XSfOi4lR+4uVZ/NAolT/4XhAOuCAAsIAC1jQwGWQBcWtXfRe8U/UEAT6QgQwgAg79zMCIxL4eCbzGggLwJ0QiIB8c59/XKwL5kP86hFVy4kFOdXUA6f19SpVs8BTiXBAGcuC9ok9JMuhBAngCGfE/POLDKoAx5MCq7P/3/AD7neFAJryfUQzMyKIPWBIDiQHEEGIQ0RY3wH1wLzwcXv1gdcbZuMdAHN/tCU8JbYRHhBuEdsKdSeJC2RAvx4J2qB/Un5+0H/ODW0FNV9wf94bqUBln4gbAAXeB83BwXzizK2S5/X4rs8Iaov23CH54Qv12FCcKShlG8aPYDB2pYafhOqiizPWP+VH5mjaYb+5gz9D5uT9kXwjbsKGW2CLsAHYOO4ldwJqwesDCjmMNWAt2VIkHV9yTvhU3MFtMnz/ZUGfomvn+ZJWZlDvVOHU6fVH15Ymm5Sk3I3eydLpMnJGZx+LAL4aIxZMIHEewnJ2cXQFQfn9Ur7c30X3fFYTZ8p2b/zsA3sd7e3uPfOdCjwOwzx2+Eg5/52zY8NOiBsD5wwKFLF/F4coLAb456HD36QNjYA5sYDzOwA14AT8QCEJBJIgDSWAi9D4TrnMZmApmgnmgCJSA5WANKAebwFZQBXaD/aAeNIGT4Cy4BK6AG+AuXD0d4AXoBu/AZwRBSAgNYSD6iAliidgjzggb8UECkXAkBklCUpEMRIIokJnIfKQEWYmUI1uQamQfchg5iVxA2pA7yEOkE3mNfEIxVB3VQY1QK3QkykY5aBgah05AM9ApaAG6AF2KlqGV6C60Dj2JXkJvoO3oC7QHA5gaxsRMMQeMjXGxSCwZS8dk2GysGCvFKrFarBE+52tYO9aFfcSJOANn4Q5wBYfg8bgAn4LPxpfg5XgVXoefxq/hD/Fu/BuBRjAk2BM8CTzCOEIGYSqhiFBK2E44RDgD91IH4R2RSGQSrYnucC8mEbOIM4hLiBuIe4gniG3Ex8QeEomkT7IneZMiSXxSHqmItI60i3ScdJXUQfpAViObkJ3JQeRksoRcSC4l7yQfI18lPyN/pmhSLCmelEiKkDKdsoyyjdJIuUzpoHymalGtqd7UOGoWdR61jFpLPUO9R32jpqZmpuahFq0mVpurVqa2V+282kO1j+ra6nbqXPUUdYX6UvUd6ifU76i/odFoVjQ/WjItj7aUVk07RXtA+6DB0HDU4GkINeZoVGjUaVzVeEmn0C3pHPpEegG9lH6AfpnepUnRtNLkavI1Z2tWaB7WvKXZo8XQGqUVqZWrtURrp9YFrefaJG0r7UBtofYC7a3ap7QfMzCGOYPLEDDmM7YxzjA6dIg61jo8nSydEp3dOq063braui66CbrTdCt0j+q2MzGmFZPHzGEuY+5n3mR+GmY0jDNMNGzxsNphV4e91xuu56cn0ivW26N3Q++TPks/UD9bf4V+vf59A9zAziDaYKrBRoMzBl3DdYZ7DRcMLx6+f/hvhqihnWGM4QzDrYYthj1GxkbBRlKjdUanjLqMmcZ+xlnGq42PGXeaMEx8TMQmq02Om/zB0mVxWDmsMtZpVrepoWmIqcJ0i2mr6Wcza7N4s0KzPWb3zanmbPN089XmzebdFiYWYy1mWtRY/GZJsWRbZlqutTxn+d7K2irRaqFVvdVzaz1rnnWBdY31PRuaja/NFJtKm+u2RFu2bbbtBtsrdqidq12mXYXdZXvU3s1ebL/Bvm0EYYTHCMmIyhG3HNQdOA75DjUODx2ZjuGOhY71ji9HWoxMHrli5LmR35xcnXKctjndHaU9KnRU4ajGUa+d7ZwFzhXO10fTRgeNnjO6YfQrF3sXkctGl9uuDNexrgtdm12/urm7ydxq3TrdLdxT3de732LrsKPYS9jnPQge/h5zPJo8Pnq6eeZ57vf8y8vBK9trp9fzMdZjRGO2jXnsbebN997i3e7D8kn12ezT7mvqy/et9H3kZ+4n9Nvu94xjy8ni7OK89Hfyl/kf8n/P9eTO4p4IwAKCA4oDWgO1A+MDywMfBJkFZQTVBHUHuwbPCD4RQggJC1kRcotnxBPwqnndoe6hs0JPh6mHxYaVhz0KtwuXhTeORceGjl019l6EZYQkoj4SRPIiV0Xej7KOmhJ1JJoYHRVdEf00ZlTMzJhzsYzYSbE7Y9/F+ccti7sbbxOviG9OoCekJFQnvE8MSFyZ2D5u5LhZ4y4lGSSJkxqSSckJyduTe8YHjl8zviPFNaUo5eYE6wnTJlyYaDAxZ+LRSfRJ/EkHUgmpiak7U7/wI/mV/J40Xtr6tG4BV7BW8ELoJ1wt7BR5i1aKnqV7p69Mf57hnbEqozPTN7M0s0vMFZeLX2WFZG3Kep8dmb0juzcnMWdPLjk3NfewRFuSLTk92XjytMltUntpkbR9iueUNVO6ZWGy7XJEPkHekKcDf/RbFDaKnxQP833yK/I/TE2YemCa1jTJtJbpdtMXT39WEFTwywx8hmBG80zTmfNmPpzFmbVlNjI7bXbzHPM5C+Z0zA2eWzWPOi973q+FToUrC9/OT5zfuMBowdwFj38K/qmmSKNIVnRrodfCTYvwReJFrYtHL163+FuxsPhiiVNJacmXJYIlF38e9XPZz71L05e2LnNbtnE5cblk+c0VviuqVmqtLFj5eNXYVXWrWauLV79dM2nNhVKX0k1rqWsVa9vLwssa1lmsW77uS3lm+Y0K/4o96w3XL17/foNww9WNfhtrNxltKtn0abN48+0twVvqKq0qS7cSt+ZvfbotYdu5X9i/VG832F6y/esOyY72qpiq09Xu1dU7DXcuq0FrFDWdu1J2XdkdsLuh1qF2yx7mnpK9YK9i7x/7Uvfd3B+2v/kA+0DtQcuD6w8xDhXXIXXT67rrM+vbG5Ia2g6HHm5u9Go8dMTxyI4m06aKo7pHlx2jHltwrPd4wfGeE9ITXSczTj5untR899S4U9dPR59uPRN25vzZoLOnznHOHT/vfb7pgueFwxfZF+svuV2qa3FtOfSr66+HWt1a6y67X2644nGlsW1M27GrvldPXgu4dvY67/qlGxE32m7G37x9K+VW+23h7ed3cu68+i3/t893594j3Cu+r3m/9IHhg8rfbX/f0+7WfvRhwMOWR7GP7j4WPH7xRP7kS8eCp7Snpc9MnlU/d37e1BnUeeWP8X90vJC++NxV9KfWn+tf2rw8+JffXy3d47o7Xsle9b5e8kb/zY63Lm+be6J6HrzLfff5ffEH/Q9VH9kfz31K/PTs89QvpC9lX22/Nn4L+3avN7e3V8qX8ft+BTCgPNqkA/B6BwC0JAAY8NxIHa86H/YVRHWm7UPgP2HVGbKvuAFQC//po7vg380tAPZuA8AK6tNTAIiiARDnAdDRowfrwFmu79ypLER4Ntgc+TUtNw38m6I6k/7g99AWKFVdwND2X4regzNzRVzqAAAAimVYSWZNTQAqAAAACAAEARoABQAAAAEAAAA+ARsABQAAAAEAAABGASgAAwAAAAEAAgAAh2kABAAAAAEAAABOAAAAAAAAAJAAAAABAAAAkAAAAAEAA5KGAAcAAAASAAAAeKACAAQAAAABAAABGKADAAQAAAABAAAAbAAAAABBU0NJSQAAAFNjcmVlbnNob3TKax50AAAACXBIWXMAABYlAAAWJQFJUiTwAAAB1mlUWHRYTUw6Y29tLmFkb2JlLnhtcAAAAAAAPHg6eG1wbWV0YSB4bWxuczp4PSJhZG9iZTpuczptZXRhLyIgeDp4bXB0az0iWE1QIENvcmUgNi4wLjAiPgogICA8cmRmOlJERiB4bWxuczpyZGY9Imh0dHA6Ly93d3cudzMub3JnLzE5OTkvMDIvMjItcmRmLXN5bnRheC1ucyMiPgogICAgICA8cmRmOkRlc2NyaXB0aW9uIHJkZjphYm91dD0iIgogICAgICAgICAgICB4bWxuczpleGlmPSJodHRwOi8vbnMuYWRvYmUuY29tL2V4aWYvMS4wLyI+CiAgICAgICAgIDxleGlmOlBpeGVsWURpbWVuc2lvbj4xMDg8L2V4aWY6UGl4ZWxZRGltZW5zaW9uPgogICAgICAgICA8ZXhpZjpQaXhlbFhEaW1lbnNpb24+MjgwPC9leGlmOlBpeGVsWERpbWVuc2lvbj4KICAgICAgICAgPGV4aWY6VXNlckNvbW1lbnQ+U2NyZWVuc2hvdDwvZXhpZjpVc2VyQ29tbWVudD4KICAgICAgPC9yZGY6RGVzY3JpcHRpb24+CiAgIDwvcmRmOlJERj4KPC94OnhtcG1ldGE+ChvijkQAAAAcaURPVAAAAAIAAAAAAAAANgAAACgAAAA2AAAANgAAR/tD1q2yAABAAElEQVR4Aeyd538d13nnn9vRGwmwkwBJsYhNrOq2RUuO5CJLlhzbiew4tvNis/lfNps36dl4LW1sSVazYse2JMtFEiVS7L13AiBAol7g9v3+nnMHhBjKhY79WXrvAebeuTNnTnnmPL952jkTm5iYqNitmMolq5RytLxisUTSLJZkL2ElelMq6ygpxj9bPM4WfvqJik6SJ0bmmHLGlfH6DLo2XFzmi+y+larfKi/NlmCrpRoFahS4MQVityzAVIQiRXoFQMTE7nHAJW5l0KDMIWGIA4swQpv6r4N+DmCJVSxPBgFGgoNxtgQQEqPcSpFyVYiuUtmA1xSUqFrO+eFUVDCna6lGgRoF/hMFbl2AcaSQXOGIYZVKDICRPALT862va8CiPGyASpBDBBAxACZlgiggCSgpO8DEkYxiJWDHAYZCHJoCgFkFKFLZAphEzGICGL5rqUaBGgVuTIFbGGBChyRNlNCJKgCIVJoYokXcvznPsYpUqWKefaSTCHEcNxL8ziDBAC8CFG0OMgIPdiPcEDBVOCds0kGpTdQRi5NJko1EmVqqUaBGgRtS4JYFGJdFxPsIMWU2qTaOH9JoHByUA4ABOCrFArsCDp30wwgmKaSPtNtsikWBVIVyBEIVS6bilkAykYol0KlUCmxFLkWVQgoK5Sf5neG81KdaqlGgRoEbUeCWBRhpMOCCcMMNrcIC2VEsJrWpqjrpdzWPkKWCaFLkwnwR0ImlLZ7WMbN8oWIFdKV8VVBJgD0pbSCWCzPkiVuB/QKlADYoVnHUpWSsgeMy9dZSjQI1CtyIArcswMhbVBCOkKZMIRyT4VcAIGSRumSoMsgkluNcFiAZnTQbyU5aFjDJIcEg21iBfQFMqRgKTCLp1COctDTErLmODbBpQGypi5WAkxw2GjaQKZZoALdqAAMJa6lGgRtS4JYFGEkwAhhhigOMdw91pgxklEELpI5YMm3FWApIMBvlgv7Ril0aYhscsYujY9abzwI05HXjLfJPSRJLwtLxpLXUZWx2S4PNa6m37va4zQVsZkqqodxKcYLCAbB0BpCpqUg3HFm1gzUKQIFbGmCkIglhpMa4uUROZ+wlDjAYUMrJOpvgzDDiTt94xc4MVuzcYN7OXx61vtFRG8mPETMjaSe4oStlvgEbwUxdOmltjXU2tzVjS2Y0WE9r3BY2xawrEwOAMA0nAJgUNQdDDWXUUo0CNQpcT4FbFmCELVKTZOSV2SXhO5JcABlJF0ghedSXq6DQ2ZGKnRos24nLE3YBgBkcKdgkBhewBBsMIgkAIzUqckN7nAtglYgXrCFTsq7mmC1oT9ptXWlbNAPQaUlbC0ZgBJoqsF1P1trvGgVqFBAFbnmAkT1XABN3gBG4yBMUxwqTtCE6eBa16EBv0U4MTNqlqyW7Ola0ibGCe56SmSQmGgFLkGAkCpUpp4IRuCzJBntOPF62ulTZ2gGZeTPjtqSr3lbPabH5DXFDoHE/Um0o1ShQo8CNKXDLAoyAoFiNT0kCJjK6ujhDP+WOllp0ZrJi+1GL3j875uBSLCWtkCtbfnyMvHlDgwJAUpYp1rnHqJDJWSmWt2JJbmnFujRRZB1Zk8TTFS1dN4IEk7CtPTNtzcy0tdfHrF5izHVJMTm/TvKpCL9OxlqeGgVuUQrcugCDClPA3qLg3FQFTw6AMD314jZ6f7hsey/n7dDZCRsdlXQDGkjSKWUtlSxZQ1PCWlNp6wJgMsS/jGXwLsVzNk5gXrYYtwmOFyfqAKS0leVqil+xGRh8P7J4pm2eU2+LWmPWCkgpRWDxYeBy/fEQFCj1rJZqFPjDpcAtDDByRmMn4d7EC4CLJA7hh+4Vdt6TI2X7Ud+wHbqcs8tXUpbFyFsu5y2RLON+Tlg3yLCuq8m6G+PWwkVi9TEKG6GEYTxRZ/BnH+obtcuoVZNZgAYXdyw2aY1tKVu+oNU2zK63TTPiNg/vklIEMP7jBr+nA4z2awATUar2/YdMgVscYIjehVkT8kMDEaU6TXgkPoUJ4gcHC/bShX47OVAEIFosn9eUgFGra6jYks4m29DZYHfOytj8RqlW4RYX2c2yj+BjpwGYXb0jdqx/0nqvVCxH/IxsO5n6pLW3ZWxlV8r+aEHalreinmEojjZvSQj1DYVO+5wOMr8s37RLars1CtzSFLhlAQYfECoSagvBcelJWXmZvNiA5wjXUAHD7u7+CXv5TJ9dAi0qpZloRrifYyM2o9Xs3oWtdgfgsrCpYo1E8xaRfpApsLMgFaFCZbHBXMlXrHciafv7c7b95BUbHsE1nWwGjACqXBZbTMy+tKbF1s+qc3CJAz7apgPNh42MCGiUt5ZqFPhDpsCtCzBILgUZU5nomM7JPU2of13CJspxGxmPIX1M2PdPX7YBAuvMZri3KJ0as54ZZg8vbrHVRM3VZfASCahc0ZLbmblLgFaeI4VyiikFGdvXX7ZXD1+wi0PMRUq2WxFJaPLKiM3pMPvqxmbbPK/OgSUCmAhkftmgqQHML6NO7dwfEgVuWYARbCC/+LSjhK8wVQYWyjZKNG5vPmF7kDzePDnkAFMuNzKBMWFtDXlb3QXALErbbe0YbpOCF7mpq4UhDVXwFlXS2HYqKUtMJLDhlO3fjl+0Y8OUnmizUi5pk0Mlm99esafWJ2zjXFzdSC6JBDHAbDWA0U2ppRoFAgVuaYBBMXLjLA4g1KAyM6KLhqBh54sAzEDB3jqBkfYKylS5nonTcQLmSqg0Zo8sTNgCjLWaRlBmAmRCBXFdCc9TheC6OHaaFLEx5fG4XQRg/vXUJTswjPs6DsDkM5YfVuBdxf5kXdnWz0G1qoJLDWBqbFWjwAcp8AcHMFcBigsAzG7c0wKYAQeYBktkrgeYpANMCQkmKQkGL1GRGJlKDIWpEdc3f+WxuF0CYP7X6V47MCKAaQVg6rDxJGwhAPPFNUVbP5so4hrAfHBU1X7VKFClwC0PMFJv4pozwMJSUpFGAJjeHACD98dVpKsST1oswRov7Y0FW9MVs4e707aU0P+SpgrI/kIAns87yOPfZp5RvF6TBzJWmYzZUWwwzxzvs6NIMFKRygUkmLGyzW9DglljuKu1bkxNRapxVI0CN6LALQswgo1ggwEiJgEGvD85pJRsiSheAnV39o7bD05dtsFhMsY6LZkEMjLjtphw/4eXtGLkZdZ0klnR6EZ57DboSlYvdYmQGorgaAahBlWrr2QvHrxs56+wKl4KgCmy9MPIhM1uL9tX1mYIuEvVjLw3Glm1YzUKQIFbGmC08kuMVegSE4IaFpKqT1gOoJgcMbxIY/bK2T7rG9aymV3YaohXSYxZJ5G49y9qs3WzUgTJ5awhCcAUiGPBn1SXJFIP13EOsBoqJOwSEsweJJi3jw/alWG8SKkmHzSVQs7mtZv9ye31toEJkHI3S4qJDLy/yv1c8yLVeO//FwrcwgDDMpeAiiYIEN3vqcRSCoroLyPBHBgY90C709hg8hNtVgAwKjZu9cxQXD6rmUC7OtswI2nz6ylB4hBfsSQxMeyOMgP7JFMLdlwatcNEAl+8ajYJ2Gj9qiTBfJpisKwrYY8uzNiqtlqgXaB+7bNGgf9MgVsWYJBLABi9DQBgwKirpMW6tT5vBW+QbCY/7hvCzczyDFfTNjkhBGGONdOW2prS1g0wrMIO09OYsRksvZBhm0SAYYaBDU6W7MRQ1vYBML2oWLl8Ex4qBcWNW6axYrM7623NrLRtnZu2Jc2aiU3R1wXNXf87klqUV/s6f30enaulGgX+kChwSwMMjumqm5r1XNwgw62RR4h0gekCO67m3dh79AITGJFq4klWoANn4uUccTF5q68vWDsr1y1Od1hLOmHZTNmGi1m7PDRkg9mijU/iMSowo7rU4MBVLl+xemJpViL9bJpTRwxMPWvDgEqkCCymA4mfqH5cf7wGMNOpU9v/Q6XAfx3AOGNL16hyePQ99WSXBKB1+UMOvV8oHKmSlh/6/YEUFTX94NQx6mKtFk+4gzRJ2l/pqPoIoBtCzTnBxCLNpt55dsT6cS+VK3U4m5izhA1FyzXE4kx+TGWsI9NmTazynU/lWLd3jJnXwyzrQEWxNrYWZmynvfxSaYiV7iZY3S5ta5lqsI4o3vntGdbvTbLKXVhZL3Qw0KHM1AM1t4zEoqkIcdBNth7NAPfE4lh6AZx6Hvquz+upEH6rhOiycEW46vrcoeBf55PyFAlNuh4cw+9qyWp7Nd/0vH5h9OFZo5YoP+T166CDN1bSWqjHexrlVz79VcvX62aUMfodFe8XV/Mpa7hcZQa6Rfn1/auAW3mi/Con6rvqmjru7bjud/W+TLVX/SJdX98Hylf7VFY1faD8awedRPp5jTbRyUC+G14XZaE/ehuGUmQD1L6a59eJYFHSLs25ns5RG6N6ouwf9h3l/7Dz04//VgCjtk+Rj31fD1e+HS36FHGR3ywpMoqa1ZsU9YI03WStfit2C6l6T/3H9DJFKdElfOibX1qQV5k8wo5vjWMRWRtzkmIpPD0w8yDu65OoSnsuDtnxgQnrHytZLqd2CDBSxLTIqCvvEp4ggmEqzJYus95ugZmNFYzFWtQ7FmOukVzWCuQrjLOfYwGqis1ti9v6eSlbOavRFsxssHbsPxk1y+81NMDdXeGHXOd59ZfeJmMZmZqJEg79KVOf/FWigv4CNUQRda5KBQij7EToqJv+rdI0GGm1X8Xh3zhVQOSSvwsqxPGogGu/NaeKdng7Qz4NvvC+Kc5h0FbyAUkzfcBFjEQ+DXiVVeQNmX5d1QD+wUBELqR8resT1StPn8oqcX1UNgeccfRb+QTWooyHBrCgu/ZVn85r0/WqR99ehhpaTTqmvGoXJ5l7FsoO/aF8vW2CvIlkuL5E6INSXPWoPPYjunnZPCS9HdX6lFflFwp4NUkpHlo6r6T8UT+j9qkNWj1RNND9Tiiv3r1TTaG+a9fFp+rRGSX1BxtjHg8nKZ1OU0YwF0T1iS8cuGi92qaHnNOZekRnpelt1HXet+uOK5+Oiw7Kr+9fJ900wKiLCj9REgmdjCxzADnUbY5w0tvAhwar4k3YrgEMBKWRynKjtvpxznmq1uMdF7hoUwq09KqgXgAZVccAKUPoSQrumyjascFxtiwgM2kDWeYslXnhGvEsxZyAhsWkAAwjwK6C6iSQ1MvaNOiSqToGq1QgBhedLeYItisQD0PEcH192Zbg8l45p9GWzWm3hazZK1sONmDawwCmPK3bK0+XhCEtLJFgCU8mEwAy0Itjet/SNYBRj3Ux3zrne9Srn9HGMYFLOKfu3zzAaLAp8lklasCrXg1WJQcSfjtTMajKPhUjMLYPLN0wttAS7VbzqmX65xoxkzYflAxmDfwIYPyGk09tKFcZTGUkWV1Q30Xa4feafZEjFCtGVM9JHEswplSmTqsc5fe6uCZi4OiYX8Jxla28EcAkq8d0Xn3ROU8c9zbyQy/rixhKtasNJQAqAN21fum60J8AmKor6q/21ZYIYPRbfy5JeJlVQKUCr8/vh+qq0kftUp+rADy9X6qz4O/9AtDwgiaIs1D5VOj3zWnCxQJGf8Eg55RPeYq6/3xHwB6VG7Uz6rf6puRlkd/bX/0OZz7886YBRkMRdvQnqm6zhmh4/WoYiBoUvokyYhy4xIeHf3BI9zAh5NUgV9YwgIS36nRgNpUsptP5cL06qTc5KlsShtaf/9BnFXyceRmAFUBiHGDoxx5zDuvtMaSYC1cLNjDOnCVmS+cIeCkhqTjxGdRlfwOk1uLlJrDodwPvLslUb2qeeUrjk3nLTeQtn9P7kUrWBMjMa6+z2+a02QrWllnZEbdZvObEACFgzAFQQFXW+sDM2PZFyqFUkvIFMqx5pXEQkrqhxG8NXvXTf/DpPYxuqNOGY1G3o+t07W+Q1GcfYNRzbSBNG4hUHzGqF6vmMJjVruiJG1fQEK3TMf3pX+3yAV5tp671JvLbj4dfgLgYvSoxwFDeBuiibktyUHmSHMRAekLrd0pP6CrzqSxYyUsLtBItwxM21BN+f+gx5aVtoR1VoOVei/ahPpZDzSBx8rAKxFZPwr0pApxqqAAukm7ElJJcVF/EsBGjRnRUuxwQqhJOhsXO1G8lgV4uh+pOozJ1SM3QIq/yGNPKI1pLstJtkKSlcqK+RWWoPikOyuvXiOb+R7vhmQBEod26Ni9gIk8d9anNOqYtkjzVXm1R+9VOnVfdOq469P3L0k0DjD+ZYTLxtJA4QEHojg87jruWJIpM36LWkCkWH+fiIE7qsMpyIKE8yMoRwZaIqt/ayMMmFUuFR7WFoRYgKQYh47opWoBKzE3+LL8HBTJXWYKBBcD7WZP3CmAxgsQywU3JM74K5CmBAJKq6hnETdhVOhqYcc0kyTLHRvNlv25wLG/joyytyU1OIKE0EHszl3lNy7oabOO8ZlvSQsQw3ipf9UqtZqCgfxG8FxfkQDGSAAYVEZtyoJETLPRN7WXocCOVk+vpaxxwFn0D2FKeRBrRLwgeKvE3ThGoasBokGmYiL7jY+PW39drI8MjACn91KDV/dDAgrZiSH96c0HCJQ7dN67UxUpqGvlDmZRLX8WIKdTWdIaVAwGJTEZbndXV1yPWZ4JoHzEy5biKRIFiFD1McnkeZRxPpVM8VKCEBrb/eXWh3mmf3qdpv2/IBBSovoyNjNiF8+dthO8SoCuQmJhkYbHGRpu/YIHNmDEDabUeaTZ4C1V2pFpIjQyUgwaUpWtVl1QjJQGGjolhx8bG7OrVq9j3Rgl5mLQmyu9euMja29uduR3Y/MEUVB31UQ8AkVUMHjGzfkvSlOSntjjvcV77EcClAAsHPvJGdBoeHrYzZ87YEA4MEVPqVFNri7W2tlpbW1voI9cp6Z5PBzCBz1T9XKtzStEx//EhHzcNMGICrSinqgKRq1wSVaQTUEM2CUkUGsBaHCokDUDt4dpBlWDE+G8vR/s6qUHNt28asHBUuDooYKq/yoLkCtcI0GKARBLiy9bh5aoa6tWKDsNILUwpsjG+wRgMuldZFnMCKQcJg62EXSYFGDQjQrbiVWpHGtGbSRRm08v6vscI2jtJRO+lwUkWoALI8HnHsLWk6MeclphtWNBia3BhL21NWYtsOrLlMGj9PdYYnsuUmYcgE0W9uC1hDfEG6qN5bAhSTkvYlz8NLMlywQ2vvmgT0CAOUWagRwwJTnS6uRQGqAONBg2DSgPrzOkz9tZbb9mhgwft4oULzhA+2KoDWrRUnRrYAoDAZLSA34GRxbiUpzIZiGKOOiSB5pYW6+zqtK6ZnTZz5kybN2++9SxebDM7O32wCzyU1+8Z14Y/ulstJ9hqoAeAJQaWvSKMuw/2Xoz2YQygc1FyoIT5Txw/bq+9/rodOHDABgcHbRx3oySHRd3d9uCDD9q6O9Z5W5tbWAuIFJWhdqmf04r0c2I69UO0nJiYcOAaGBiwI0eO2LZt2+zUqVN+fHHPYnv0M5+xtavXWGNTI+CbqfafPgOqdM5VIpWnB9L1/fIMolK1v+qz6tR9SSEZaVQUeZug+qn7cvjwYXvhu9+1/fv3u4TW1dVlGzZvspUrV9rChQutk/vQ0MB4hLYqS5uAUUkAoz6pHG0RDcL99iwf+nHTAOPoEZ7HdFOSQpAWHFe4j054jUVtVC+Q8U1N0QGlqg2CVnNMjYeYOqfr9UHyrPrwPH7IP1SP4E1siNzBBuOBOPC7T17Uw716te95iRTJfEbUFTbyFfAK5QCYiTJveGR5hlIFkZgZ1k0wrsJbmgm80/3VhIKLGFIOAzCHeP3JsT4GDktwlkrYcBAzy8URXm/CoJyRZqW7Bls7u9kWsSxni7dMN4lWSp3DQFOggeNFjLsOMM3XAQzM4eAiFUHWKvWK/vA5JcGg1lUAGafXbwUwIosGaBiYeiprgB5hIL7y8sv27rZ37eTJkzbEU9cHVLgdnt8ZgKujQaeSPOkeifGqmwap8mSQUlp5WnZ2dlnnrC7rYjDPnTvXFi7qttmzZ1tHxwybMXMGYDPTGniy+32jjKAq8YubIIARwyj5E1VqgMaMqOSDTSQJ++qH0vT2RW2K8pZhnjySxJ7du+2ZZ56x99591y4DBJIudNOXLFlsD33iE3bPvffYHevusK7ZTMOHBhqXoSx1VfteldcdMaC+1QZJMJKMLl++bDt37rRXX33V9u7da5Imenp67MnPPWH33HWXg1lHR4cDLd1BEqGflJEGdGXYVRWq60b9CsALJ0i6JA+XucSoi2RjE8gNXR2y7e+9Z08//Yzt2bPby7ntttvs048+apsAmXnz5jnoC2Ak2UR1RQAjOka0/HVAJVCkShcaUCXR9MO/xr6Iqxupq13qECuI6WEnjTM2Ecs3vnRWPx1kdJ7reACEy6vnprJXj/tJfbg6BDIIraq/2Qn7+mS1uhJMV2ZTGTLehXqVX1CkTce4WZzTMJWaVS4jFvOnZRtKGGDLWgOGfPIGZbgGLOca8iPVDCAZnYRUx5g8eUTRvYNFG2XZBrmzY0hhcTxCKaCoq4UAvvkzbHUnxl8Mv3izHfikMsV4/UmMNYHz8jCxHES6xKxKNVFNE4GEjlXpRW1WX/ykqEcf1U9JME442kWzA2E93818iEECsITBGZ50L7/0sjPcuXPn6OOISyrB3gAtGPzZiSyDtBzUFaoVOElkD50RyWibNo5ET3Q9VevrUZHq6lErpfNreS+zDqSZ5cuWu6Rw55132vz587kIoKA8DXDlcfWE8sRMaqe3ldJ90HNeQKakunQuYoxItNe56Ims80pFpJTJ8XFnvG9+85u28/2dbqNQmVKPBIRLFi+xDZs22kMPPWQ9AI6SJALZYFRMYDrduNBn36l+qB7VKbVFQCMJ6ZVXXrEdO3bYxYsXoQEPotWr7c4td9rWrQ844GishZuuB5vsLlIHwyhQq6O2K184KooHejihqnXKCK0ko3lfX5+Dmx4Yb/3iF3ap95I1AiR3rF9vX/jSl2z9hvWuHglYptMrar/Kie6n9qcnHf9V6eYlGAZARe9ydt6FyNXKXIqnXon9jirTWiDDaEweFr0/WgwNh/jl5HFJBypOSTk6Fl3rO+R0HzDfurtsTnBViDSgzVmSdnBvwsUMSIc8bCLePH3AyQWu0RlX2fhdxlWtG6ikSzH18f42dCjdKK6JJTLE8CasjyUdziO5nMZQfGIgZ6d6MRYzs9r7XMLDNEmkL2rV3M5WvEstBOMlbCnvU+pQtWo7r0SxBDRAMsKiAO3kxVKtXg0fAEzUx3CYT1rk/RPz8DPaVKbENDX4ppNoGMRhFaFBLVH6xRdegPG226VLl9wOI2Zoam6ylpZWlxqkRsgGlZYoTjtkrNXTVWXRKhgvGBklkeoe6Ukqw2luMmc57AxFZq1nJyewS4xbU1OzLeVpegeqyL333uciu5hbdg9dJ1VE7ZIU4wBCDZJsNF7E4EqhbuRYfqu+CGAiN7GORcf1rSTby8Vz5+3dd96x76I6HDl6xI26sgtpU/31DfW2bt06+8IXvmCr1qyulq/+BuCTDcrbpjEiQpCi8v1H9UPHTp8+bW+++aa9i6S0G6lplPpnoS5u3LDRHv3sZ201YCPblBuyqzYPMYBDiYqm/NBygEt9CD+83qhuZZOqK1CLpMzjx4/bf3z/+7Z9+3ZXz9SWRahEW5CcPvv4Y7YCFUnHBIb61qbyru+XuqJz01NU7/Rj1+/fPMDgnanAcB4wp54JaZ0Q2qcx0T4/xc5yyVZ4aXyFF5pVYMYKTFtKtzudlNWT+Is+iGdUHONUdJ0iLLVREn8M5CQEca+RKgIgBAtT9esQW0A/obmAIgx+xaVMygpfysDiLHepvHxIgtC+AC7GwK7Io8SN8tbgro7hri5C4HGKGkJqOT6Ys3fPZe0kC9CMsoxmjhXDy3ITUUiKmJguAvA2LGCAdsXtNhYWbxeolMLsbX/lLIMTc17of3Tf/JsP//YO0BiykXzCN9+RrUaHJcAEFmPnN06qJAyo6FINmIMHDtpzzz1n77+/wwYHBt0dPAv1YOGChSaxWqrO5ITid8y9D5JsZIwUk2uQql1uYBRNKa8AsIyNZ+3KlUEHLD1R+/v7HVxcCoKZ6hvqUJtm2WJsMnqyfvRjH0V9WuQDWmAihlFZYj5XGcQE1KNjkWSi9kwHGM+PPUHf0xkjYqLzZ8/atl+85QCzDfVhYOCyGzxT2EK8TOqcxLi8du06+8Y3vm5bkK7qkLwEKlNGVm9DiCtx8LuOAdUmJdV55coVO3HihL0DoL344ot2kv2WxmZbtep2e+ThR2zDhg2uNra2tSKx0W4AVdKShnfE7HQmtE3jUxIjv3VO/Za6WK3M8wjMxzEsSzV79jvfsd27dmNfGkclnWX33HOv3XX3XbZxy2abg6qqeyfQjIzEKk/STATQoeCb+7x5gIFf3dEhvhUi0D8xqadqXwOjSOzX0w1mhTAsqOIgI9dtOdPskoyyy1viBikIJ0XH9WuIJ4YNrBDgApJTWgCYJIMvVCwTqGJfrvFmaJLOC2D0rSsZ8A4w7AMw+DIES15EuFnaDW1UW8sFWZYoKcGTWvEwUQcBuN7RvL1/EdGXV9GeYKb1FZbXLBBfI9FNHqAMrzNZ1Jmy23lB2/rOuC0CZJpRpZKKPqZIDaACNhSxpNQy7zPfPqKiDlfbJlARwEQ9UfyRzC96JZO3X/l+w6RBH+JeqhJCdYBKlH/uWQAGUf4qTCHReRHejlWrVtmWLVts7pw5YSBSn7wVzgi6d2xRmmIIDkhy0cAeBGB6kYgu9fZaX2+fDVwewKMx7E/y8WzWGaUFQ7Akhs8+xhN9zRo3Oso1K5uEAwZPeA3+6UlgIMZQElMoRRKM8kYAo+8IBJT/EED6MpLLdiSK8+fPO3B193QDYhkHG3l8ruJxuW3ZbfYlVIm7777bmVGSnKSKYHymz5QbqRYReHkjpn3ouGw7ssdIRfoODC/bTy47abOwR23evNm3LXdusQVIF1InfdwLYCjHjenUCZUdPNzLRpnqU9QvhoMP/uiY2n/86DE3LP87tp9TJ0+6+1tG3U996lO2cfNGm4eXrKkZHqQsgcyvApiof1Ed07r4obs3DTDCFQQYf6KKmaNNHdU+aAETw9h8++ak4gIfiLoxEaMps66CgJHxRvqVmLm6BeMv58mmerXpCt7TyCciMSqEAtl0uVKkOVTD+jgigPFbxZ5eK0tGrklr4RcdxoFcRn0pAwAVAQD1CubKOo/dQyZW/xMTSsRCxSvQ+X4mUB4ayNu750ftON6/sVIjA4+oX3WPMpO44efgfFg/r8FW8ZqUbl5x0sZbDGKoluUYLkzmQynaN9SApZ4eBXOu2qX+h+apv9egkkFGBZK26skgaL2ZJHApVN2i059UkmCef/45ROodbpzM8DSVZKEn7NatH7ceJAvVrwGZ53oNOjGYB4EBmtGT1FsFvWSbcRUJO4Tcv1nARNsZVIYd7+2wY0eO2kXsAnKPKy1ZusQexOaxceNGl2LkxhXISCoSQIihxWhKGujTJZjpAKN2TU/Kq/Nqt+oXsHzzn//FdvOE17EFMNt999/vUsq+ffvcpSuA6cBNveWuO20LILBp0ya3ETlw0RbdF92kiOFUp9qj8rQfAe3041JZXnvtNXsPm8hx+p6l323tbQ7eT335y6iKdxD4yV3VGFQfIKTKV59DpHG1XNGC5GVTX2TkVZ26n5KQfvCDHyChbbOjR48idU5YJyqZbEqfe+xxW7l6FRN/sTlSl+jidVCfytN+1HbtR/VM71d03k/+ko+bBhg9TeW+laSmwR4xtcju1hA1FmKHuyBiaHDom8xcU4ZJi+VxOsQMZwaPmOxaKZQW5dW3Oql/Nr88FCGSUzxPMJCnVAUl5dFzTO0RwGhyQgA4AZRsPgKYAIJJBRqhthXVFsCqQN6K9DKklTh5Y9oAojjig8oDG6ifPrnoxqUYhc+OFGz7+THbx/uXzo1jq+E1syVAqSzvUn7E6utK1s3kSHmXVs1usnksF8GSvxjgqCtFWDEtimFMUXwvSgAbT10haRhbnPcu8ymIAQC9P9ggoEuCaQxxVw+V6zdLAWACQEcAo8ElCea7z3/XdqCz96POKNhMqpGesg9/4o+se8kSv6/S9aVC6Bmr62VQDG5r6Ew5ar8nuqJBqj/9S7QX4Jw/d8HeB2D2ILofxCV+7sJ5l2baOtptHWqJ6rvv/vusu6fHVQaVHVHieoDRwFeKJBb9FqOrHd4WzokhxEiSpmRb2vb22/adp5+xw4cOub1lzdq19vjjj7s7XR6lA4cO2lnUKF0/Fy/LRhjzM7iVV6xYEVQHqbj0S92M6lAbIsDTsYhxdTxK8igJwOTV+dkbb9pJACeHlLcGG8yfffWrqC/3uOu+rrGhSsNAyCAxqZ+MEABXkiMVT9UXAYz6LgP23j17kUSftR3vv2/DAKWkQ9VxF6re1o9/3D1XBWkAMK/un+6R2hxt+j0dRHT89wow6qoDDN/h1gfW1UvoxYzBnyNJAIaDKJIuxNgyUxQZZATD2iTBKWWC3VIATAYmy/CdhnCYMOgcmemkp+qXBmj0W6dKSBtSeXKSCOB7xZsoPiIF0QQycYDDT4hwHKkgMkeqhvg0mRsHCCbcbS2rQo5Wy+WdQCXKEONSTxCMQAXHz1TVkmDoDQfCptias2MVPEsF23Uha+d5D1O2mMYuoScQNImzNl4yb7OZdb1qXqvd1pmxBU1x61CMDX1UjU4f6CKw1hNf326L4tuBjbalATXNg3IqSt1ExYylGIRxxOmbSGEg6S6KbmGwagCJ2Z9/7nlE+e020H/Z7SxiKqlHD338QVvY3e2SqYLS/CZBaw3EKInBBF4qX1TzgQo4aA5MlE/nJrDLDF8ZssMHDtlP3vyJM90F4m6kSshVrfr+/GtfwyZzh5ehcsQMKnMqsRsNfB2LAEbHQjsCyETMovplA9q1a5dtR4J4+2c/s0vUqchZSWhf+cpXTPEhu1BfxJgyyPYSdKgYlU0AzJ//+ddcsvKYHT31GU/qpugW1a+6pRYqiXHVJiVnfOwc6p+C7WQTeQFVdCf1XL16BdvIHGxPH7P777vP7T2zATVP0NnBknGih4rbC6t8IbB2zxrfqlfSo9Qwef9k1JVqJFVQdS5dstQexS0tT11PT7e14RbXlJq4wIrrIjqqndp0TOpxRFO1RXm06Zy2XyfdtATD8HLACMOITwa9PC9ivjBpS76YFAAQN2LUbByVArOFh+iPYSQdg1cm0K1L2GSSNDrD4GlgADQhsjUTpt+COaMF7q7D9JFWDEl1bKmDoALSCN8Qx9mOVaZkl9Ag9jB/BjS3HgwIA72MdKOXqykGZgLeHKX+cX5MTA7bJPXn8WjlcRvn5QpGYslQThPg0sXL7TswdLSkiO7VA0vtEC+JH4VQ9E5B7FmW0TzH6wz2oyodQ5K5mE3YMK83KVCmDJnlQhZGrdjCmXXMX8rY8pn1NpOFruQ0Ep/SHKYtoKfzm4BhBlRgI83QbmR8NhMx3J4qspWsXq5sgDVG4F4shZs7LlPvzaQwOOmwXyy66impALtIghEz1sN8t99+uzP8gwIYGV8ZgDQRbKNxThDRIww+Z2zO+32qDsTIniYGh4Jen/ZUyIXTZ+1nMPq7726znTC+XLgFGHEz8Rn//a/+yu66624f6C7B+KV8+L8+JEEEMFGhXn514Ht/qlJMxAw6JhXlhz/8oe149z07xX4Jj9bcuXNsM4D2xBNP2Czico4dO2bv0J7vv/rv7l1SnyThPPWVLyMB3OVqUwMShh5oot71ADPdJqQ2KakM9z7RBh07cviIvQSQv/P2O3YadVEBhEsAAQHrw598xFbevgLJqsFtQ5IWVY/3T+Wpj36/ICDffgf5kMZw7uw5DMlv23t4AQVeA0hM8ohJKvz8Fz5v69etJ7CvifFIYB82rRi8IvqofRG4qJ2qazpAeif4+E3ARdfcNMB4heqZ+giTBuOtAIaDCqtGAihgRsWrawM85ft4yp/jda6Xrk5a/9A4EbXEg7A+i4yc8tgkAY16XDitmYTNaqm3ea0NzFLOWCdu3lZEGkk1/iyoYLvIT7i3py6p2c4KDPJm0Bv1iBvhUgYH4V5uJ1ILa/UCcFeJY+m9krNzfVftzPAkrzeJE4OLJSNNSBwSlDQmCT0pJKJ2JgqxdK8taUtYz8wk7UhwoyierpGNdktiC4AqppFjpZ83Sp5kBb39/UUMvzEWriJyV6+s5YYhr1kGlairqWzLCMhr4ak4OsnGO5yy1DdB+8bwbuUBGjG6NIJ6sKMVIJrTxMp7rKLXTYzNPBBnJi+YiwN6IZKXom8ihQElN7Cggn4xyPRgOHwIN/WLLxAH855JolAUrgy8itd4UKJ1T4+Dh8Z4GcDV1T7EIbdor1ug+xElnXOw4YAeAD5AyeVQw8UjSDGKpn172zv2PQL8jmCX0FN6HbaIL2OTuBN3qoLQ5MHx+BPdUZVDW4PaRDtgDiVnQDWsmqJ69VPMo3gUSS9PP/009p/3bBwj89xZs+2jH/2o3XXP3bZh/QZrwUumiN5tSC/P/J9nXLJSuer3Rz/yEaSLLQ42XbMIvKMd6ur0erSvuvStvkYpYszo+zxA4F4sJClJG5cv98P09bZy1Ur79Kc+jUqGvWfBPMCAsalxTHkaF7repSKKdk8SFaga2WfUv93ev2fce5QjFKCpscl6aLtsWh/nAbF0yWLuc5Bc9ICOAEbtVB1ezzR66rjoq+NKosV0qcYP/pKPmwcYNUYhzdUhJs4UUIgAFUT3HE/vcTixl8fzKVDmDOuxXLwywXuKxrHOZ9E7GSjp8BTwAQLAyDAKqFpHU8ZmtzYykbCF9VbiNr81Zp14ZRRhy0IMGBez/i6jBl9OAVEHZpQ84U3hlic8niSM+BxSiVzLvawNcxKAOzswZuf7h+ziaMGGZZCNNdKOVurmcgpR+EsZ8KtLFQj/N2ZJ4w1q13uQWMMXYGjDG5R0w6wrNqraga+CSpRDkrlEXMwBIn0PEoh3jLdKDlGvJGbRplIBznib5GxW0qsDXIeyDZZl+YgCbvsCT9IcawuXsb/Ek9iAcGsnADn4mxfGJW1Wc8rb0M1aNIuZ+9SJdNUAyPBP4YI87gcDPorpUbvkcg8p2lFmcgLAAhbNCg8BcuTlvmnwOMB4HEwAGNlgggcpAEz34p5QJJ9lgIBapwafi/B+NtSjXWqC4SJVRcwQVKUIYPKKNMVGoCf5P//TP9nuPXuQWFAnV622x4jTkEgvb0cz3g6fZU2JAheBYZyHgpjLGcPr5YPfGoPTk35l5ckScBCu/8y3nsZGsQcJt2KrAc8vfPGLbpuYhYdMgCpj9J7du+zbeHukLikatomnvozdm7ANPfLww7Z46VK1ZFp912gRMWTEsGqL2iQXuyQV7Q9duWqnjh53VfS119/A2H0E4/OEzZkz2+657167G8lN0swspCtneoHMVDkBqAPABNAZGx2zXqS/t9962yOTFZHdCLgsWbLE44uk4kkK03QNXSczn8BFBFR7ptMsAhO1W32J+qPfv0eAAaUxkMYYxQXsAep+RgMdw2cuXmfDMFZvf94OI7Hs5FWumtGcy/GE1pZFpcEFLFiIo8smMgIahmKRuUlIBWgnqEVEqcQaWDGu0dbOTdhyXL0Lme/TRJitFBM9OzKAmMJZPbpE1MfAk0CayrCQd9yfrilUlQSG2Iod5P1Guy6N2aURAZRmUYvIIIqeQixEpdhdfkBREbUIc1M+IkQaY2waO9F8lti8czGGWmZMz+VY3OdQUb/gRVHE7MnOPC5pbRzX9RWW3OwdIU6G2dtZ1C/WBObuWBIJra5JRmSOTaJCoSZaZZylIAhCG6UUDLd1bR3YmWkj9BCN49hf0ohwTUgwcztStq4zbcuZxb0A4EHAArxY5RxaKrZokpc6afCoZRm6pweP5ksp+fu5aWMZFUt/ZPP++jf5JGIfPHjIXngeG4yMvMSraKbtSlSkzcRMbGVuTndPtw84XRokEkHZdYkBGyWVqSe6P0Q4OH2ABpALRkkBzN/8j792N66YXHafP4KRt1CvmFnG34oATczg4AIAR25DqtPT3Wc5sx+X+ui9EwSw0bfBywN2GPXvPVSfH//Hj+zkqVM+9jYgKXzjG99AJdtC4KAM7SFa+eSpk/YmgXGKI5GEJduGbDGbN222r3/9a0hY653hIQJ94iZM9VmQK7oznum7fukeREwr6UwSgIINx5kyIKB75eVXPPhO0zIkXcgOJElJwLecOBmppCqTkwEUtO+Je0jhAocL587btrfesW14jQSiCgmoRyJaiySoiF0BYys0VBChWqU7pL7691Tbq8VO+1K7o7br8PVgNC3rDXd/CwlGAKNV4QAOAEZaOZYMPussywpwFwmpP8SLz/b1j9lR1l2ZRB2R0UHrqpRYxb+CSGflSUR9nLMNLQ4IJQyuWjLBVQokgli5Domh3pYxgXD17LitmRu32c0wKYZT9xCpCBi1oBtG98pMMEqwUl09Vlk9zTXH6PxYzPYScbuvL2fH+icIc0fyALxickcTnxueOwIYRaUyUEgViTGMyris6/yWR6gFNWXdvCZbzxow65qLuJu5uYiYAhh5sDTWk0gdYuVJVsy7xKtNDgEwB1lR7+hVXqXCgr9lJjdKOtFbJnVdUYtfCaRjQ9Bj0kosLM5rJS3V3O4DqTg5huYp8QdacEmC6deNqIxLOhO8diVja2c022KanmBOlRt0CAjMJpq5B6h5FIUDi2s55TPW6ane/8TxsujjubybDhTigjL3RG5qAYziYC7DlArvX7ZyhXt1IoCJZhMnJEE4hVRPYCz2fBDqmx0/LhtCNJVAA9RFfBhNAKOryOVu27/56//pxldJU3rybkUlE7CtAOBm6skrgGFTubqGYeDfAhyVUxAj6r75k5kMlK98auUZAOVNJAW5p/fv2++A0cIcKEW0yj28Zs1q6EN7ePAIGASu+/fvs/dx1//8579wt7oCCtcDLF//+tddsqrHGJ0CgAWa3lfq8kSlEWOqXZAm9JWylc/d7soIvU8cO2Y//vFrqGzv2tFjx20YkJHtYy3Sxh9/6Yse6dvERMsM9yEOAOp6Bxv/hK70uYTX6PBB5pC9+DIPhh1uuJbUOHNmp20CqD7/eSKR165h3KFz01ZRPaKLvn+X6bcAGJqlkUxji9zpAnEkOC4xltYxW7mBCYFl+/mhXjt2edzGy60wIOJhIgvfwuCAR4KbGCMWRKpAsq6Bpy+RsjBEEYNtLhuYKqXp/TzJmxM5WzIjY/cs7bBlSBDtABkLXAIqEAojZzIh44hkHzGr3tXIU4hlNPtZsW7/lbK9dXbUzqAeZTG+5rF1VGhrBRd5rDQKc+Ff4nUkcS8Dox16kmw8GkxSV7SkZqqhiZtOoJxlbRmSzP3dbRhq09aIupMAqGSYFQJkeHImKE9elCGALEhORdt1Pm8XeBtknlfYljAiqw66D0NLzqAv8UHagFTGAMLpizEQ0JJgg3QTixMMWNfKcQLO0KljCcT11px1U//98zvsDtozK0Ff9HpK7F6TqI0OdpTMK7ZJ0DmhwvgvMsA0QAEY5AqntQZYCperGF8AcwgJ5iVUpJ073kcC7UNlAGBWLCMwazPxKUgwqAliGoiIFMnV7AYROojSuhHRVAHV5TdGHFYFoHBIx3WpmI/rYAbFo/zrP/+L237GxkZt3tx59sDWrdhg7rQ1BN91zu7y4RaWIaUPGj8KhNQ9gnEkGThsUk+ZMRaeuoANVSkMYv/effb0t/637cDmMYLtpYEpCstuX0m/ttjWrQ+4+qNFrLzNNHd0VMs4XGDS5za8as+56ijGX758uT2CEXYLNqkeQFDemNBP71L4CN2rtsFJVO0rBZMEiAwTxl/RJSupM5or9COMz6cx+EotXYQxXdHDiltZS/9noypdAxiVwwbtZGfR0hoClm8//X9sH+5p3Y/Z2JbuwDMm24v6OF8BfBh2pRZBHd05B16/h2rU7yj9VgBD/zRuGGswZQy7SmwCw2bSzg612gGkhp2nellAWwFszGHh3iWTI6xpW7J2bC9NqEYpvCIpPCQpTpZQdcaxiVxF3xkcZtlKgCaJWqDI2hhLVXa11NmWnjl2R2fSllJGHWqQXiYgS36Ka30kudqiBiXsKtLAIaSoXUgQ718ct6FhmBoG0zCMJycRh3MsyZC3RklQAEwyQRg4A0yL8ozlxrCPTNhoFic4ZaeaOiieK7PD1okkc9fiLls3px6ja96akSpoqo8xvZlAgCWmzgvgchkC8Xiv0olxO3UFbxOTGwtIb1KHnEFoe4a+zGzMWmsDtGjUpEskL9TLAl4urU8jQ3ku3oxbn7ce8CoVudWTmVGbgW3qzoXttgmgWckbK1kbywGmgItdLYDcvF+bD8l2PAD8WVCAToIFwMgBRohOigBGUuUhjLyvEMquiNNLvcTB4Kq8bfky24Qk8XEAZvGSxVwROEjxOrr/GtAujfAtQrh9REzkaKIx4g3xuvQRHVcxAlt5LXbv3G3f+uY3HWBGUB0021oAo5D2tcxT6sSo6gBC7wSgkjYcYCgkIUlzCmDomdpBbrVST3jZt97HqPtP//iPtgvPimwvC7u77f4HtjpwrkJC6prV5XTwgUp784Taaw0Xxat861vf8rgSarVZYlzaI5Xjnnvvc8b1/lT7qv4pn3oc9TPqfTiq82oZTA69J7ANXRm84sbnl6C74pA0vUKu+nkL5rv7/OFHHrGlRBQrME5uZdFY19M5pnNc9qUg3n3nXfvBq9+3s2fOWDO2lxUrb/fZ4OsxXMuG1cKaL7peapZLMLpPtOP/WYDRPeTeOa3gE4YxC+mUxu34laL95FTSjvQnbAiTSg7bg6SMeKJgDYlBm4c3ZgWGrLltLJZNGEeGjqZY8akAWvD6ITuNt+ngpbJdHp3k2Cg0xD3DE0kzcJfMaLcNHfX2EdSUNgLWyrix9frXtO6gNucXBgf0P87SCj89NWr7+/KE9SM9UEwZ1SeNu7etmQlfMOaq+a0AF4OTAecMySCdhKmvACxnrw7bYbxNV8ZhAOPNAtiWGLnotUlbMKOBOUZIEHMx/qKyFGE0cZoraoCt1iMuE58yhDR3EJD76RGW67xMBGmRtxRgo8lPIMlRaj0G43lIIJt4CZxeo5Ju5HZL3QNMsuQbIljoLAtcHYGmV8eQYLJ1uFUZHswCb2os2dLZtIPpCFuYTTkXL5PWIlasj9hLBl71yeKT1AQw6RcAG8deJPuSHtayW4hsbkvRPnSQm/qVF1/ySF65jGVwvY2n9jWAWaJSfZBH6hGXkvxDJ5yxqiwAWYKEEoGMmE4qjLuuRTYGkuxQ8qT8w9//gzO07BOLuhfZx7H5yIukiYauIlVrcQZRTQJ2aC9wUU9cReJb/BeMqRh3iZTt6+u197BNfOff/s0OEOSmNmgqwpNfxDaBIbWLZSSamhpDYBztDyodtXC/xfDPErD2vuJVMMyqLq1pIy/P5558Eq8PEbHyxugJqgQZ1D4l1aMtooyOXdunnVX1ZpIHzgkMvm+88Ya7lk+ePOlBh7KXyJv2BVSlO5j1nEYdS2V44AGoNBP1uYC7+5C9+r3v+f06h8tfMS9trW14xNbb55540q+XKpdk+oHaJRVTUoyARZvu0+8y3bQEI3VSD0ARLJbQU2MU9WPCdmHreOEQ/vgBLX/AmxAR8TWgU5m8LawfttvxxNw+j/VAeALXyf3M9XUEysjWqbe8Hmc5y+2oV8cHWIVuuA+GhBlRn5J4XZqTGBzb6u2hORnrxrOTJVjNpRg4CtywDOCgeJhhQOfAYMV+cmQQ1QjwqjDfgsdehTeyNSApLMNIuhbmXDW/ngA4yMw10B3vEAoLBQwiRZ3m/bP7L4/ZCeYa9eNyzk8ygHCJayJaE6vY3Ybr+hML+G4RrCh+BmKUsUnplwzftHcM9eoIAPMLAOY0gXh5bEJFxPpiboLBwlOUoLs1M1N2N+1ZhAE3gafMGQ86sJSwXUWKOYotZztS2NnBGBGZ9TaJdFPizQdp1LOZeJNWdiXtY9BjGYtcpTEgC+zF8D5wnANZHIuhpZjmOAGACbxqkhqFN+JE9kJe7XDhYVSkl196CZvAdrsggMGttxyDq9YNeeBBpgrgRVJWXSWP0FTioMPVVIGew48FFap6FXXKZqF+6mrZ2yaRFrbhpv67v/1bn8UtppQq8ikiZ+9CRVqyNBh5o/aGOrneiwwsIgnK40yoMahoah+hA319eIT2oIK8Y2++8RO7eP6cL5WwHtXhS1/+im3gW0ZlMa2MtQJC2TTUeh2TRPD6a4T2I8kcIupXICPQldryxS/9iQONPFwyACuJBgJupem2mXDED1c/ABg9pdkE7H3M0dqDwXc74QG/+PnPfaqC2iLp8VOPfsZtYFJzZOzWGMzzxLyKV2wnAZHPfudZd6dLUtOM956eHp/a8PDDn7Rl0FGOFGqDR2Wjol08hAQtolyg3vR2/dfu/1YAI2bWVsZYWyxn/QZv513Ozx6qsHiPRHVcwNgl0qxdO6O1ZPfMLts6GHNWU70142YFSH3tlcokIfMSRXjqn8NGshevzx68PocuXMK9OIFxU69shUiTResk8u5u/McLcfUWYUiZMWSvQECyBoBK92wEgD9GGTtODrCcAuDWMIN2QEzcxJ3NZWwXzbZmRspmpAvWhMG1zp8KDFioXcCDNA5QggfEydTZASSP948PMxuWSjBexzDSpolDmcVaL/cyU7oHiayIfUleqWJB0hYAI8Al3wSq4Bkkqd0nh2xgiOUn5fUiyR3f0ZGxh7ApbUEamx+fIHQIz5ei+RwhZPwVcQvWh5v/YDZNbE3F9p3O2wCztyVTxbGjaGmIxQD2J3uaMPgmsQlhz5oOMLyWpYKda4I7IUN0nMmYKeicgjMdG+iwBv7UIOPHUZjoZYyF21GR5PbUU1SxGbLBfIR4kYVIFi6NcNGUURxGEIiIwfWtoeveIhrjTOa9vvbhT3bVS31a9GlkZJi1St6yv/+7vyPYbickSLLI0zr706f+1APttHyDVn3Tk1dlT7VZO36EY7RBbmyxuFQ0gYv2j+L+DU/47aYZ1LKPzUHdWr9xk33mscd9uQJfdoELJE3J9paHUQWACjIcxl7jNhKMwz/60Y98RrQDIKD76c886naSRd3dPstcDXPPmJ6+1D8dYNQaJTG4kr58uZAqGI3jZhbICGBk81FEterRXCipR5K0HvrEQw62osNl7GP79u7BOL7NXn/jdTt96jRlxk2u9Ae2PkDkMcbx5StwS88CEGV7kWTrBKPy3w+4eD9vdsEpNVW3EykSPpD0MukLbO/oj9lLR1PMnoXLYShN2ahvLNrizop9oidpqzuYno+oIEeK7CESE/HZcXN1gPgZJI3jSCK7ZLsAIAZGJmFqXK+cL07wyhCI240UMwNbSBk/rFzDuEV4OvPEkRpEviyg1o+R9fzlESQgpJtGpsATX5PByLwEyecT3c22EsklhT0jAxikUL9icrtovRa8UEUYexxp5Qoemf204/W9I3b2ElMKmGcUA6lSrFbXiDqzpKUM4KHTAowCmILWjsVNnpBbmKdGCYAZQOI4wxsiswpjJgnoUkgvPbMa7IsrO2wDklxFr0PRmjUMBDobwAWgU1vUwQvlJtvFO7LfODRGsCIAoyetaMf5ObitH13WZptnxbEpXQMYjeBYgtewAGZZcgvcEg4wAL4e/eJu8mi94Uhq0vg7ig1GtgAZDd3VyeJEt69eBcBssvsJNFuwcAFlcdNJAhgxgdJ/Ahju09T8JFVE0tPdwUmDh32tnSx7y5mzZzx+Q8tEHELkF2PKxvGNv/gL4kHu8lnVkhAcYKr1qRw9+dWJYDc74QAAB7tJREFUCMTUBiU9KDTfKQd47VY8C6rRzp27iGcZtxkYZTWhcBOGz7vvvRcbyqLQB8rzSFZAUrO3RRNJNgr717IV8qo9S/v2o2JpkqeM0LLBaCLkRsBqNjE0dM77F7xjok+13+GLlrKjfY7rS74v/StJaprA7reXuJsXmAumgEAZb1EwPfJWKtKTn/9jDN5rg2R19jQq1evuFdMaPool0ro9q1mC8/EnPud9bCPcwZfBZFzJcycX//T0wV/Tz/zX7d+8BEMb/Hmh0Ffm9IyjR14ixmU3ksubZ5ox7gZpIpks2EzUkjUEPn5sacIWw1Bxns7uv4e6wFBIjA0P3OPdQSPEc+zhyf/ayaydYrZyDhe3VBypuTKi+jJVAgJUHqF2Oo6bG+mCscFAD8UVuNkKtdFPLfakV5PMwtm0ritlH1nU6AtBxYWOnIvBmDEt8e9zfRBd6FOeeJTxSqsbil/bn7WD58dtmGBBDY4MBmc8wtSreVRkJ688ThokWkIzTjyQxNAEAFNAYhgnqE/iqyxVmQzRyq0JJj7W22MA3RIC+ORJkuRSYUMrYhFyMR/TBIgz1iDNEtuyh6U6v3eERa6IFC4DfmCgFSaGrQPAfGJlu905mzWEkWC8PQxaH0t4nDBx0g9BOQADjdLQMq15VJwRUAhgNClPDKXBfoQn5wvPs+DU9vesFyOvFl2SvSICmPkAjJ7ykBcglUoWpBSxjBjLGYai9Fv2Cv0pCVwEANFGZvpYRmW5YO9R13bWn9GqchcvXeRUxVWPv/zL/+Yh/GIOgcg1O4fKqsa9UL63X4NDjfKNN0BgPB0Y6HdgeB6G3b9vr0e63rZsqT322cftTpZfWNjTw73g5XrVJAlGoCXwEjnUP48ARoXbx/Wao6W4mDHmEtUDvD09BN4hWTxMvI7UuJDUUzUj9NcBVYXpn28HHX2TR7KYcF5JsS4FXoujhbm1CJYAXiDTh6SimeorVqy0T376U27w1gzz06dPcZ+eQ4rZy5y+SVebZnTM8PV0HmPS5ooVt3NduD8JnmquFkX1hyp/L583DTCQjyEKw0lcxxg5jPpyipW0dw2kbNvZZhskbF5KciqZs7nYC9YCMB9ZTjQqqoUbFzXAyAIJ3I0ob0IF1URPxQpvWtyPQebVoxMYi1miUeH2ysuSk9wJJkADLuQtY4uQxyiVYuIW0o/yaADrZkkFiKMrewAfKlwSAFnQKINqnd3X0+zvMXKEFAThZSkRK6J4EUyp9EnCZD1P/hY7ipv7x/uytv/ChF3NiiGRQAjfjxNsVyaGxUdTrJ4BhQjKk0/RsbLFiCGSBBAqELCkxagkkZQnELuRepA6VvNu60/Oxx2J7cRXuAM05I3SnCRiEmkHEbx45iAHgiAAgy3nxaOTdqIfW06eJytgXsLb1dGRsCdWt6E2AjAApewr/tI4jWAkGN2jCGCSeOnkuk7prQfQsVgFGF+FXgSj3kP7D9jzTMJ7j7gMzUVqaGi01cRQyMh7/0clwSxEWhNAiWEwGNNPAcAH7DFOFM+iXGFHDKf6AHVdL+lCofpHefq+8eZP3JjaS30F6Cd1SBLGl7/8FNGna/yeqkgHGZgkMC8PEEm//A7tpx4NAAcY7Gh4Vw4jDcl4LOPpyZMnvH55pP7sK19193cT9gqpD9eSrleRUZs5Q3mqT/OTfvgfzGGivFOnTjlYtcHo8tI8+fknfUU6lSVGVpd1TTRlIKBJAJcpkFGlAmQqdLih7TIuK8L3DOqOVFStRKelFsQvc3BTS02VTWXuvLm+IPurr7xMEOBRX4hLc6hW3r4Km9Imn4Wuhbyrd8nvjdermgQyqluf1W76z9/Rx00DjJ6AhNjRLCQA1JJhvC3Hidrd0Wv2izNpGyF6VXPxGtJF6+L9R7d3mt2/LG0LYS6u8O5Io4ZV2edpL3WAyYdKDjAYNb+7lyA9bDEFpBp/LhDxWq6wUj+DVB4hBcRpSYVUBoAhepj7EACmiKqiWlCVwlhhSQhUodn1Fbujq9623taBJIWuovHEYB8nfwn1SCCUlkGadilgcNwa8CSV7Ue7YYQBomzSjeQDUomwLRMYpyVDBSyKvpU6qAEioFTovmxPqQzznKSbofaUUZ2kCqVZHHxmewJ6JDBWJ9w4G8cGVCk3WAl1CucRc7S4BMGmGYAQkGEpsv1DZVTPUTt6PmujA3K9AtCodbPnNAAwrXbXHKlIqHugtl4m5xTGBlPG0KtwwjLtw1TuABN5uzS0JcG4zUJXUPdBgtCkUmi9EgWbNcDsCjHfTMCWbDCLerp9kIYbRTv5i56O4VhgSIpSiXwoh+/xg7siRoLmg5cvu71HqsebP33TTp0+7RLVDBZgWoVKpuUaPvbAA0yuXOi2HZXgKpdLKpTEzdYKgxL7vf2U62vRcixJnjNnTmPUfYNZ0TucSYeGh5wRN2xcb0899ZStw8uSSitITlD+wRS11o9W29uLfUQLdmsph5/+9KfM07rokwi14p0ARsZiqV91co1SgNo3takgjslbF0gh2YUx7GMlAIy4gJvkEb6amqC4oG//27dtLyqZJEat5qclFzQHSjafbHbcdiL5XULiE2ho6ctHH3uMuJnNjIlZTK1ocakm9C/0SNKZa8a6J2y6N1O3RvX/DtL/BQAA//+zn9W7AABAAElEQVTtnfebXdV579/Tz5leNOpl1JBQASTRwSU2NgYbGweXEPL4l/xDiXHu/SXPvTd2nPjaxtjGkNiO7dgYBEIFJKGCeh1peju93c/33WfLJ5MREgPCDHeWtGfvs/faq7/f9ba1diSfz9dtTqHKWyWOmtWqcZvI1ezCeMn2XqnYb8/VbHLaLJmOWTpRt45Y2W5fFLfPbm6zdYuSesNzjFqEf2Z1/kbrRYuXp61GaXLRdjs0aPaztybtzAgRUh28UbVKYcjq9ZzFklGLxjhqEYtFkxZPtVk0miChutVqVatWS1aplK1UqpB21GLxtCXidWuP5mxLX8oe3bLUNvbGLEIxqlXiVStkUiVOzRIxs0Q0amVrsWw9aocHq/bS3jE7M0xd2zqtGqlbKTdq9UrRkvGE51+LpMk65nnzgBwrFolHKVfG6rGEVapRq1Keailr8XjJ2jsidltf3L64MmlbuuMWT5JpPW21XMzKlKmcMsocsRbKq3Ll6y321kjFfn583E5ezll2tOJpxlNpW7ms1Z7a3m73LI1aW6JsCcpndRJQr0aqVo/WLEf71upxS3IrQfqqnZ5ZhDJHgl5QP+idI4cO2w/+9V9tz+uv2/DQsGVaW2zL1i12186d9uDDD9maNWssGo9bNMIbVeWlF4Ne9MvgBnf4Rxzdq9VqVimXrVAoGOPNcoW8Xbl4yY6+fcQOHzpobx08aKNjozRvh23ctMk++alP2667d9rG226zrq5O+rHsOaQSSfo5qgw93xKjQunHqYMuahX6u0oF6zU7euSIPfejH9r+A/ttdHzcEom4LV+xwu6+Z5d98Ykv2aZNm61O/YOyh3+D6tQpr4JaRndqDMrpqSkbuHzZ3njjDXvuuZ/Y0aNHPc7GjbfZFx57zO69915bv3699fT0WCTKe6o749EPxfRb3ipeZp6QLuUljvIJaSF4WLcTx47ZCz9/wfbu22dXBgZsOpv1NNva22zp8uXQXMUunj9n+VzW+2jHjp32jaeftjvuvNNiiQTjLAaNxC3GEY0y1mkfr5cITMWhfBFoSOW8lSEyd4BRiRnAdGgO2suV6ISi2f6hor14LkenMijopxgVSFDZDUta7Mmt7Xb74sYA8ZakcnRmpFZmwFaIW7N8LWZD5YwdBKh+c3jSrkzGLNGeceApjA5A0Fnr6U1bZ0vG0payeDRuVQEOySYpizotC/GMZgs2NDht5UrKMu1LaWgilIdsDcDyxB3LADy6tFSyGIAQjyUhTACBgan2jpBYgWOcKr41WrMXdo/a+SuTFk22MiAEdGMAp9mani7rzrRaJUIZ6hGrkrcBLrEoA4f8qsm0TVdiNjJdsWK+bJVigbQBgXTN+hen7Jsbu2xnX5Ky0YBkXK2lSYf3SEVlidemwau6TZTTtvcq7Xp8xM6PFQGNFNGTHAlbsyhtX93aanfSrul4nnqQVC1DCho4VIBq57kWyST5KYCh4hyUlffrxuDjlgeeHz38tv3ohz+0fW/stZHRUUulU7Z23Tq7HZC58667bPnKFZZKpSgzA5iCqv+r9GGtCrA3CFPPYrRfDCCqcr8AoIyPjdvAlSt25epVu8p5kPMQx+jIsE1M0bbE7V3c53k8/qUv2tZt26y1rdXzKRWLlDFi6WSQr8pah1AKIlCu4xBQjP6L8qNCn+Ygur179tg//Z//bW+++aaXa+XqlfYQAHnPfffZjp132ZKly3hXABjUPiB9hiPtXgYM6WjybgAp15VyxQr03/59++1fvv99O7D/gOUAy0WL+mzXrl0A1z123/332erVqy0OgYdAKAAJYJDmpo/1T2UWwOivDpVAAODPKowvAFXtI5AUoP3ud7+zS4Bba2sr/cFkmUwwzpl4AJ026GDN2n7bcfcu+8wjn7P1GzYAMHHqUWfsVz3PlNoNOolwz/uL+8pU8TTWb2WYO8DQINAaA4uOpj+KXBepwIGRgr1wdtwGRwvM2BS9psZO27LuFnt0fcruZKbtaouaJm21b4SBEq0yxwIu9UTKRkpxewfKPjRQsTfP5mw8y+DJBDNyLTtinZmCbV7RYss7WuAxWhhY8FFx0oFoknU4Fwo1yb2zE0U7cmbCctmUJdtW8JzBlx+xxV01+4sti23rkrh1xnLWRjlaY63M7kQoa8YhLRId5+Isddp/tWqvHJmw4WGIHS6lTsdGKO+ijoTdu7LHVlKOqtGhqgz5O8AAMhWILBfL2ABMyDv8GZssWbmkWDVmlqr19SbssfUddu+SpC3KVCwD9Yv34SltEgNcQAIaMFuo2anJKABTtlfPTNlwturtEYN7ilOe9YsS9pXNGdvaF4HQsgA15a+3QmykQ5EEMEXu6RJm0mIOMAUiCWBSnp/3A/XVABdX8fxzzzkhjYyM+ABctGSxrQRY+gGa7t6eAFwUm/bRBCEOJTxI1MElKpDhECGIc5kYn7CBq1ccXK5eHbQxOJbpSYCFjuno7rSlcBdr169zgHnokw/bqlWrKVbdAUoEr7okAaGYZmP+iYCK9LWqIw5GAKNzFk7j8sWLtvvVV5wTO3rsqKUhym13bLcnn3rS7r73Hlu2bIWJE2A64W1SaxA+P+jjAGAEYA6iPBN34VF5fvTIUfvJT35ib+x5A45mwNtnBW2zc+cue/zxx23T5s2WzqThIBiUSk//KKvaX/lcSyh4oigkHYIMVwC2g+R01sYA+P3799uP6Y/jcDQCbHFHSsu5EbgY9csDDz3oALNt+x3Wt3QpYM0kRfnF+ZG1JeH84vSF14P7VTg9hehHGWAYN1aFINXDwgqRlgj7zbGcvXRi1C4z09ZqEF4V7qPUbq2JqG3rKtpdS822r0rb4k5Ag/ga8NHKJG8DVIkOOzVVt93nCnZssGxXpuCMchFmDwYQmXRmarZxUcQeXpOwdZ3M/LylI+g3ZtBI1vKM+inEgePDVfvjO9N2aYRZ1HopB+UtTlh7W8G2ro7btuVxux3iXt6StFY4h1iZQQsHpgBDYmdzdfvD5Sk7RD2u5OPG5AVA0WEQUyYVgbBT9pn1bba+J+6dqKETI5MYLYGgw7+4TVrGTo7U7Y8nxu3ccNmKFTgUxDpxQa1tddu4NGI7ALp7l6ZteSscjAUzdRzODBbISgyGM1MAy0DBjgzV7QJ1KRQgCBothsjXArtye1/MvrQpbZt61ZDTNCn/6m1wZgFbrLah+XxQIgE6oUbgaQQwNWBVgKZBrQiqwzvHjtvPf/YzH9jDg0OWLyG6MrDTzJTtHe3OaRThEqoQveS5KJybZutwxlb7iaAUnHC9c2h7OJkinEhRYhLn3PS0TU1OWGdnp22F+O/acZftuu9e23DbRuvt67OWlpaAkPSXNle71yinuBRxR2RoVbhEAY3uaxwkmKUH4Y72791rrwEwv//9721gYMDLveueu+2Zb/2Ni3rJFJOeAwDpCJxIy9uNNFRygYwARmfd9+eqBw8vXLxgr+1+Dc5ir7154E0bGhpyjuWOO+6wpxFRxM20trVZMiWBNGgLlVHBAUaNTJoOPLS+txXPVQJx+8pD/VGHyyjRzkfeftt++vxPbd/+fTZIXnnaT1ylJpIaz8VZfvPpv0KkvNs6Ec/UTxGIRTlWSdfroaFB+gnuqz66x8nBKiAelenWhDlzMIwXWEmQl7ImVVlqPE3vH5mo2m/PjEFYecsyY1dLSUSKdgZAxBal8ra+K2Lb0Bus7E5aC4Sqd6PVKUOFYyPoIU6BNW9dLtjARMVKZUi1QENni7DlMVu3pN12Lk/aJ1dG4Rw0OBqNwrs0Jw2btQIFytaS9g6izcunc3Z0sG7juRRlEMAU6PgKbK3ZakSKzYvjtro9ZT3RVmut0MHQneo0SZ1OTlft1ctjdiEHyxpvhUAAmFye2cBsZW+rbVuasfvXRG0N5dDg1nyVoAziYOhBBk4MgEkCdDX7z2PjdgwOZLyQhm0lJm2VSJUBu7yt6ja7p6/F1rQiCkL0QToJAIr3KcepbAWxswBgAwvTLZRPla4zS9ZtTXcdgIrZA6sStqoDAkTbohAxAUwgMqiNUAH5gBOYO1cTEZJWKK1Y6WDAiX3W4BPAvOAAc8AGB6/aNDNpBeCkRrwcofxly+Zz9EsJIhBhRxGBJeurFZRPMKh1rdlWHIeeCaQSrhsgLtfSEYgjWb5iOeCyw7ajO7jjrjttyTJmIFEPZSHHRlCajCXNvBBHFFCQDq5OGooT3tcYO3n8HXvpxRcBgD12/tw5ONistSBabN221b705S/ZBnQmVfWP/1Py1JoyepaN3HQKAUbXyk9tozA+jj7uzBnnZAQwly5eZpyW7LbNm+ypp56yexHBlqEjERiHwQFG7Uv76fB6ifjDUlAnpe/A6fkQQ5GIIz3LH1/+o7322m4HNfVJJtNibYBYF3nsBNC+8c1v2Jbt2xxYXOQRADfKq5rW6Cel51wMdbkWgipd+3krLuYOMOguSkz5EQYoWg7qE3FW/OJ0zQ4M1uzw8JSdHhpDOcVMycwdQUxKJjOWgV1rozd7maRXdVSsFYIv8O4os+ElZuvRApxMNcYMyVhiQElvUctnrbctYXevWWw7lrba9t6odWjGl16XVklAABJdeIMD/QmkfiFbQ1GcsyPDRTs9UkTOh/UtMlBiKUsj2yeTNUtHJq23JWarQf4u6KM2LWUe8m+2bEOFqI0AVHnGdKUMgVWZyetTthyl7L3rFtnty2K2tDNqPWmzNG2RhHOiGrSDOlB6FEQk2uYMgPv6+Wl7e6BsF8YEYIg2sNAx5JVIdBixpmjd6IB6EXl6UAgzN/msnIcIxkhzHBF0HNArUfZSDm6sLFk6aUvQIT2+MQLgRq03HYWbUUvQBpQBYYmDuuoWvx1/vVT88aBhJ52JhrhKGwx8cQfHUF4+/5Pn4QL22VUGczabc3Bx3QRtXIJzkS6iggId5HHiSwIcEeotcSjkXkJQkaikoDgi9DaOjo4OWPuVtmXLFleMrli10vrgWtq5L3EmIJJg9Lt44YDtyfCHQjbqFXJNIfiUiiXbB/fyv/7xH+0QiuMkuiIHP8om5eu6dWtRGnfzeqAXcaChkRw8guzCTIJsIHAFB4bGE4kdWXQ8I0MjNoCiemJ8Ekau6rqpBx580HYhgt21c4ctFVCq8RUELpyUj84qr//SgPFBoxKpD7gdBuossXNqesquoH957dXdLvIdQy8jHdhqlO333Hc/gHY/+p+7XYEdJhCUWkkHCQZcUpBwUBflG2Z0a89zBxhmwBKkrMZL1iALBr3CBMres9m6vT2MDuXyoF0cn4YlVjQRVRcXiEyAB3pZW9ySBWDQPaAMnYDbGZ1gtixBmiilXMMN4cq6lKrnbQ0i1QMAzFasQCsz4gAQaSAq+AvgBFYW2qoza4uXqNGwwyoHXMiJ0bwdvYqoNFayKaw0lWoa9riVeEL2STrLrAdLRQuEUMnBuucqNgkoFtEdGYCoMSbOJ4pY0ZXO22byf3jjElvXh1KVKClEFfgSuA8piInslom4TcE2gG12erxiBweydhLl99UJQK6C5SmNjkTyik3ADqO0RYZJwO10xFsAKrgEZOs8+pwCIlNVFdP0WgO04OjI1VKJdtu8JGJ/eTuiXh/JzAjhwJpx+9qA030Nuhqims4ahxr6Appj0jEg84tQhxCRinAsmQwKdVhvKRjVL+JifFYEYPSeuBPlKYLQWb9df0GbiruQ5UiK3gKiUUJA2tMNuGy1z3/+87Z161YHnAQd4YRA2UIrTFBOOBfYRxGN0lT6QTxxMg0qoQ5ZRC6Vd/fuV+2fv/vP9s7x49bd3W3pRroJFLatiF3iohQEmExfzs34jff4RwBbwJAgMUYcXgeiXv/6dbYTYv/s51C2btzgYqPK68OC9L28AnWJpARxThL1gh8akWEIIFCALetbqVi213e/Yv/zO//gyndZxDbdvsUee+LLKJYfsA0bNnhdr72tQUtQ3s3hWvvOuN8c54O+fh8Aw6yqGZNmSVQQEzgUVDeYBTsNN7B/YNKODY1jvkY3AhZZpJVGbeFg2idetAqvgTk23tJGJ0UsN8lsibZeg1im6GQaBSBgsrTNbGN3yu5anrL+Nu4xqGXCkDLWe4/BEvSOGlSmV8Q1Zn4YFzs/WbPjgwXMzAW7NF60KTibEmKGZslEBlmcNJz7gThcNlXacBI+izoLILY8j96lYqsRh7YsarEdy7tsVbssT2haqHYEDiRG3GhdgMvARQd0CTA7NArBDpbsxMCEjU2h9IajqSI6VaX4hlhigKQGgQBXXEcCJbf63gcWbVNDdKwrTXFHgEyCfDoy7ba8q8u2wsE8APey6k+c+H8bUOoPhZkDTfc0hP0f9VZ+4kTjtMmxo8fsJz+Wkncfim04LAhSHMbqNauxVsABdHdh3g2IBgs4CUkRGwCLAEAWDlktxF1UAJcpLEQDA1fsxIkTdgCT8RjWpE4AfRdK0W984xuue2lJZ1A4QvjqPg9cNK5VNnFNIo4QuJxoFU9xGsQk3YssRnulf9m92y6cu0D7BeNTIk4cgElSNplsvcykW6bhq4DsXIJEvwQuEgpl6hlFXEtj0t+xa6f91V8/bdvRyYQgK2AReIcAU9UY570IYOvjTIlwYybASAckgC4DYuJg/sezz9pedD+yym7afDsA8xW774GPLcDQsGoYQgIajGJOVV+LQGTakahzdLRoR0cm7fjIlF1F7CggHlTF6ch6gc6jghwvDUYCmZIUrJgrgO5oBlAIpzNx62lP2NKuhPV3o3/pQbHaHbXFKG3iNeR/BojMrOq6YIpQ95C5FwBxgsGfp0xDKGvPjaIsHSvb6dEcZu+8TaDTqcDtxPBTkQ6ijG5F+UrxF2MQxmFNxGGIuGNxPGLgspa0x+y27rRt7EzburYU+iTpTET46AIQu5Q3uVLHqg3hWnRiPIIFKmKnUFYPjk5bqYCIhaXIx7e0yPjtRBP4z/BWFW5LSl1ZhlQFyex1xM86AONG5mgJwo1gEk/ZKnxFblvUbRt7otbfHrEuyhaG2YBEz653XwCjmVyDWFgqGf04IpIARoQqpaK4l8233+5WGBGP9AuqsxMMbSd2XyZclVvcSTKZdCUkEIQ4iN4JH5TLsPj7Dxywf/+3f7NTp085sUs5+ZdPftXuRjm5DHGipV1IKe6koWvhl3Q1qp1zTOTjBEveASfDAw24xqA7ffKU/fKXv7R9+/baubPnbHJignozSZGGxC6JaCqzgsBK3FsZM7fEpLkE1bWF8aO6j6CXkcm6Qhm3YF5/+pmnvV4dAKnaT8CiPvD84WBqMhMT5KcScDBBH3pJvIj6HRwCyTJi2etwZv/w7WexXu3xieA2AObxLwtgHvy4cjB/Ahj5V4iTp7fUbhrRzGp1G8R2fSFbQnFbsnNTJbuMyDKO0rQA9Zcxv1aLxBehMzOrPWsMyAQzdVsLBIzydUVPxlZ0odDtFhcTtUUtEWuPyZiLMpP86u7voVmAl3U4x6Ee4oAjEgZlIV6B3WWsU2cQUS7AJV2BnR7FIpTDIlMsqiwiEBSRDMR4EpBB9IrGigyMrHUiTa1d0mYbeltsfXvalsJZtaMggrEKzHzOwihL2Y8SWJzQPw0glgEs72D5GUFTywREWeQsVrBMum6LUHCLVZ8uxpyzK6HIrgK4dWZE+aXU5UAk8IoUANsy/h8V60XNtQbT+IauVgCm05bDyaWxIiXQ3F4PQK53X12k4ByMCJpBLEKVP0kIMK/jaHcJHYNEI83GMu8+9ImHnZNR/4rjkQVJXJ+/T3oi/OAQNxuITIViHmKfsoMH37IXXnjBDsBljI6MWjdi0r34jjwAi/8J0l2xeo2KBMFimqd/6E23xgQ+Hw0gpJyqkzgZEa1PMup2xsyhQ4fse9/7ZxwEX0MvMg7QAcYrVtrSJUtc/yKQEbFKjFNd9U9Ok/o3lyCwiNHnI8MjdgRQvjo06KJtP3qezz36qDvebdq0yXoX9ZK84FZ/CcpOoKgzABgE1Y9DPzSurkUmGoNYHI+4su98++/tjdf3uLXp/w+AafSNpFpX5aEzCcUNqAQ9QgwnsahdBUgu4r9xAQXq1WkUuYBODvCRKKoJRL4wMY4End8GB7G4rQWOIWVLO+K2GK/X3laUukhVGbzEknISg5QFIPUKVIc4ggOEg0xNhEmCYt3r6CwMfxIRAGodG0NRehlu5jL6oQGUdEN4BY4hLk0BdHkIvEZZ5XmbxJWXSRinNXxT8KRdApewHoBZ04UvT0vC2iUKSd5jQEQoq4tpoF2e8gzhgntiHCX3xbydwmo0hIIX9Q1jCYKIoauKF62P+mxalrT2FI58iJFTlClL/nlEzBJm/bJEKBEwxU8CHq2pGorouqHbtlWtdcQ0lNI0Rls6mN1FINcDkuvd1zhWCMgrMP8Km2XFEMA8/9zzPqDPnjvrehcBzP0P3G+f+dwj1r92Lf0WilTqdRE6Da4r3lcIRE395hmdXMTUferUSRzG/hNryGt2+PBhKzDjrwQAxME88cQTtg0rSGsrsjDE9V8BRqAL8ZGHgwPpOwejjLhXBpBkupXo8N3v/pNzXnkU00uXLbOHULpuhsgXL14MF5MBCDE4UJ5g2JKqiktbzykIpJhEL5w7b6/AXZw6fdqtawJOedPKs/eTn/okns/9nvx/yaVBN6IRBdXL66gf3IrSbiqWnoqjE5ckDubZb3/b9r72uouft+GJ/PHmYOiokiiXEGdJgBScUpvR5SCu/EWY4SLys0hB4FE8WiFycROID2McWd6vSkkLm1pDVJJjWQut2gl1L8FztxP9SxvAAR2hSCUP5yZh5QNWiQ5hhsQELnOw61VBFXUGvY6LBwf58xZHIHaQPf4xmBkRm6SbmQRw8hQ/D3eTRakr8zSSOg5v0vuYdaAfwXBl7fzubFxnBGRKlrKr9wUudeotOX4AAD2ESfoIfi8nhsxGUUSV4IyqrggFHDMx60Pc24Bp/K5lUcMy7c9zcFDZEmAMEGcxYRcpn6yKolX5uQhYF2Ex65I+ivzb4GZaOWKa5gBXcTwzw42AJYyvQU0iGsV+i9phpsZF/ac/c18PF2do+E2ISPc9+IA9+oVHrb+/35W1ekEiQgx9lafRSMFFJpTACqHyV4AzMjpiJ9HDvAZn9CJm5FMnEZWkS7htkz2Gg9p98oFBWdmBfsnNzrzvjmU0uDyEVVbVK6ybuoHWtwlEIYlEe/a8br/4xYuA1yEsgdMOLM888wzp3ucK0Iw4GIECZZFYqBDo8Pzyvf9ROnSU6vGr//i1g6ZESqmje1Au78Kz9uvf/Cvbhnncy92Ug0Q0ATq9TNMH4Kn6uW6LiskEr/qpXV2EhZ5eRwfjAEP7Sf9zGw59H2sdjByBapgF1TDWgvmUzkefDrFxABpaJ5RG15LkkMSuPi2A+BhpbErETfPJJUSetzWsC3HY1wwsdgdcQWcaHxmIqTHu6SARtAYFs5hyhPhq/Klgzg5ELHUVooLAhVmKqSoY8yBPRPoOZF3NpmJqwBPLkj+Mi0HXJmtrGcCTHkR+IilAAzULRBwx1EAQUNDVqqYf+smhMuhA4rMxEjuFjmc/DnEnhyGm6RiiF+XXTM9ISiZw9WuHUJe14HuDohgzOx7+DFB0QbSjzPJ5HSwrYLKi+AFsZAAY1D1wK5SF64BB0BCW878AEauOOLgZISTCGbdn/PQh7fe8hl6/OhzMMfsFooxEpHNnzkKEUV8TdB8cjAPM2rX/FWCkN1IQ8eoADCq0v9J0gGlwNYE377g78D2HJ+wBlMgjiEq9mI/vQVR6EG7jU5/+lK3p76d9eVsHQZOGlKgK4lxC07TqryCvXTm+vQbA7N3zhl26dMnf0dqcv/3bv8XKcj8iNx7fYksbwTkuz0J/wrvv8ay60k/nzp61P/zhD75m6Agm5GG8n2MA5x133mHPPPM3zqHJxV+inoLayJdUUHzZBBUCAKUojDUHI3Ew/kTgE1iSBDDfeRYORiIS7SAR6WNtRWKawbwKKyDChsUoMSByGgx0vLo+AfW1wMGkXExRNO7qAYf4HLl5a7GaZv8I74lMkjRwUhYkR3ABjEBFjR44VGlZgvNMIHgVGaKsWVzvcVL3yZP2moimKYIyCVj4w9PgYPxD1KzT4E6R/JReTARN+XTG6ozyVsCkDtdruuDM/YK4C9WXwvpggHik0D0yUsNahLWKJQEjU4GDYB32V2bIFErY3raqbcADeeeyNIrqhHXjt5JBlxSpYTWj/lUykudvFbCoIiZxw1VKYAo6KQhVA4+ycJt4JSuhfOYO3kesS/GWo3yEmwOWIK56KWjfxns+I1fsGI52LwIw+/CDEbEKJGRylQ7m8+gW1q5fRxnVZ4ETnRSpCiJaiSDQj4OAgCAsTyDeQCiA6YmTJ+zXv/qVvY6yUk5xWRz5upjx72cdz7e+9S27i/VO7jvTACa3IqHkVHlVFheP1K9BNewYnq4//tGPPD0tClS8xehd7rn7Hnvqa0+5r40vL1B63qkqrJf4T78bab2nk9KgsmOA5DvvvOOA/NJLL9nJkycdYKQYl+gnx7s1/WvcY1npC0yk/BYnJZ2XLFwqs8omD1yN16BunoEDTJmJ/DVEJCl5977xhivjZUX6whMfYzM10y86EBQMkGiEjq/QMKg3IEBXf/nAb2EQuilTOCHir6Po1Ao59wGRV6jc7OFvRETq/1BRC7AE4o4amfS0Uhq8F2NSk+hDZ1QgulIwth1gZMeJ0nk+O9Fh7pOC3kNB2SsoeccsnxDReVBucTWQNeUlcYjd9Qd6AdFL1q5wUEoqKjrAATA8EkBN8OcsiuM3B2p2crBiQyzwzCN3KdcYFUoi3/W0wwHgq7KlN2LbMS0vw2NXykH4KfISUHBmYMknVvO++BL9UwwpUV1Od6oFXAFNuQYU1Y78Q2NEuYWCQQgJOvz9bmcN6lBUcIUpFZQ51DmYn//cF/NduXrFndW0gE6u9p/7/Ods3fr1Xj8aBpAJc6AW9K+c0BSumYP9VyAC6FKgc5VFfDInay3PKy+/7OKNlMRyuvva17/uCwaXoT+Ru30w2wNMPNe13g8P9XMJPY7W6nzvu9/FerQPH6YcStVFeLfudNHoE5/4pK1as5o2pLZqQ4K3kYAm+BGc5/JXaVIG5ak1Q6rPv7IKXQ5+AuCVK1fZQw89hJUHRzj0TEuXL6O9A+5FK/01DrV2KgAYyqW6wfkEfaiyBoekgRIqhNdeffVPZmpxMADYx5uDwYegXpGgQ0MIeRnoGFAY/swyAELAUTTaSR0o0zJbLZQwudbctIrPR7nTB6nEEE2E6neSoINw5KJh9UsdIH+DKESpTnFJSXGgKxawexAH4wADADgwMfIFMBJhgEFSARQ4iztpqHB4D04B/YG4ApmEgTtmBkCmAVoCNEiFh1q5Km7qT0ClOEPIRodZ2HkEP5fjAyUbkrWIlds1EgT+UI6a9XWyGHFJwnaszNhGrGF9iSKKYw0c6iIAQ7GrX3VxUvrphQvW1Sh38W0qtzeKwEZITAgEBgBIA5QYcwm0jv9T/6nEMp1qnZAWO2qpwAHMykNYSNKse9mwcaMDzCMNgAnzczDmXQGUfGGkzFXw1bsQSxiaiTsUlQQIP/7hj+ztQ4fdX6YL3Yu2Z5BX6iOPPOKikvxoVEr5rujsv+kIcTJSEms19j5mdC0GPMS2D0VcAaTH+fJXvoJSGv+QjRucO1I5nMOC8BW0SjpUSDMi/N57/SOLlCxeKpMA8PBbB+0HP/iB+w9pa4cWAHIDYHwvItpjj33B1lEWAY/rgTTQ6dYo41X566fK4xyMfuhh4xBXqH557RU4mO88a/v2NPxg3NHuY+wHU2elb72otS8SGSBEFprVYAfqsPnBmgp/xB+C9yGsPeblElsTVCEyNDSIUZ2u9xBHoDhqVgcYLurocoQoIiktNZe8Ktp0+tRz3sk33hGY6YgyyK8NZl6sEFn8BHd5GysVg9MBSuPMdRdwUKTBUAGM2DIirgcqgcqnSzJBZEFw0wiQ4QqFNXokGLdT4wUWIeZR6BZsGC/hPCZv+fRGAS2J+72+5wuLERcnWHuVsaUZOBrxPXBJROTEVgmhc6IAhvKWKV8dDi8O5yWS0uEQpFdUUG8NIuqagfi+lJSkrX8KSrkKwGhbhCNYeH76k5/Cwey3oRH2g8GP4zYsMRKRHsGKtBaiUVA7S2RVkNgiMchZf+7LF0b3moPiN5uz5Wn7ws9+jll5j124cMG5p05A5k7WI30Z1l9WpTR5+9YQCXG6iLWIFspHaY/iBHgU8Uh+If/5+9/bWXQhRHKT+l/j6HYPVpxu9DtaNKm20nulhvJZLgLucKcCBlVoLupNXYtjE8enCU0imJS9v/z3f3NORmUR2MmitIO1QlqjtHX7Vlwg5F/FeEIFoHwjiNwgTtCXEo00UV8HYHYLYGRF2vsGE26geP/iV578GPvBMFuVsjiC0akpHOUirDFyqnciaHScOs/pAoKFcEoQsVj8Cp3iAIOOxqWloL29Y/VKePgNzToMDlmFtCTfgaZBawIqwYdmcZm6xbJTHO8z0aAWYKo4POUkguWaeD7zwmnIRV/x6rBAWhkgeHFIqsPRMBgjmNIFbfEENmJmPYlkw5iWz17N21tX2XOE5RDjWKAigKGKWUFrnGTGX9zDKmuAZecSVkx31a0Pp5k05m+tXlYOEZYHGJt0OYCpkpRTM5uMcjUqoZXSMYEM+QlQr4ltqgz4pz1ivF7seeEgozTmEAKACcBUBFhFxNHq3edwtNN+MIODg5bBD0ZOcdpH5bOPfNa3bPBWpx1l8lXbhnoRpaEgIgkP/Q7BRaupFQQaE3j0alnCq6+8Yj9HJLuIsla6k9vgYiRW3IWpV1sfLELkcXM37wmgwjzOnDptv8F6Iw5Geo9sY1HjDnQ4T339a3Yn7/taJIEd3JTe0ypwBa10Djx6+UFTziUEHBETE/2m4aiV5+LGpCN5+Q8ve30EZGq7J7/6VduJVUnbXrS2I/r5G0weAmj1pwoggBEXMwvAyElzN+30rPxgAFTpbrRU4AkcFe9/8KGPp6OdZpMcHrAKGXwMtD5Cg02tJSL/U6A5RflQSoWzpHTN1LLuICQ5B+Pt3XjBJ2euwyR84Gvm4YZmChcLABpIknsSFkiLjtFcL4DQkA9mey8N+fAeB6QZhEbCsoJVi7C3/C4xEKpYraTXUfwEXEa8gumcjo1ToEg8w6qghA0S+Qx71bx9iSUQWnqAtUjm7RjAGUO80XKBbpzxNi7rxFqUtO09dVvRQlq+94o4IG0oRfng/gQu+uflIk/VT8pntV0EcBFXp2UMKo8GsYBGQWBTx1tYbRbBKdBnw+DRe/4bAoy/qHTF6rPh1I/ZcGoP/hYDKE21o538YET0n0V06V/XD7ECLoqvfuRfCDAijhBMlGZ4X/ckSoQAI8KTb8f0xKT7rfzL97/vZl4BibiO9evWu8v9pz/1KVuHyBMAAn3clM5hdB0qp7ZmGMOxTtzO+nXr3CL1CMroDRvW035wvSJaDgF4RUroRrkEMD4xqSHnEFQWcS9qQ61El7L66uUBB+bnn3/e3oYT1DqlNWv73fFO7acVz719ixgDlIIjjgwv0vCuVTEcYMLC6K50NrhQoIN59ZU/2rN/9/euTJaEsBkl75f/8in2gnn44wkwIkxcOLxxJG6LUHTILuMmYwHAtc7jCY0pha5Am4nPOyUBp+AtTIN5UMMrqKH5p+GrjpDs6j4CYiE9LhwJxFAHAPQ8wozkimYGeKAoDcriKpVGkp6uiJJDQFSh47SFZQHwmoDY81L1AgBpgLIHhU47eceltIQwJPpdwiHu8HjVjoxV7ASONON44dbY5sEtW4UsbvJlW8Lq6g0shryD7SjWdcVZTkA6sn1LayIFMuBSpg202ttbB+CRpSglEVDt4zOaCkzdVXVAT0poxQ2rIQ5L23wKcFKIY1IYzzWIODxltTv/yZItLA/b/0VZKc7i/Pnzvoualgg8+PDDLOIDYNaudbDQmyHgi9gURMyaEDT5KASiSHAvIEgBk6xNtAVnKbHPnDltv/3Nb2032xEcgii1tEB7xOxgC4evs1ZJ+6t0IWpIVFPQwsmxsTF7HYe97//Td9F57HWz+Zr+fl88KXP3nTu0Y90S72zle80MDIDpd2BGh9vExK46zDWE7SeQKMOd5QAZ7aT3ve9+z3eim2BDLXny7rz7bveC/sznH7HVWJSKah/eyeDBrv4TF+4tqLFNJ6gfgh5XewWi6+4/vmLf/ru/c0dFUctmOJivPPV175eP5WJHDXoNI51VYTVKcIjEAzIPfusvMaQ0kbKUF0SU6pRIBB2OrEreycRjVvRUvKH1jt4lMCjqDA5GAz/ErfBXSmP2JVGIpFpQlaTgMoJukSAiha4jyTXqZCsG7rFaAT8cObdl2eZzyqYAkSkc9gpVVvNGM9YCS92LSNMD5XcCDDJ9F1gceX6yagfQt5zAO3cY5Y/MyVHy1KwbZeUzG9uxwjnOam/YYjahWtoSNfzzKC0Zut5FAIOPCECSg3fjF9WBQ8LMlmJNlUQxoYkcFIPRBrgEt7yNw2pIYV2Dc1NLpOECKQVXcwshgThX5B1Tt9OnTtl//Po3dvCtt9je8op7wG6+fbPvNBfsBrfMAV/95H4unAUaCgIYEXAzwIiraX6ua83s6lntsatlA/LsPfDmAZ+dxTUpXbnZP/bFx90rtre3N9iAirRltdFOeyrfS7/4hZ3A1C3yXLd2rXNYEo1Wrl7lK7SVScC5aEoJOCqVT/u3aGylJD59QAAjJbl0MlosKj+igyxd0HqoDDqg/nVrfa+bT+Lns4KyqX00gabRXSr/oB8ooGY/NYwH3QVg4Lq0DcXhg4fYyvT/OmckOulfu84+DUe5/Y47bcWKFUF9wzepo4Lavjmo7goz7zfH+aCv57yaWkUNj+ZqiO9oUMif2sqviNV41Kgnd5nZA6ThHT1XBM6eoP/hN4HbjjXeYMH9CFs41GssaONxOdaNA10KziBQ9rIrZqCncBEqACVWBdg5xJnz2NIvDbPXL6t8R+A8sjjElStsn1hDj4RZGlUJIFPEg5ZtLQGJVikE2WpiBHQ6KYUuHrtlCFviRK2ctxY8dJf1tbFeKeX7Dfez4nopCMfaSN7TwA6hgUuCi2RURjWNA07yyA2Zdb/p7eBRAy6m0QyKrxAMO+fteE/DtKmdgijv6a8GnWZJ+ajI7V5bW2px4iimV1kv5E2r7RV6exe5jkT75EpMdX8N+kP/mgeurpt/azA3/9Z1CDhi9fOI2cMok2W+Vr7TrEOS+KKtFvr7+8kTvQWOagIdcT6yQknfop3kLsJhTWGxkd+M9pgRofUhgrS1tfsSBwGemmdm/s3KZtVlrkHpetqcxWVL7BN3dYFyaSW6RELVRdtzar+bFStX+p43Pik12k4WOAGL96KuG8HbSRMSHLYAZhRQ1UZXY6NjtEMFLq/LXQb6WAYh7k7c4kcxzBlg/vyVEZyMc7Bg0XoAmIRzMOJeOiWRyEWfdUtakzRdTNhFre7Gjn5mqmiXh9hjl0GaY0BUWeFdq3Qy6LEri9TZgiEam0ZZW2FTqwRrgeg8RCGpm4aGc+xtw+zDgseIxBv25l3ckbRNaxax/WWcFd+AC2wL6xDhoAKxSJAgPkaDSIekIO0foiGlDcvfzwAn4fcdfCDDVUhH4nubcNYMG4KAiFTErUODWOdQt/JBzIQidhGiDgGHyqF0lZcsQFIIyyqle4qrsulQWfWOyh+WTe80l1Fln1nGsL5quNme32yDKp3w0DtqL5VP5Q/LqGvFUT4ql6/qpi4qr8rV3MbXK+fMNJW20lWbSJRUmh/lMI8BRmyuRCQGXoRPW3ClXQ+k08i47MZARYcxKlC5iq/KaNneZkX3VdYq5FgfgJSE1MZixQibSmnfYP2WNIMPjkWYRfnUShx2JpbQJkVs7E0G2XEIoJzF7byM5cxsWSZpa3vQtyxtZ+vLiC0DWbpQzKYlbuAMxx8vn2tsARnpkaTgCx3c4sjfPoMR688RNPgVdA4JRGcd4TM9F4E0HyKG5kNx5hrCvEU4AoxmogvBIiRIxQ3ji8gEMvqtsgn0FL8Z/GYj2vB9lTeMO5eyN6cT5hPeEyiEh+7pucqoeuhQvgqKo6BnYXv6jcYfvRseiqs20lltpDTEuSi9j3KYvwDjaAARo9OQQ5z7kYhz4FcMzoSesCk67uxkxQ6fzeMQx6ZTrOTWPsGif3h/gIJ1UjHW88hjF1rT4jV519YEXHAgcoaL8sWBeBoFC+8Up+Ga6tOAS856WNW8ra/DNgAwy9kMS1tJdIFurXKWkxOiZ6KBI+6FUnFWtjp80JGhNnluMMfc/fCDyhGGcCDrd/P98LnOISGF17MRRXP893ItohFohACjd2cDtTDNML63ZYOAbwQYiqv3dKjsN4of5jXbOUxLz1TO5hA+0zk8wrYKwUTxmwGm+X5zWuG10gnBRddKT+AyM+8w/kflPI8BhiaEWmnrQJlLHyMlwSegPhUbiSn3BGBydKhib50rsqNdxSbYNqIK6+LrlXhNn3fQrJdia0zpQ/RZgSpHBe6jhLKkXBCH0+477kkXKKknEc8iOk1bv3aUW9FpG7ozrLxm3RVa5TTildgg6WdcgYJHsy+2RBS6prtt6nkNS3L9swUN1PcSwvjh+UZE8V7TVrph2uFZaYTEGZ51rzlucxxdXy/oHYFLmPb7BZgwneZyKe/wfnieWR7dD4/w3Ztpy/CdML3w3fD3R/E8/wFGLIEUG1BqhFXLskpJ/zKSK9sevs10CIA5cTliIxOolEX3zlmgPwEQOvGu7WX3unbkfG0JIW1OERPwFDPpCDqbUT76Vinz1ch4W+CXQh7pVIntE7K+J+6n+9t9K0/f8NutRXA9DGBdCur4UpsfsoC5kroxAsL57s8JLipKSAAaqDcTwvjh+f0O8DCdmXmH93UOr5XXzNn6Zssdph+mF6Z5M0QdvjvbOUznZsvRnH/zu2E73mw6s5Xlo3pvfgMMuOJ4IYJ2gEFRgohSR156B1f+X58ftSNXazY81YG8LvUvrCWuw+kUu8CzQ94OPmO7lo2t2tjPRnsDR+BAsjjYDbLb3Rk+m6Id6a5MJrBcyN9FMrsAht3lWvK2BS/dR9e1wMFIKFMBxBkBLjK1C/QQ1mpspVlHFAssYF5EwQ7WJXEOAkUR9s0RNxE/tBAO/pkZhgQQPg9/z4x3M79DYlPcML0bvRfmp/i6Do8bvdf8vDmvML3m5+/nujnt5nSa81GcMF7z/ebr5nfn+/W8BRjRqGjZPVydoPkRY5d3EKeIG/4RFiK+dHrU92cpFLoBCMQVPumaYXe41Vh7tuGrsqsnYavZVSrFUgFwgOdV9ncp2wifQTiD38tBvql0ks2jLo2yv0tBCl+tM6rB8fDBq766fXFdwjaxX7Cb2gUYQjuhCYcWGdTxk5GKSLcEIyqrFnjraWCel7LvowMw4cAPzzMHt4jggyKEZkJ7t/xmlqE57s2U54Mq78xyzPY7LFvzOcy/+Rw+D++9W1qzPQvvvdv7YZw/93neAozART4lIdHKalOoFwCImk2Xk3Z4rGq/uzBtF0exLuXxc0F/EsU6tIzNwz+9gUV1i3CGY9/dNi2GQhfj7vkADDp6VoVX7Cr7vJxErDrMPi8HL/A1gikUvkmJS5hqcRHu56NnT/bHWA6AHgfLEf8dK5hbSQGFrnxlpLfhPsV0PJFTr7aGCABGNwPl7597ECh/DXodzTqKsFwayDOP8Nn7OYeEFqYR/r4R4aiMNxOay3wz8d9vnJlt2FwflSUUyW5UvzCd8P3ZyvVh1222MtzMvXkLMFK7lCAIiRsSfqRczbH0YBI962ghzlYKfNnxct4GcZUp5zFFI+Ok4pO2iW84f3VLNx9v44PgeANLntFeNnVYiyhLrYMVTXxuAybjMukcwsT9Mp9+vcJXAizBZxixOEkUWtpJOuvithOg0j6+AplgP5sAacS5hIpdBxhoQptasXMOxBr4euirCIEJ+2a66tbGCQf1hwkwM2sUEtS7EWBYTr0bxp+ZTvj7wybCsGxhG4blC8uxADBhz8yDs1ZkFzAHa6FZC/4kWqOkz8aOgxlX+Pzsm+zq/8rlHB9zQ0NSZBsFXPK7MtN25+KqPbkuY6ux/lgE/xbwINcQY8SFaBdhvueI+MWG3HgHH+TrkP9+5Iqd5lvX5Wg3pkJ9hpaNuFlr9NSmjN29TJ+vYF0LJmqtZGCi8iBQ0TyrcwgwUTwwBTAqS2C+/ugAjAodEkR41r3mMJPwZ/5ujnsrr69Xvtny/LDLGJZt5jkEGZXxZsoUvj9bncJ7N5NOGPfPdZ63HEwZm3GebQ8EMK1wAtqHpYSvyQRy06Wxuu27UrSXz0/a+ASsf017ovJt7Pa87eir2BOrcO/vBGBi7e4/kwUU+GoIxM/6GM4pgMADiplDrJp+4dBFzN1YmCJdODul+I5Sxbq7kvbU1na7dzlfDMSZUnoc9MTXNCohwIQg4ysi0O/E4bTikuvkOyEOxtW+QXYf1b/XG+y3coDfqjyb072V5VdfNud1o7691WW5Uf636vm8BxgpVltxgInic1JlWbc2FB8AVN64XLBfnRhkdS5ej4keS7Uk2WGujHNc1R5dZm49isRwoINtmYbW5XcbQe5KgwgpDudEeHYUUeuFI5f4FG4BDqmddUsAGXvA9KEgfmpbh92zPBYADOgilW3oTqdtI8jZuRiBjEIE3U6M8mqf3UYGXOjH/Aghwegsgni/RBGmN1vt9Wzm8zDPueY7M80wvdnyn8u9sLzvVj7FadYhhXE/6LLMpfy34p15CzD6GkFeW12i12ht7E5XwxtuGoAZZkHjHgDmF8cus1cI+7SkFlsSgOlsk/XH7NHVKdvSqd1sIW5sz6hafJmBtMZYofnWdtDU2gnhIADzs6ODdgyrVBmv3goWqgpm7MUAzNe2dMDBxFxE4kOPpCZztaAKU7n/xVTtICPeSEFbFKCHgdNBrczv8PCHH5k/IaHcqEAhcdwo3vWez5ZP873ma6UREmGY72zPr5eX7it+eMxM693eu5lnYbo6v1vaei6P3JnxwnfeLS+90xzCdmi+91G7nscAoy8TsDARMEj7vgbB4rFptqGcZGc5iUg/e+eyDWJNiiX6+AqjrD3TrHpO2Fe2L7IdWH8yfJpVe/FW8VcpAgTqvySykn9nm+0Ypumt/QDML44N29kxVm/H2dkO7a2+tNeHDuYbtwMwbNHQgniU0LYTWm5JmXw9kzgYRKwaYpDU0FLvangIUsSzhId+f1RCOIDDc3O5Zg7mmb+b487lWnnOzHe2PMJ7YXydw3s6h9ezlWHmOzeKP1sas90L0w0XNypdKXRn8xQW9xICTLPS90ZlCfNQ/mGdb/TObGX9sO/NY4Dh20aIG+IIMjLXIN7IRb/At4UmAJn9Q1V78QRbAIzjXRvtCgZefcKW4Fz3F1v7bFdf1NbEcpZkE3LpQ7DrBG2Pk160kgSkEnaepQVvDmGNOj1mwxN8AYC1H77UHlRbKRFpY4ftIj15AUcdYEjLAUZgIywCtBDdmgFG95tBZj4CjAb2Bx2aCcjb6D2Cxc2+o3jK62bie6Sb+BOW/WYARnHDNUghQITtGZ5nyzLMQ890PfPd2d75KNybtwAjQYRN5hxg2hCXEGwdZGp8CmUQ09CbfADtt2em7Rw70JW14a4GFYsYW/HgXbu8zbYvTtu9cDGrWKQYCz9HSzpVOJRJVlefz0btLXxgjg5W7cwgWztM62NnfDtbjnZ8aXHzkgyOdl1sLoWFCnrzbUGlcQH0+ON9yzDgQcCr+HVTj4tEP3gybcrgfVxqAM8M7zb4Z8ad6+/mfG8mv+b4yvNm3lG88L2bja93bhSUZpiu4irt66XfHC+Me6P09Xyu791M2rcqzrwGGHzh3IGtlR3lIvLlF10AJqN8A+Qo3yvafbFmJ4b1DWp9s0d7wxTZ54VVz90ttpIV0Hd0Jq2fLRba+RRrSpwM3EcWbkjfmD6DY91RPHkvj7J3LN+9rbCVQJRvVbfzfegVfJZxGwDzieWtfJDevXBuVf8spLvQAvO6BeYtwEgIERcjpiFRLcDJ8EssAQsMC2xJeZ4t7A7BgRy5UrYTV6awJuVYuFiyGB9Da+vt4BvU6GDY26Ub/5Vli1otw4roKpu+TLO1/0g+ymLJmI3l+JIAnyPRZtxRnONS7HS3lLVHm1Z12BY29d7aHrHFsmsvhIUWWGiBWVtg3gKMMyv8cYmkkkNpitMdupCIFKvWYqMwJOcwVx+/WrW3zo/bhZGsTbLCWnqRJFsYSqSp5Ni5DpNOdy87g6FIkQxdYIuHPO+W+EZJuYRiFgAThKSSVetqq9haberd32YbEa+WA05sC7MQFlpgoQWu0wLzFmBcHGoATKWKfgQ9SjzBDVdAxtG7oKgtxu0CfjCHL+XtOPvpnp9kz1m2Yahqq37JyChP9CGsuD7/gaJXYMI2UDQV/iuwSFVtTiXnOBZJdrbUbHVXxDax9+721YhY7L2rrTEXBKTrjKyF2wstQAvMb4ARIIApVX1hQN8mYuGiO7pxT1vy1+sZG2cdwBn0KMdR9h4bKwMybMyMTkUbT+mjZeFnUAQqyFf8ZtV1Y0tDFC+YtquGysZWIA6th2vZ0MMWD6xj6pFyWA3IsRAWWmChBWZvgfkNMAISDn0NsS6HGBzcZHDGn5+bPJArvjgZLEvnMTkdG6vZOywjOMPm3eNTfMa2MI3eBQO1QMWP4It/LH2Ea6laOlaxJe1xNvRuZ0PvlK3iUwFL+K62vnUkDJLZWibuhbDQAgstMHsLzF+AUX0a5lRtpi14Ed5EkHOiZe2di4wj9oLtKiN872gMD98zU3z3B5HpDCAzOJmz6dykFdlgSt62rsDhjKDExuFVtnGo2yKWK61izdHGxe22oiPNB9kifLyenLRWibQj7A/DIigyWQgLLbDQArO1wDwGGMGJXPKDNT/65QAD/WtTp0A7y1ICfe0eX5QCputRNo0a4TtI4zjQsf83G1PpwISNk16RPXxLfIRN35lugUPpSaPE7eTrjC1x38ybzx+RrnLT3jEBsPh3oRdkpNnG1cK9hRbwFpi3AMOSMQAFL13nObD2ACo6tGpZ2y644IJp2d33AaIq/i0FRKVyNYkCWDYnLEUc+k62PmGir8QWC/zBVJ1GqduBv0xfe9LaWAaAnAVDRMI48LFUkb1j+E4PgBM42PF4ISy0wEILzNoC8xxgMDvDU9TrrPUBJAQwClKLyJjkB14xdX0D2z194T5c+ZvmHttgEl8QJDTSq5Kq6mwBYXy6RB+sb8UMHdGnHhGDIhF2imGzKX17qUhG8tJkz3D/DpOSWAgLLbDQAv+9BeYtwDhXAR/iIhJcicBFIOFB4BKCjPxj2Eozit1ZIIQ2mENLB8T1BKucBUTOjvDI1xLxSdhgj01SF1qhAGZJNosi2aqBKEUc7/RKC6ySMzhcL4SFFlhogf/eAvMaYAKWQxwMznUCGGEHddS1EEA7zMls7QKRsydYmwQyvpclnIk+uEbkKt//leNdFO9el6182YFEMPnMIBmRsBYtRvGXUdLS2UgUywAwbOe7EBZaYKEFrtMC8xdgxLIg9vgCMHbWrkkpwn9hh6QhAYCIX1YhOcsJepwbaTzXExbUO+BUSnAsAFHocKe2Eg5pe26YFUzZpAdLlNTm4LqvL0eSXgLxSUvuF8JCCyy0wOwtMH8BBs7DFa9CE7gTOefWkwCGQwBOdNzm47Aep4oGVzvMRdMp+d+53kVAIS9cbVhVxVQtSBFYyOQtpa8AK8IOeYrnimOAJoFepl5Bp1PQN7EBm0w7ceCCFsJCCyy0wKwtMI8BRrgScDGCjJr2uQ32oqSiWTpUHAAAAJRJREFUgQgTRZEryajCx+4lKEX5iuNMgHEOR/oZyU7ibuCGxLXUAZgoMpb4Ex3gki+orFfYeKoIxwNHE0l1LAAM7TKfA129EG5hC8xfgNHI8NERXPjlDGkl0vgoUV3cjlgRNy8F4o//DBvWzU+egicZpBjs56F4Cjq7O58ri0Etfrk/jLTJC2FetkDQz/Oy6POm0P8PwdGRtGG45RAAAAAASUVORK5CYII=;" vertex="1" parent="Buge2XaDmnBFpNvuWRcV-37">
          <mxGeometry x="392.59999999999997" y="226.63096774193548" width="154.5938" height="59.63493333333333" as="geometry" />
        </mxCell>
        <mxCell id="Buge2XaDmnBFpNvuWRcV-44" value="" style="endArrow=classic;startArrow=classic;html=1;rounded=0;exitX=1;exitY=0.5;exitDx=0;exitDy=0;entryX=0;entryY=0.5;entryDx=0;entryDy=0;" edge="1" parent="Buge2XaDmnBFpNvuWRcV-33" source="Buge2XaDmnBFpNvuWRcV-35" target="Buge2XaDmnBFpNvuWRcV-37">
          <mxGeometry width="50" height="50" relative="1" as="geometry">
            <mxPoint x="835.3191489361703" y="583.939393939394" as="sourcePoint" />
            <mxPoint x="915.6382978723404" y="512.7272727272727" as="targetPoint" />
          </mxGeometry>
        </mxCell>
        <mxCell id="Buge2XaDmnBFpNvuWRcV-45" value="" style="endArrow=classic;html=1;rounded=0;exitX=0.25;exitY=1;exitDx=0;exitDy=0;entryX=0.5;entryY=0;entryDx=0;entryDy=0;" edge="1" parent="Buge2XaDmnBFpNvuWRcV-33" source="Buge2XaDmnBFpNvuWRcV-34" target="Buge2XaDmnBFpNvuWRcV-35">
          <mxGeometry width="50" height="50" relative="1" as="geometry">
            <mxPoint x="835.3191489361703" y="583.939393939394" as="sourcePoint" />
            <mxPoint x="915.6382978723404" y="512.7272727272727" as="targetPoint" />
            <Array as="points">
              <mxPoint x="128.51063829787236" y="170.9090909090909" />
              <mxPoint x="417.65957446808517" y="170.9090909090909" />
            </Array>
          </mxGeometry>
        </mxCell>
        <mxCell id="Buge2XaDmnBFpNvuWRcV-46" value="" style="endArrow=classic;html=1;rounded=0;exitX=0.75;exitY=1;exitDx=0;exitDy=0;entryX=0.5;entryY=0;entryDx=0;entryDy=0;" edge="1" parent="Buge2XaDmnBFpNvuWRcV-33" source="Buge2XaDmnBFpNvuWRcV-34" target="Buge2XaDmnBFpNvuWRcV-37">
          <mxGeometry width="50" height="50" relative="1" as="geometry">
            <mxPoint x="835.3191489361703" y="583.939393939394" as="sourcePoint" />
            <mxPoint x="915.6382978723404" y="512.7272727272727" as="targetPoint" />
            <Array as="points">
              <mxPoint x="257.0212765957447" y="170.9090909090909" />
              <mxPoint x="1140.5319148936169" y="170.9090909090909" />
            </Array>
          </mxGeometry>
        </mxCell>
        <mxCell id="Buge2XaDmnBFpNvuWRcV-47" value="Auto-scales" style="text;html=1;strokeColor=none;fillColor=none;align=center;verticalAlign=middle;whiteSpace=wrap;rounded=0;fontSize=12;" vertex="1" parent="Buge2XaDmnBFpNvuWRcV-33">
          <mxGeometry x="257.0212765957447" y="142.4242424242424" width="128.51063829787236" height="28.484848484848488" as="geometry" />
        </mxCell>
        <mxCell id="Buge2XaDmnBFpNvuWRcV-48" value="Auto-scales" style="text;html=1;strokeColor=none;fillColor=none;align=center;verticalAlign=middle;whiteSpace=wrap;rounded=0;fontSize=12;" vertex="1" parent="Buge2XaDmnBFpNvuWRcV-33">
          <mxGeometry x="963.8297872340426" y="142.4242424242424" width="128.51063829787236" height="28.484848484848488" as="geometry" />
        </mxCell>
        <mxCell id="Buge2XaDmnBFpNvuWRcV-49" value="LLM API Requests" style="text;html=1;strokeColor=none;fillColor=none;align=center;verticalAlign=middle;whiteSpace=wrap;rounded=0;fontSize=12;" vertex="1" parent="Buge2XaDmnBFpNvuWRcV-33">
          <mxGeometry x="771.063829787234" y="488.5151515151515" width="64.25531914893618" height="28.484848484848488" as="geometry" />
        </mxCell>
        <mxCell id="2" value="Web Frontend&#xa;(Next.js)" style="rounded=1;whiteSpace=wrap;html=1;fillColor=#dae8fc;strokeColor=#6c8ebf;fontSize=14;fontStyle=1" parent="1" vertex="1">
          <mxGeometry x="400" y="120" width="160" height="80" as="geometry" />
        </mxCell>
        <mxCell id="3" value="API Backend&#xa;(Flask)" style="rounded=1;whiteSpace=wrap;html=1;fillColor=#d5e8d4;strokeColor=#82b366;fontSize=14;fontStyle=1" parent="1" vertex="1">
          <mxGeometry x="400" y="280" width="160" height="80" as="geometry" />
        </mxCell>
        <mxCell id="4" value="Worker&#xa;(Celery)" style="rounded=1;whiteSpace=wrap;html=1;fillColor=#ffe6cc;strokeColor=#d79b00;fontSize=14;fontStyle=1" parent="1" vertex="1">
          <mxGeometry x="400" y="440" width="160" height="80" as="geometry" />
        </mxCell>
        <mxCell id="5" value="Plugin Daemon" style="rounded=1;whiteSpace=wrap;html=1;fillColor=#fff2cc;strokeColor=#d6b656;fontSize=14;fontStyle=1" parent="1" vertex="1">
          <mxGeometry x="640" y="280" width="160" height="80" as="geometry" />
        </mxCell>
        <mxCell id="6" value="Sandbox&#xa;(Code Execution)" style="rounded=1;whiteSpace=wrap;html=1;fillColor=#f8cecc;strokeColor=#b85450;fontSize=14;fontStyle=1" parent="1" vertex="1">
          <mxGeometry x="640" y="440" width="160" height="80" as="geometry" />
        </mxCell>
        <mxCell id="7" value="SSRF Proxy&#xa;(Squid)" style="rounded=1;whiteSpace=wrap;html=1;fillColor=#e1d5e7;strokeColor=#9673a6;fontSize=14;fontStyle=1" parent="1" vertex="1">
          <mxGeometry x="160" y="280" width="160" height="80" as="geometry" />
        </mxCell>
        <mxCell id="9" value="PostgreSQL" style="shape=cylinder3;whiteSpace=wrap;html=1;boundedLbl=1;backgroundOutline=1;size=15;fillColor=#dae8fc;strokeColor=#6c8ebf;fontSize=14;fontStyle=1" parent="1" vertex="1">
          <mxGeometry x="180" y="600" width="120" height="80" as="geometry" />
        </mxCell>
        <mxCell id="10" value="Redis" style="shape=cylinder3;whiteSpace=wrap;html=1;boundedLbl=1;backgroundOutline=1;size=15;fillColor=#d5e8d4;strokeColor=#82b366;fontSize=14;fontStyle=1" parent="1" vertex="1">
          <mxGeometry x="420" y="600" width="120" height="80" as="geometry" />
        </mxCell>
        <mxCell id="11" value="Vector DB&lt;br&gt;(Milvus/zilliz)" style="shape=cylinder3;whiteSpace=wrap;html=1;boundedLbl=1;backgroundOutline=1;size=15;fillColor=#ffe6cc;strokeColor=#d79b00;fontSize=14;fontStyle=1" parent="1" vertex="1">
          <mxGeometry x="660" y="600" width="120" height="80" as="geometry" />
        </mxCell>
        <mxCell id="12" value="External LLM APIs&#xa;(OpenAI, etc.)" style="ellipse;shape=cloud;whiteSpace=wrap;html=1;fillColor=#f5f5f5;strokeColor=#666666;fontSize=14;fontStyle=1;fontColor=#333333" parent="1" vertex="1">
          <mxGeometry x="140" y="430" width="200" height="100" as="geometry" />
        </mxCell>
        <mxCell id="14" value="" style="endArrow=classic;startArrow=classic;html=1;rounded=0;exitX=0.5;exitY=0;exitDx=0;exitDy=0;entryX=0.5;entryY=1;entryDx=0;entryDy=0;" parent="1" source="3" target="2" edge="1">
          <mxGeometry width="50" height="50" relative="1" as="geometry">
            <mxPoint x="520" y="410" as="sourcePoint" />
            <mxPoint x="570" y="360" as="targetPoint" />
          </mxGeometry>
        </mxCell>
        <mxCell id="15" value="" style="endArrow=classic;startArrow=classic;html=1;rounded=0;exitX=0.5;exitY=0;exitDx=0;exitDy=0;entryX=0.5;entryY=1;entryDx=0;entryDy=0;" parent="1" source="4" target="3" edge="1">
          <mxGeometry width="50" height="50" relative="1" as="geometry">
            <mxPoint x="520" y="410" as="sourcePoint" />
            <mxPoint x="570" y="360" as="targetPoint" />
          </mxGeometry>
        </mxCell>
        <mxCell id="16" value="" style="endArrow=classic;startArrow=classic;html=1;rounded=0;exitX=1;exitY=0.5;exitDx=0;exitDy=0;entryX=0;entryY=0.5;entryDx=0;entryDy=0;" parent="1" source="3" target="5" edge="1">
          <mxGeometry width="50" height="50" relative="1" as="geometry">
            <mxPoint x="520" y="410" as="sourcePoint" />
            <mxPoint x="570" y="360" as="targetPoint" />
          </mxGeometry>
        </mxCell>
        <mxCell id="17" value="" style="endArrow=classic;startArrow=classic;html=1;rounded=0;exitX=1;exitY=0.5;exitDx=0;exitDy=0;entryX=0;entryY=0.5;entryDx=0;entryDy=0;" parent="1" source="4" target="6" edge="1">
          <mxGeometry width="50" height="50" relative="1" as="geometry">
            <mxPoint x="520" y="410" as="sourcePoint" />
            <mxPoint x="570" y="360" as="targetPoint" />
          </mxGeometry>
        </mxCell>
        <mxCell id="18" value="" style="endArrow=classic;startArrow=classic;html=1;rounded=0;exitX=1;exitY=0.5;exitDx=0;exitDy=0;entryX=0;entryY=0.5;entryDx=0;entryDy=0;" parent="1" source="7" target="3" edge="1">
          <mxGeometry width="50" height="50" relative="1" as="geometry">
            <mxPoint x="520" y="410" as="sourcePoint" />
            <mxPoint x="570" y="360" as="targetPoint" />
          </mxGeometry>
        </mxCell>
        <mxCell id="19" value="" style="endArrow=classic;startArrow=classic;html=1;rounded=0;exitX=0.5;exitY=1;exitDx=0;exitDy=0;entryX=0.5;entryY=0;entryDx=0;entryDy=0;entryPerimeter=0;" parent="1" source="7" target="12" edge="1">
          <mxGeometry width="50" height="50" relative="1" as="geometry">
            <mxPoint x="520" y="410" as="sourcePoint" />
            <mxPoint x="570" y="360" as="targetPoint" />
          </mxGeometry>
        </mxCell>
        <mxCell id="20" value="" style="endArrow=classic;startArrow=classic;html=1;rounded=0;exitX=0.25;exitY=1;exitDx=0;exitDy=0;entryX=0.5;entryY=0;entryDx=0;entryDy=0;entryPerimeter=0;" parent="1" source="4" target="9" edge="1">
          <mxGeometry width="50" height="50" relative="1" as="geometry">
            <mxPoint x="520" y="410" as="sourcePoint" />
            <mxPoint x="570" y="360" as="targetPoint" />
            <Array as="points">
              <mxPoint x="440" y="560" />
              <mxPoint x="240" y="560" />
            </Array>
          </mxGeometry>
        </mxCell>
        <mxCell id="21" value="" style="endArrow=classic;startArrow=classic;html=1;rounded=0;exitX=0.5;exitY=1;exitDx=0;exitDy=0;entryX=0.5;entryY=0;entryDx=0;entryDy=0;entryPerimeter=0;" parent="1" source="4" target="10" edge="1">
          <mxGeometry width="50" height="50" relative="1" as="geometry">
            <mxPoint x="520" y="410" as="sourcePoint" />
            <mxPoint x="570" y="360" as="targetPoint" />
          </mxGeometry>
        </mxCell>
        <mxCell id="22" value="" style="endArrow=classic;startArrow=classic;html=1;rounded=0;exitX=0.75;exitY=1;exitDx=0;exitDy=0;entryX=0.5;entryY=0;entryDx=0;entryDy=0;entryPerimeter=0;" parent="1" source="4" target="11" edge="1">
          <mxGeometry width="50" height="50" relative="1" as="geometry">
            <mxPoint x="520" y="410" as="sourcePoint" />
            <mxPoint x="570" y="360" as="targetPoint" />
            <Array as="points">
              <mxPoint x="520" y="560" />
              <mxPoint x="720" y="560" />
            </Array>
          </mxGeometry>
        </mxCell>
        <mxCell id="24" value="HTTP API" style="text;html=1;strokeColor=none;fillColor=none;align=center;verticalAlign=middle;whiteSpace=wrap;rounded=0;fontSize=12;" parent="1" vertex="1">
          <mxGeometry x="480" y="210" width="60" height="20" as="geometry" />
        </mxCell>
        <mxCell id="25" value="Task Queue" style="text;html=1;strokeColor=none;fillColor=none;align=center;verticalAlign=middle;whiteSpace=wrap;rounded=0;fontSize=12;" parent="1" vertex="1">
          <mxGeometry x="480" y="370" width="60" height="20" as="geometry" />
        </mxCell>
        <mxCell id="26" value="Plugin API" style="text;html=1;strokeColor=none;fillColor=none;align=center;verticalAlign=middle;whiteSpace=wrap;rounded=0;fontSize=12;" parent="1" vertex="1">
          <mxGeometry x="570" y="300" width="60" height="20" as="geometry" />
        </mxCell>
        <mxCell id="27" value="Code Execution" style="text;html=1;strokeColor=none;fillColor=none;align=center;verticalAlign=middle;whiteSpace=wrap;rounded=0;fontSize=12;" parent="1" vertex="1">
          <mxGeometry x="570" y="451" width="60" height="20" as="geometry" />
        </mxCell>
        <mxCell id="28" value="HTTP Proxy" style="text;html=1;strokeColor=none;fillColor=none;align=center;verticalAlign=middle;whiteSpace=wrap;rounded=0;fontSize=12;" parent="1" vertex="1">
          <mxGeometry x="330" y="300" width="60" height="20" as="geometry" />
        </mxCell>
        <mxCell id="29" value="HTTP" style="text;html=1;strokeColor=none;fillColor=none;align=center;verticalAlign=middle;whiteSpace=wrap;rounded=0;fontSize=12;" parent="1" vertex="1">
          <mxGeometry x="240" y="380" width="40" height="20" as="geometry" />
        </mxCell>
        <mxCell id="30" value="SQL" style="text;html=1;strokeColor=none;fillColor=none;align=center;verticalAlign=middle;whiteSpace=wrap;rounded=0;fontSize=12;" parent="1" vertex="1">
          <mxGeometry x="300" y="560" width="40" height="20" as="geometry" />
        </mxCell>
        <mxCell id="31" value="Cache/Queue" style="text;html=1;strokeColor=none;fillColor=none;align=center;verticalAlign=middle;whiteSpace=wrap;rounded=0;fontSize=12;" parent="1" vertex="1">
          <mxGeometry x="480" y="560" width="80" height="20" as="geometry" />
        </mxCell>
        <mxCell id="32" value="Vector Search" style="text;html=1;strokeColor=none;fillColor=none;align=center;verticalAlign=middle;whiteSpace=wrap;rounded=0;fontSize=12;" parent="1" vertex="1">
          <mxGeometry x="630" y="560" width="80" height="20" as="geometry" />
        </mxCell>
      </root>
    </mxGraphModel>
  </diagram>
</mxfile>
